<?xml version="1.0" encoding="utf-8"?>
<!-- Generator: Adobe Illustrator 23.0.5, SVG Export Plug-In . SVG Version: 6.00 Build 0)  -->
<svg version="1.1" id="Layer_1" xmlns="http://www.w3.org/2000/svg" xmlns:xlink="http://www.w3.org/1999/xlink" x="0px" y="0px"
	 viewBox="0 0 212.6 212.6" style="enable-background:new 0 0 212.6 212.6;" xml:space="preserve">
<style type="text/css">
	.st0{fill:#D1E8F4;}
	.st1{fill:#96CCED;}
	.st2{fill:#1E5679;}
	.st3{fill:#EF5A5C;}
	.st4{fill:#7F1620;}
	.st5{fill:#FFFCFC;}
	.st6{fill:#E02727;}
	.st7{fill:#DF2728;}
	.st8{fill:#EF595B;}
	.st9{fill:#F15B5D;}
	.st10{fill:#FEF5F5;}
	.st11{fill:#FDFAFB;}
	.st12{fill:#BA2028;}
	.st13{fill:#FDF8F8;}
	.st14{fill:#FDF6F6;}
	.st15{fill:#FDF7F6;}
	.st16{fill:#E54A4E;}
	.st17{fill:#FCECEB;}
	.st18{fill:#E5494D;}
	.st19{fill:#E64348;}
	.st20{fill:#E54044;}
	.st21{fill:#E34549;}
	.st22{fill:#E53D41;}
	.st23{fill:#F6B2B8;}
	.st24{fill:#FBF0F0;}
	.st25{fill:#E75458;}
	.st26{fill:#E4484B;}
	.st27{fill:#E33336;}
	.st28{fill:#E23336;}
	.st29{fill:#EFADB2;}
	.st30{fill:#E43B3C;}
	.st31{fill:#F6F6F3;}
	.st32{fill:#D5CFC2;}
	.st33{fill:#F1A3A6;}
	.st34{fill:#F8ECEB;}
	.st35{fill:#DBD6CB;}
	.st36{fill:#F1DEDA;}
	.st37{fill:#B7282D;}
	.st38{fill:#F1ABB4;}
	.st39{fill:#1C557A;}
	.st40{fill:#FFFBFB;}
	.st41{fill:#E6454A;}
	.st42{fill:#1C567B;}
	.st43{fill:#FAE4E5;}
	.st44{fill:#F6C3C4;}
	.st45{fill:#E54145;}
	.st46{fill:#FDF4F3;}
	.st47{fill:#FCF3F4;}
	.st48{fill:#E74448;}
	.st49{fill:#E43C3E;}
	.st50{fill:#E54449;}
	.st51{fill:#D0E5EE;}
	.st52{fill:#D2E6EF;}
	.st53{fill:#D3E9F2;}
	.st54{fill:#DF2928;}
	.st55{fill:#F8B8C1;}
	.st56{fill:#F6A0A7;}
	.st57{fill:#E1282A;}
	.st58{fill:#F58D95;}
	.st59{fill:#E12528;}
	.st60{fill:#951B23;}
	.st61{fill:#B62026;}
	.st62{fill:#B12026;}
	.st63{fill:#F8B3BB;}
	.st64{fill:#E43D40;}
	.st65{fill:#F5BEC0;}
	.st66{fill:#FEF4F4;}
	.st67{fill:#E02528;}
	.st68{fill:#F7A5AD;}
	.st69{fill:#E12729;}
	.st70{fill:#E53F41;}
	.st71{fill:#FAE8E8;}
	.st72{fill:#F6C4C5;}
	.st73{fill:#F6A3AB;}
	.st74{fill:#F19DA4;}
	.st75{fill:#FBD0D5;}
	.st76{fill:#C3252A;}
	.st77{fill:#C52C31;}
	.st78{fill:#E83E41;}
	.st79{fill:#E53135;}
	.st80{fill:#E85458;}
	.st81{fill:#E22C2F;}
	.st82{fill:#DA2428;}
	.st83{fill:#D1E8F3;}
	.st84{fill:#155177;}
	.st85{fill:#2B6184;}
	.st86{fill:#0A486F;}
	.st87{fill:#9ABACE;}
	.st88{fill:#95B7CB;}
	.st89{fill:#15375F;}
	.st90{fill:#E22F34;}
	.st91{fill:#E75054;}
	.st92{fill:#C0373D;}
	.st93{fill:#CFE6F1;}
	.st94{fill:#99BBCD;}
	.st95{fill:#A5C3D5;}
</style>
<g>
	<path class="st0" d="M210.5,125.5c-1.3,2.5-3.4,2.9-6.1,2.9c-29.6-0.1-59.1-0.1-88.7-0.1c-1.2-1.2-0.7-2.4,0-3.5
		c1.5-2.8,3.8-4.9,6.7-5.8c5.4-2,10.5-5,16.2-6c1.9-1,4.3-0.4,5.7-2.3c1.7-0.8,3.4-0.4,5.2-0.4c5.6,0.1,11.1,0,16.7-1.4
		c0.3-0.1,0.8-0.2,1.1-0.2c3.5-1.4,7.2-0.8,10.8-0.9c4.6-0.1,4.6-0.3,5.1-4.9c0.6-6.5,0.4-13,0.6-19.4c0.1-4.9-1.2-9.6-0.2-14.4
		c0.3-1.8-0.9-2.9-2.6-3c-1.8-0.1-3.5-0.1-5.3-0.1c-11.3,0.2-22.5,0.1-33.6,0.2c-8.3,0-16.5,0.2-24.7-0.3c-1.3-0.1-2.6,0-4,0.1
		c-3.6,0.3-4.1,0.8-4.4,4.4c-0.1,1.2-0.3,2.4-0.9,3.5c-2.9,0.9-4,3-4,5.8c0,9.4-1.1,18.9,0.3,28.2c0.2,0.6,0.3,1.1,0.9,1.3
		c3.5,1.8,7.5,0.7,11.1,1.5c1.2,1.2,0.4,2.1-0.4,3.1c-1.5,1.5-2.4,3.4-2.9,5.5c-1.1,4-3.8,6.9-6.4,9.8c-0.3,0.3-0.8,0.4-1.2,0.4
		c-2.6-0.2-5.2,1.1-7.8,0.8c-1.1-0.4-1.3-1.4-1.5-2.4c-0.4-0.9-0.1-1.8-0.3-2.6c-0.4-0.9,0.1-2-0.7-2.8c-0.3-0.7-0.8-1.2-1-1.9
		c-0.1-0.9,0.2-1.7-0.2-2.5c-0.1-0.7-0.2-1.3-0.7-2c-0.4-0.8-0.1-1.7-0.7-2.4c-0.3-0.8-0.7-1.5-1.3-2.1c-0.3-0.9-0.8-1.8-1.4-2.4
		c-0.7-0.6-1.3-1-2-1.5c-1.1-0.7-2.3-1.1-3.1-2.2c-0.4-0.3-0.9-0.7-1.4-1c-0.9-0.3-1.5-0.8-1.8-1.8c0-16.8,0.1-33.6,0.1-50.4
		c0.7-1.4,2-2,3.5-2c1.3,0,2.6-0.1,4-0.1c38.2,0,76.3,0,114.5,0c7.4,0,7.4,0,7.4,7.4c0,21.5,0,43,0,64.5
		C210.7,123.1,210.9,124.3,210.5,125.5z"/>
	<path class="st1" d="M210.5,125.5c0-23.2,0-46.3,0-69.5c0-4.4,0-4.4-4.4-4.4c-39.8,0-79.6,0-119.5,0c-1.8,0-3.5-0.2-5.2,0.6
		c0-3.1,0-6.1,0-9.2c1.5-2,3.8-1.5,5.8-1.5c16.2-0.1,32.4,0,48.5,0c1.4,0,2.9-0.1,4.3,0c2.9,0.1,4.9-0.9,6.1-3.6
		c1.4-3.5,4.1-5.2,8.1-5c4.7,0.2,9.5-0.3,14.2,0.1c11.8,1,23.6-0.7,35.4,0c1.8,0.1,3.9-0.6,5,1.7c2.2,0.2,2.3,1.8,2.3,3.5
		c0,26.8,0.1,53.5,0,80.3C210.9,120.8,211.6,123.2,210.5,125.5z"/>
	<path class="st2" d="M208.6,34.5c-8.5,0-17,0.1-25.5-0.2c-2.6-0.1-4,3.3-5.4,2.5c-1.8-0.9-2.9-2.5-5.3-2.5
		c-6.2,0.1-12.4,0.2-18.5,0c-3.8-0.1-6,1.2-6.8,4.7c-0.8,3.1-2.5,4-5.7,4c-20.1-0.1-40.2,0-60.1,0c0-4-0.1-7.9-0.1-11.9
		c0-3.5,1.8-5.2,5.3-5.2c39.7,0,79.3,0,119-0.1c2.8,0,4.5,1.2,5.1,3.8C211.2,31.5,211.8,33.9,208.6,34.5z"/>
	<path class="st3" d="M9,131.5c1.3-2.2,3.3-3.9,5.1-5.7c3.5,1.4,5.1,4.5,6.5,7.7c-0.2,2.5-0.9,5-2.4,7.1c-1,1.4-1,2.9,0.4,4.1
		c0.7,1.9,3.3,3,2.1,5.5c-0.6,0.9-1.7,0.4-2.3,1.1c0.3,1.4,1.7,2.2,2.1,3.5c-0.1-1.2-3.8-6.5-2.8-7.6c2.8-0.8,6.9,5.4,7.8,7.3
		c1.8,3.6,4.2,6.6,7.1,9.4c3.2,3.1,4.6,3.2,8.6,1c0.4-0.2,1-0.3,1.7-0.3c0.6,0.1,1,0.3,1.4,0.7c1.3,2.6,3.8,3.1,6.4,3.2
		c4.2,0.1,8.4,0,12.5,0.1c1.5,0,3.1-0.2,4.3,1.1c0.4,0.9,0,1.3-0.8,1.5c-2.1-0.3-4.3,0-6.1-0.1c1.5,0,3.4,0,5.2,0
		c0.3,0.1,0.6,0.2,0.6,0.6c-0.4,1.9-2,1.8-3.3,1.9c-1.1,0-2.2,0-2.5,1.3c-1.5,1.5-3,0.9-4.4-0.4c1.2,1.2,2.4,1.3,3.9,1.3
		c3,0.1,6.2-0.9,9,0.7c0.2,2.4-1.7,2.2-3.1,2.3c-1.5,0.2-3.3-0.1-4.4,1.5c-2.6,1.9-4.1-0.6-6-1.5c0.3,0.2,0.8,0.3,1.1,0.7
		c0.8,0.8,1.9,1.5,1,2.8c-0.7,1-1.8,0.9-2.6,0.3c-1.2-0.8-2.8-0.6-4-1.3c-1-0.6-1.7,0-2.4,0.4c-3.1,0.6-6-0.8-8.3-2.3
		c-3.8-2.4-7.6-4.9-11.4-7.2c-5.4-3.4-9.9-7.9-13.2-13.6c-1.5-2.6-3.6-4.7-7.1-4.7c-1.5,0-2.5-1.1-4-1.4c-0.3-0.7-0.8-1.3-1.1-2
		c-3.2-6-3.1-6.9,2-12.9c0.9,0.1,1.1,1.8,2.4,1c0.7-0.4,4-5.1,3.8-5.6C11.1,131.6,9.6,132.4,9,131.5z"/>
	<path class="st4" d="M48.3,89c-2.8-4.3-3.8-9.4-4.9-14.2c-0.7-3.1-1.3-6.2-2.4-9.3c-2.4-6.9-0.9-10.5,5.7-13.3
		c4.7-2.1,9.5-3.4,14.7-1.8c0.6,0.4,1.3,0.8,1.5,1.5c1,5.4-1,10.6-1.7,15.8c0,0.9-0.2,1.8-0.4,2.5c-0.3,1.1-1.1,2.1-1.1,3.3
		c-0.4,1.5-1.4,2.6-2.4,3.9c-1.3,1.6-3,2.3-5.1,1.6c-1.9-0.1-2.4,1-2.4,2.6c0,1.3,0.8,2.4,0.8,3.8C50.3,87.1,51,89,48.3,89z"/>
	<path class="st5" d="M93.1,113.1c0.8,0.8,0.8,1.8,0.8,2.9c-0.3,2.3-2.2,3-3.9,4c-1.2,0.8-2.6,0.9-3.8,2c-1.1,1.2-2.6,1-4.1,0.9
		c-7.5-0.3-15,0-22.4,0.8c-7.1,0.8-14.1,1.3-19.5,2.9c7.3-1.3,16-3.1,25-3.1c5.8,0,11.7,0,17.4,0c1,0,2.1,0,2.5,1.1
		c0.6,1.1,0,1.9-1,2.4c-6,0.6-11.9,1.5-18,1.8c-6.6,0.3-13.2,1.3-19.9,2.2c-3.5,0.4-7.2,1-10.7,1.2c-1.2,0.4-2.4,0.9-3.6,1
		c-5.4-3.4-9.2-8.4-12.2-13.8c-0.3-0.7-0.1-1.3,0-2c0.3-0.8,0.7-1.5,1.4-2c2.4,0.8,3.8,2.8,5.2,4.6c1.2,1.7,2.6,3.2,4.9,3.4
		c1.4-0.4,2.6-1.3,4.2-1.5c7.3-1.7,14.8-2.3,22.3-3.2c2-0.2,3.9-0.7,5.8-0.7c2.9-0.1,5.8,0.2,8.7-0.4c0.3-0.1,0.7-0.1,1-0.2
		c2.4,0,4.7-0.1,7.1,0.6c3.5,1,5.8-1.7,8.5-3.2C90.4,114.1,91.4,112.6,93.1,113.1z"/>
	<path class="st3" d="M105,128.3c3.1-3.3,5.8-6.8,7.3-11c0.9-2.4,2.6-4,4.1-5.8c0.4-1,1.3-1.2,2.2-1.2c5.4-0.1,10.7-0.1,16.1,0
		c0.7,0,1.2,0.3,1.8,0.7c0.3,0.2,0.6,0.6,0.7,0.9c0.1,1.3-0.9,1.5-1.9,1.9c-2.8,0.9-5.3,2-8.2,2.5c-6.1,1.2-10,5.3-12.9,10.5
		c-3.3,6.2-6.4,12.5-10.1,18.4c-0.7,1-1.3,2.1-1.3,3.3c-0.1,3.5-1.9,6.2-3.8,8.9c-3.4-0.3-6-2.2-8.3-4.4c-1.1-3.5-1.9-6.9-1.9-10.7
		c0-1.7-1.3-3.5-3.4-4c-2.3,1.9-5,1-7.5,1c-2.1-2.1-0.1-2.3,1.2-2.8c1.1-0.3,2.8,0.7,2.9-1.5c-0.1-0.8-0.7-1.4-0.4-2.3
		c0.1-0.3,0.3-0.6,0.7-0.8c5,1.7,9.6-0.4,14.3-1.3c1.4,0.7,2.2,1.8,1.8,3.5c-1.2,1.1-2.6,1.9-3.1,3.5c0.6-0.9,1-2,2.2-2.5
		C99.7,132.3,101.6,129.4,105,128.3z"/>
	<path class="st6" d="M99.1,157.4c-0.1-0.8-0.4-1.7-0.2-2.2c2.8-5.2,3.2-11.4,6.8-16.2c3.6-5,5.6-10.9,9-16c2.6-4,6.1-6.7,10.6-7.9
		c3.8-1,7.7-1.8,11.6-2.5c0.8-0.7,1.5-0.9,2.3-0.2c0.7,0.7,0.1,1.1-0.3,1.7c-6.4,1.1-11.6,5.2-17.5,7.3c-3,1.1-4.9,4-5.8,7.2
		c-1.1,3-2.3,6-3.1,9c-2,7.1-7.3,12.2-10.4,18.8C101.5,157.2,100.5,158,99.1,157.4z"/>
	<path class="st7" d="M4.4,152.2c5.5-1.1,9.6,0.7,12.7,5.7c3.6,6.1,8.7,11,15.2,14.1c4.6,2.2,8.1,6.5,13.2,7.8
		c0.9,0.2,1.7,0.7,2.5,0.6c1.8-0.7,2.5,0.8,3.5,1.7c0.9,1,1.9,2.1,0.9,3.4c-1,1.4-2.3,0.6-3.5,0c-0.6-0.2-1-0.4-1.4-0.8
		c-1.3-0.8-3-0.9-4.1-2.1c-9.6-3.3-17-10.1-25.1-15.7C12.7,163.3,8.9,157.5,4.4,152.2z"/>
	<path class="st8" d="M48.3,89c1.8-1.1,1-2.9,1.1-4.4c2.1-1,3.2,0.2,3,2c-0.6,5,1.9,9,3.4,13.8c-0.3-4.2,1-5.4,4.6-4.4
		c2.5,0.7,5.1,1.3,7.7,0.9c0.3,0.1,0.6,0.3,0.7,0.7c-0.2,0.2-0.3,0.6-0.6,0.8c0,1.1,0.9,1.8,1.5,2.5c0.3,0.9,1.4,1.4,1.2,2.6
		c-0.4,0.9-1.4,1.3-1.8,2.3c-0.4,0.6-0.8,1.2-1.4,1.7c-1.7,0.3-3.1,1.1-4.6,1.8c-2.6,1-5.3,0.3-8.1,0.6c-2.4-0.3-4.7-0.8-6.5-2.5
		c-0.6-0.4-0.9-1.2-1.5-1.5c-1.7-0.6-3.2,0.3-4.9,0.6c-2.1,0.2-4.3,1.2-6.2-0.7c1.3-1.5,3.8-1.2,5.2-2.6c1.3-0.7,2.8-0.9,4.1-1.2
		c1.2-0.3,2.3-0.7,2.5-2.2C48.2,95.8,49.8,92.5,48.3,89z"/>
	<path class="st9" d="M51.5,78c2,0.4,3.8,0.1,5.3-1.3c1.9,0.3,2-2,3.4-2.3c0.3-0.1,0.7,0,0.9,0c0.8,0.8,2.1,0.6,2.6,1.7
		c0.6,1.5-1.5,2.2-1.3,3.8c0.1,1.1-0.4,2.3,0.8,3.2c1.1,1.1,2.6,0.1,3.8,0.8c1,0.6,0.4,2.8,2.4,2.3c1.8,0.1,1.8,1.9,2.8,2.8
		c-0.6,3.1-1.8,5.7-3.3,8.5l-0.2-0.1C64.3,96.8,60,96,56.1,94c-2.9-1.4-4.5-3.4-3.9-6.8c0.3-1.8-0.6-2.5-1.9-3.4
		c-1.4-0.9-1.7-2.5-1.3-4.1C49.3,78.6,49.8,77.3,51.5,78z"/>
	<path class="st10" d="M48.9,105.9c2.1,0.6,3.6,2.4,6,2.6c0.4,0.3,1.4,0.2,1.3,1.1c-0.1,0.9-1,1.1-1.8,1.1c-3,0.1-6,1-9,0.8
		c-2.6,0.4-5.3,0.4-7.8,1.2c-0.2,0.1-0.4,0.1-0.7,0.1s-0.1,0.1,0.2,0c2-0.9,4.1-0.6,6.1-1c4.9-0.7,9.7,0.1,14.6-0.9
		c1.5-0.3,3.2-0.4,4.7-0.7c0.8,0,1.5,0,2.4,0c4.6,0,9.4,0,14,0c2.2,0.2,4.4,0.3,6.4,1.4c0.3,0.6,0.3,1.2-0.1,1.8
		c-0.6,0.7-1.3,0.8-2.1,0.7c-6.5-0.2-13,0-19.4,0.8c-8.1,0.9-16.2,0.2-24.3,1.8c-2.3,0.4-4.7,0.2-7.2,0.7c-2.3,0.4-5.6-3.4-6-6.3
		c0.8-0.6,1.5-1.2,2.3-1.8c3.5,0.6,6.8-0.7,10-1.8C42.1,106.5,45.3,105.1,48.9,105.9z"/>
	<path class="st11" d="M84.6,149c0.8,1.3,0.7,2.9,0.8,4.3c-3.2,2.6-7.4,2.6-11.1,3.5c-11.5,2.8-23.2,2.5-34.7,2.1
		c-2.5-0.9-3.4-2.5-2.2-5.1c0.9-0.9,2-0.8,3.1-0.7c10.3,0.2,20.3-0.3,30.3-2.4c3.9-0.9,7.9-1.2,11.9-2
		C83.4,148.7,84.1,148.9,84.6,149z"/>
	<path class="st12" d="M62,51.6c-0.2-0.4-0.4-0.8-0.7-1.2c4.9,0,9.3,1.5,13.2,4.1c3.3,2.1,3.9,4.3,2.4,7.8
		c-1.7,3.9-3.3,7.6-5.1,11.4c-0.6,0.3-1.1,1-1.8,0.9c-3.6-1.2-7.7-1.4-10.8-4.3c0.2-0.7,0.4-1.3,0.6-2.1c0.9-1.2,2-1.4,3.4-1.1
		c1.2,0.3,2.5,0.7,3.3-1.4c-1.5-0.1-2.6,1.8-3.9,0.3c-1.2-1.3-0.6-2.9-0.4-4.4C63,58.3,64.8,54.8,62,51.6z"/>
	<path class="st13" d="M67.4,170c-6.2,0-12.5,0-18.6,0c-2.9,0-4.9-1.1-5-4.3c2.4-1.8,5.2-0.6,7.7-0.8c5.8-0.7,11.8-0.1,17.6-0.7
		c5.7-0.6,11.3-1.3,16.7-3.3c0.6-0.2,1.1,0.1,1.5,0.2c1.1,1.5,1.8,3.3,1.8,5.2c-1.3,1.8-3.2,2-5.2,2.3c-4.4,0.8-8.8,1-13.1,1.8
		C69.7,170.6,68.5,170.6,67.4,170z"/>
	<path class="st11" d="M84.5,144.4c0,1.2,0.1,2.4,0.1,3.8c-4.4,1.8-9.2,1.9-13.8,2.9c-10.4,2.1-20.8,2.5-31.4,2.3
		c-0.9,0-1.8,0-2.6-0.2c-2-1.3-2.6-2.8-0.8-4.7c2.2-1.2,4.7-0.8,7.2-0.8c8.6-0.2,17-1.8,25.5-2.2c4.7-0.2,9.5-1.1,14.3-1.4
		C83.5,143.6,84.1,143.9,84.5,144.4z"/>
	<path class="st11" d="M85.8,154.9c0.9,1.4,1,3.1,1,4.6c-2.1,2.5-5.2,2.9-8.1,3.3c-4.9,0.9-9.7,1.9-14.7,1.5
		c-5.1-0.2-10,0.9-15.1,0.6c-2.4,0.1-4.6-0.9-7.1-0.7c-2.2-0.7-3-2.1-2.2-4.4c0.7-1,1.7-0.9,2.6-0.9c13.7,0.6,27.2-0.6,40.5-4.4
		C83.9,154.4,84.9,154.4,85.8,154.9z"/>
	<path class="st14" d="M23.1,114.2c0.6-0.7,1.2-1.3,1.8-1.9c2.3,0.2,3.2,2.4,4.6,3.8c1.2,1,2.3,1.5,3.9,1.3
		c7.4-1.1,14.9-2.1,22.4-1.9c2.4,0.4,5.2-1.1,7.3,1.2c0.1,0.3,0.1,0.8,0,1.1c-2.9,2.3-6.5,1.4-9.7,1.9c-6.5,0.9-13,1.2-19.3,3.2
		c-0.9,0.2-1.3,1.1-2.3,1.2c-4.2-1.4-5.8-5.6-8.8-8.4C22.4,115.3,22.6,114.7,23.1,114.2z"/>
	<path class="st15" d="M60.8,180c-0.9-1.5-1.7-2.9,1.3-2.6c2.2,0.2,4.5,0.1,6.7-0.7c1.2-2,3.2-1.1,4.9-1.3
		c5.8-0.8,11.5-2.5,17.3-3.4c1.3,1,0.6,2.5,1,3.8c-1.4,2.6-4.3,3-6.7,3.5c-6.8,1.5-13.8,2.6-20.8,2.2
		C62.9,181.6,61.4,181.9,60.8,180z"/>
	<path class="st16" d="M55.3,116.4c-6.4-0.3-12.8,0.3-19,1.5c-4.3,0.9-6.9-0.4-9.4-3.4c-0.7-0.8-1.3-1.4-2-2.2
		c0.2-0.8,0.7-1.2,1.5-1.2c1.3,1.3,2.5,2.8,3.9,4.1c0.9,1,1.9,1.2,3.2,1.1c17.2-2.1,34.4-3,51.7-3.1c1,2.2,0.7,2.9-2.1,3
		c-4,0.1-7.8,0-11.8,0c-2.2,0-4.4,0-6.5,0.4C61.7,116.2,58.5,115.7,55.3,116.4z"/>
	<path class="st17" d="M92.5,177.7c0.2,1.3,0.4,2.8-0.4,4c-3,3.5-7.3,3.4-11.1,3.8c-3.9,0.4-7.8,0.3-11.8,0.4c-3.1,0-6.1,0-9.2,0
		c-1.7,0-2.8-0.6-2.6-2.4c0.1-0.7,0.4-1.1,1.1-1.5c4.4-0.8,8.8,0.1,13.2-0.6c6-0.7,11.9-1.4,17.6-3.6
		C90.3,177.5,91.4,176.9,92.5,177.7z"/>
	<path class="st14" d="M60,174.7c-0.2-1-1.5-1.2-1.5-2.5c2.5-0.7,5.2,0.3,7.6-0.7c1.7-1.3,3.8-1.1,5.6-1.3c6.1-0.8,12-1.5,18-2.6
		c0.3,1.3,0.7,2.5,1,3.9c-4,2.3-8.5,2.6-12.8,3.5c-4.9,0.9-9.8,1.4-14.9,1.2C61.9,176,60.6,176.3,60,174.7z"/>
	<path class="st18" d="M84.5,144.4c-0.4,0-0.8,0-1.2,0c-0.9-0.2-1.7-0.7-2-1.5c-0.3-1.2-1.2-1.4-2.3-1.3c-7.8,0.8-15.6,1.1-23.4,1.9
		c-6,0.6-11.9,0.9-17.8,1.4c-1.4,0.1-2.9-0.2-4.2-0.9c-0.8-0.9-0.9-1.8-0.2-2.8c1.3-1.2,3-1.5,4.6-1.7c11.7-0.8,23.3-1.9,34.9-2.8
		c1.5-0.1,3.1-0.3,4.2,1.2c1.8,0,3.5,0.1,5.2,0.1c1.4,0,2.3-0.6,2.4-2.1c2.2,1.8,2.8,6.1,1.1,8.7C85.4,144.7,85,144.5,84.5,144.4z"
		/>
	<path class="st19" d="M58.8,182.7c-0.2,0.2-0.4,0.4-0.7,0.7c-0.6,0.9-1.1,1.7-2.4,1.5c-1.8-0.4-3-2.2-5-2.1
		c-0.9-0.8-1.8-1.4-2.6-2.2c0.2-1.7,1.1-2.1,2.4-1c0.4,0.3,0.9,0.7,1.4,0.9c1.5,0.6,3.1,0.9,5.1,1.5c-1.4-2.3-3.4-3.1-5.4-4
		c-0.6-0.2-1.1-0.6-1-1.1c0.1-0.9,1-0.8,1.5-0.7c1.7,0.1,2.9,1.1,4.1,2.1c1.3,1.1,2.8,1.7,4.4,1.8c6.5,1.2,13,0.4,19.5-0.7
		c4-0.7,7.8-2,11.6-3.5c0.4,0.6,0.7,1.1,0.6,1.9c-6.6,2.3-13.2,4.4-20.3,4.3c-3.3,0.6-6.5,0.1-9.8,0.3
		C61.1,182.5,59.9,182,58.8,182.7z"/>
	<path class="st20" d="M36.9,152.5c7.9-0.7,15.9,0.2,23.7-1c7.3-1.1,14.6-2.3,21.7-3.4c0.8-0.1,1.5-0.4,2.2,0.1c0,0.3,0,0.7,0,1
		c-3.9,1.9-8.2,1.7-12.2,2.5c-11.5,2.5-23.2,2.4-34.9,2.9C36.3,154.2,36.3,153.5,36.9,152.5z"/>
	<path class="st19" d="M85.8,154.9c-11.8,3.6-23.8,5.5-36.2,5.4c-3.1,0-6.1-0.1-9.2-0.2c-1.2-0.2-2.1-0.6-1.2-2.1
		c8.4,0.1,16.7,0.7,24.9-0.4c6.1-0.9,12.1-2,18.1-3.5c1.1-0.2,2.1-0.8,3.2-0.6C85.5,153.9,85.7,154.3,85.8,154.9z"/>
	<path class="st21" d="M50.8,182.7c1.9-1.1,3.5-0.9,4.7,1.1c0.7,1.1,1.9,1.7,3,1.7c3.6,0.1,7.3,0.6,10.9-0.2
		c7.6-0.8,15.4-0.6,22.7-3.5c0.6,0.3,0.6,1,0.6,1.5c-0.4,1.4-1.5,1.9-3,2.1c-2.6,0.3-5.3,0.8-7.9,1.1c-11.9,0-23.8,0.1-35.8,0
		c-1.4,0-4.3,0.7-2.3-2.6c1.3-1.5,3.1,1,4.4-0.4c0.6,0.1,1,0.2,1.5,0.4c0.8,0.3,0.8,2.3,2,1.5C52.8,184.6,51.2,183.6,50.8,182.7z"/>
	<path class="st19" d="M49.1,164c10.3-0.6,20.6,0,30.8-2.4c2.3-0.6,4.6-1.3,6.9-2.1c0.2,0.6,0.3,1,0.6,1.5
		c-6.2,3.1-12.9,3.8-19.5,4.2c-8.1,0.4-16.1,0.9-24,0.3c-0.6,0-1.1-0.1-1.5-0.1c-0.2-0.3-0.1-0.8,0.1-1.1
		C44.6,163.3,46.9,163.8,49.1,164z"/>
	<path class="st13" d="M32.1,132.4c1-0.4,1.8-1.3,2.9-1.3c0.3,1,1.2,1.5,1.5,2.5c0.1,1.5-1.8,2-1.9,3.4c-0.4,0.6-1,0.8-1.8,0.9
		c-0.9,0.1-1.7,0-2.4-0.6c-5.5-3.2-9.9-7.6-13.7-12.8c-0.7-1-0.9-2-0.9-3.1c0.4-1.2,1.3-2.1,2.4-2.8c1.4-0.1,1.8,1.1,2.3,2
		c2.5,3.8,5.3,7.3,8.6,10.4C30.1,131.8,30.8,133,32.1,132.4z"/>
	<path class="st22" d="M60,174.7c2.5,1.3,5.2,0.7,7.7,0.4c7.2-0.7,14.4-1.5,21.4-3.9c0.4-0.1,1.1,0,1.5,0.1c0,0.2,0.1,0.6,0.1,0.8
		c-5.1,2.8-10.7,3.3-16.2,4.2c-1.9,0.3-3.9,0.3-5.8,0.4c-1.5,0-3.1-0.3-4.6,0c-5.1,1.1-9-1.7-14-3.3C54.3,171.4,56.8,175.1,60,174.7
		z"/>
	<path class="st7" d="M85.8,145c-1-2.9-0.7-5.8-1.1-8.7c-0.2-1.9,1-2,2.3-1.9c1.8,0.1,1,1.2,0.7,2.1c-0.2,0.7,0,1.4,0.6,1.8
		c3,1.9,2.9,4.5,2.3,7.4c-0.3,1.4,0.1,2.8,0.8,4.1c0.6,1.1,1,2.3-0.6,3.1C88.4,150.8,86.8,148,85.8,145z"/>
	<path class="st23" d="M9,131.5c0.7-0.4,1.3-0.8,1.9-1.2c0.9-0.7,1.8-0.9,2.6,0c0.9,0.9,0.7,1.8,0.1,2.6c-1.7,2.8-3.4,5.3-5.6,7.6
		c-0.8,0.7-1.3,2.1-2.6,1.4C4.1,141.2,4.7,140,5,139c0.1-0.6,0.2-1.1,0.3-1.7C6.3,135.3,7.4,133.2,9,131.5z"/>
	<path class="st24" d="M19.9,133.6c-1.9-2.6-3.9-5.2-5.7-7.8c-0.4-1.2-0.3-2.3,0.9-3c1.1,0.2,1.7,1.1,2.2,1.9
		c3.1,4.5,6.9,8.2,11.3,11.4c0.8,0.6,1.3,1.1,1.2,2.1c-0.8,2.1-2.2,2.2-4.1,1.3C23.4,137.9,20,137.3,19.9,133.6z"/>
	<path class="st3" d="M59.5,70.2c2.2-0.6,4,0.8,6,1.5c2.1,0.9,4.3,1.5,6.6,1.9c0.2,1.2,1.1,2.6-0.7,3.6c-0.2,0.7-0.6,1.2-1.2,1.5
		c-1.1,0.6-2.2,0.8-3.4,0.1c-1-0.6-1.8-1.3-2.1-2.5c-0.4-2.5-2.8-0.6-3.8-1.5c-0.1-0.1-0.2-0.2-0.3-0.2c-0.7-0.3-1.4-0.7-1.9-1.3
		C58.7,72.2,58.9,71.2,59.5,70.2z"/>
	<path class="st25" d="M89.8,167.6c-1.5,1.7-3.8,1.8-5.7,2.1c-6,0.9-11.9,1.3-17.9,2c-0.1-0.1-0.2-0.2-0.3-0.4V171
		c0.6-0.3,1-0.6,1.5-0.9c4.2-0.9,8.4-1.4,12.6-1.8c3.2-0.2,6.2-1.1,9.3-1.9C89.4,166.7,89.6,167.1,89.8,167.6z"/>
	<path class="st26" d="M48.9,105.9c-5.4,1.5-10.8,3.1-16.2,4.5c-1.3,0.3-2.9,0.1-3.9-1.1c0.3-0.9,1-1.2,1.9-1.1c2.3-0.4,4.2-2,6.6-2
		c4-0.2,7.6-1.5,11.4-2.4C50.3,104.3,49.6,105,48.9,105.9z"/>
	<path class="st27" d="M32.1,132.4c0,0.7,0.7,1.3,0,1.8c-0.7,0.4-1.2-0.2-1.7-0.7c-4.6-4.3-8.6-9.4-12-14.7c0.6-0.4,1-0.9,1.5-1.3
		C23.2,123.2,27.2,128.2,32.1,132.4z"/>
	<path class="st28" d="M29.4,137.8c-5.8-4-10.7-8.9-14.3-15c0.3-0.4,0.8-0.8,1.1-1.2c4,5.8,8.4,11.4,14.7,14.8
		C31.4,137.9,30.5,138,29.4,137.8z"/>
	<path class="st29" d="M69.4,77.6c0.7-0.1,1.3-0.2,2.1-0.2c1.7,0.7,2.2,1.8,1.5,3.4c-1.5,0.8-1.1,1.7-0.2,2.6c0.6,2-0.3,3.8-0.7,5.5
		c-3.4,2.3-1.5-1.9-2.8-2.3c-0.8-0.4-1.2-1.1-1.3-2C68.4,82.2,68,79.7,69.4,77.6z"/>
	<path class="st30" d="M23.1,114.2c2.3,3.6,5.5,6.5,8.6,9.4c1.2,1.5,1.2,1.5-0.1,2.1c-4.1-2.8-7.1-6.5-10-10.3
		C21.8,114.7,22.3,114.3,23.1,114.2z"/>
	<path class="st31" d="M81.8,186.5c3.6-1.1,7.3-2.2,10.9-3.2c1.3,2.3,0.8,3.4-2,3.4C87.7,186.5,84.7,186.5,81.8,186.5z"/>
	<path class="st32" d="M68.7,101.2c-0.4-1-1.9-1.8-0.4-3c3.9,2.8,8.3,3.9,12.9,4.4c1,0,1.9,0,2.6,0.8c-3.8,2-7.4,0.8-11-0.2
		C71.4,102.7,70,102.1,68.7,101.2z"/>
	<path class="st33" d="M48.6,103.8c-3.3,2.3-7.3,2.2-11,3.3c-0.8-1.1-2.5,0.1-3.2-1.2c0.4-0.4,1.1-0.7,1.8-0.7
		C40.4,106.1,44.3,103.4,48.6,103.8z"/>
	<path class="st34" d="M34.3,105.8c1,0,2.1-0.1,3.1,0c1.2,0.2,0.4,0.8,0.1,1.2c-2.3,0.3-4.4,1.9-6.9,1.1
		C31.6,107,32.9,106.2,34.3,105.8z"/>
	<path class="st35" d="M47.9,99.2c0.6,2.5-1.2,2.9-3.1,3.1c-1.2,0.1-2.4,0.1-3.5,0.2C43,100.5,46,100.8,47.9,99.2z"/>
	<path class="st36" d="M48,183.5c-1.2,2.4-3,0.2-4.4,0.4c0-0.3,0-0.8,0-1.1C45.3,182.2,46.5,183.6,48,183.5z"/>
	<path class="st37" d="M72.8,83.4c-0.2,0.4-0.7,1.1-1.2,0.9c-1.2-0.7-0.3-1.8-0.3-2.6c0-1.1,0.6-1.7,1.7-0.9
		C72.9,81.6,72.8,82.5,72.8,83.4z"/>
	<path class="st38" d="M107.1,73.2c0-0.2,0-0.4,0-0.7c-0.3-8.8,0.1-9.5,8.8-8.6c5.6,0.6,11.3,0.2,16.9,0.3c10.7,0.1,21.3,0.1,32,0
		c6.1,0,12.1,0,18.2-0.3c1.9-0.1,2.5,0.4,2.3,2.1c-1.2,11.7,0.8,23.5-0.6,35.3c-0.2,1.5,0.1,3.1,0.3,4.6c0.3,2.3-0.6,3.2-2.9,3.2
		c-4.9,0.1-9.7-0.6-14.6,0.4c-3.3-1.5-2.2-4.4-2-6.9c1.5-6.2,1.7-12.2,0.1-18.4c-0.7-1.9-0.7-3.9,0-5.7c0.3-1,0.9-2.1,0.1-3.1
		c-1.2-0.9-2.6-1-4.1-0.9c-6.1,0.2-12,0-18.1-0.2c-5.4-0.1-10.7,0.2-16.1,0.6c-0.8,0-1.5-0.1-2.3-0.2c-4.9-0.3-9.7-0.3-14.4,0
		c-0.8,0.1-1.5-0.1-2.4-0.3C107.8,74.1,107.2,73.8,107.1,73.2z"/>
	<path class="st39" d="M167.4,103.6c-1.2,2.1,0.4,4,0.2,6.1c-0.1,0.3-0.1,0.6-0.2,0.9c-4.2,0.8-8.3,0.2-12.5,0.3
		c-16.3,0.4-32.8-0.2-49.1,0c-1.2,0-2.4,0.2-3.6-0.2c-0.7-0.4-0.6-0.9-0.1-1.4c0.2-0.2,0.7-0.2,0.7-0.7c-0.2-6.3,0-12.6-0.3-19
		c-0.2-4.9,0.2-9.8,0.4-14.7c0-1,0.9-1.1,1.7-1.1c1.3,0,2.6,0.2,3.9-0.2c0.7,0,1.3-0.1,2-0.1c5.1,0.7,10.1,0.4,15.2,0.1
		c0.7,0,1.3-0.1,2-0.1c0.6,0.7,1.2,0.4,1.9,0.4c11.5-0.4,23.1,0,34.5,0c0.9,0,1.8-0.1,2.6-0.3c1-0.2,1.4,0.3,1.4,1.2
		c-0.3,3-1.7,5.7-0.7,8.8C167.9,90.3,167.8,96.9,167.4,103.6z"/>
	<path class="st40" d="M34.4,136.4c-0.6-1.1-0.6-1.1,1.8-2.9c0.2-1.2,1.1-1.3,2.2-1.4c8.3-1,16.5-2.4,24.8-3.1
		c4.7-0.4,9.6-0.7,14.3-0.9c2.4,0.3,5.2-0.9,7.4,1.1c3.1,1.3,5.7-0.3,8.4-1.5c1.1-0.4,2-1.9,3.3-0.7c0.1,0.9,0.2,1.8,0.3,2.6
		c0.4,0.8,0,1.1-0.6,1.4c-4.5,3.2-9.4,3.3-14.4,1.3c-0.8,0.9-1.8,0.9-2.8,0.9c-7.1,0-14,1.1-21,1.4c-3,0.1-5.7,1.8-8.7,1.2
		c-3.6,1.1-7.4,0.4-11,1.2C37.3,137.6,35.5,137.9,34.4,136.4z"/>
	<path class="st41" d="M64.8,111.2c-0.7,0-1.3,0-2,0c-0.3-0.4-0.4-1-0.3-1.5c0.2-0.3,0.4-0.6,0.8-0.8c1-0.4,2.1-0.8,3.2-1.2
		c2.4,0.1,4.7,0.8,7.2,0.4c0.7,0,1.3,0,2.1,0c2.9-0.4,5.7,0.7,8.6,0.7c1.1,0,2.2,0.2,2.6-1.2c0.1-0.4,0.3-0.9,0.8-1.1
		c0.3-0.2,0.6-0.2,0.9-0.1c0.4,1,1.2,1.4,2.2,1.7c0.8,2.1-0.3,3.4-1.8,4.7c-1.7,1.4-2.9,1.2-3.6-0.9c-2-0.2-4-0.6-6-0.8
		C74.5,110.7,69.6,110.7,64.8,111.2z"/>
	<path class="st42" d="M102.3,110.5c21.7,0,43.5,0,65.2-0.1c-2.4,1.2-5.1,0.4-7.6,0.7c-5.1,0.3-10.3-0.4-15.3,0.6
		c-2.4,1.1-4.9,0.2-7.4,0.1c-4.4-1.3-8.8-0.7-13.2-0.7c-2.5,0-5,0.2-7.5,0.3c-3.6-0.4-7.4-0.3-11-0.2
		C104.3,111.2,103.2,111.6,102.3,110.5z"/>
	<path class="st43" d="M85.3,112c2.2,1.2,4.2-0.2,5.4-3.9c0.4,1.1,0.9,2.2,1.3,3.3c0.2,0.6,0.1,1.2-0.3,1.5
		c-3.9,3.2-7.6,6.8-13.3,4.6c-0.4-0.1-0.9-0.1-1.3-0.1c-0.3,0-0.7-0.1-1.1-0.1c-3.5-1-7.2,0-10.7-0.8c-0.3-0.2-0.6-0.4-0.7-0.8
		c6.1-0.8,12.2-0.8,18.4-0.7c1.2,0,3,0.4,2.2-1.9C85.3,112.8,85.3,112.4,85.3,112z"/>
	<path class="st19" d="M76.8,116.6c6.2,1.7,11-0.7,15.1-5.2c1.1,0.1,1.2,0.8,1.1,1.7c-5.4,6-12.2,6.8-19.7,5.5
		c-0.4-0.4-0.4-1-0.2-1.5C74.3,116.2,75.6,116.5,76.8,116.6z"/>
	<path class="st44" d="M88.5,106.5c-0.2,0-0.4,0.1-0.6,0.1c-0.4,0.4-1,0.8-1.5,0.9c-4.5,0.1-8.9,0.3-13.5-0.6
		c-1.5-0.3-3.1-0.3-4.1-1.8c-1.3-2.5,0.6-2,1.9-2c1-1,2.1-0.2,3.1,0.1c3.8,1.1,7.6,1.3,11.5,0.8C86.1,105.1,87.3,105.8,88.5,106.5z"
		/>
	<path class="st45" d="M85.2,104c-0.3,1.7-1.7,1-2.6,1.1c-4.1,0.2-8.1-0.6-11.9-1.9c-0.6-0.8-2.5-0.2-1.9-2.1
		c5,0.9,9.8,3.1,15.1,2.2C84.3,103.6,84.7,103.8,85.2,104z"/>
	<path class="st42" d="M108.5,73.5c-5.3,1.5-5.3,1.5-5.3,7.3c0,8.2,0,16.2,0,24.4c0,1.4,0.3,2.9-1,4c0.4-6.2,0.1-12.5,0.1-18.6
		c-0.1-5.4,0.1-10.7,0.1-16.1c0-1,0.7-1.3,1.5-1.3c1.1,0,2.2,0,3.3,0C107.6,73.3,108,73.4,108.5,73.5z"/>
	<path class="st46" d="M95.9,121.8c0.6,1,0.7,2.1,0.7,3.2c-2.9,3.5-6.7,4.9-11.1,4.5c-0.3-0.2-0.6-0.6-0.7-0.9
		c-0.1-0.3-0.1-0.7,0-1.1c0.6-1.2,1.7-1.7,2.8-2.2c2.3-0.4,4.2-2,6.1-3.2C94.2,121.8,94.9,121.1,95.9,121.8z"/>
	<path class="st16" d="M85.3,129c4.1-0.3,7.8-1.7,11.3-4c0.6,0.6,0.6,1.3,0.3,2c-3.4,2.1-7.2,3.3-10.9,4.4c-0.7,0.2-1,0.1-1.4-0.3
		C84.1,130.2,84.3,129.4,85.3,129z"/>
	<path class="st47" d="M94.7,117.8c0.7,0.9,0.4,1.7,0,2.4c-0.7,3-3.2,3.8-5.6,4.5c-1.4-0.1-3.2,0.3-3.6-1.8c0-0.6,0.3-1,0.7-1.4
		c2.3-1.2,5-2,7.1-3.8C93.6,117.3,94.2,117.4,94.7,117.8z"/>
	<path class="st48" d="M89.3,123.8c1.9-1,4-1.8,5.3-3.5c1,0.1,1.3,0.7,1.2,1.5c-2.4,1.9-5,3.6-7.9,4.7c-1,0.2-2.1,0.7-2.2-0.8
		c-0.1-1,0.7-1.5,1.7-1.5C88.1,124,88.7,124.2,89.3,123.8z"/>
	<path class="st49" d="M94.7,117.8c-2.6,1.4-4.7,3.8-7.9,4.1c-1.2,0.1-1.2-0.4-0.9-1.3c3-1,5.6-2.5,7.9-4.6
		C94.7,116.3,95.1,116.8,94.7,117.8z"/>
	<path class="st50" d="M137.1,111.8c2.4-0.9,4.9-0.8,7.3-0.1c-1.3,2-3.8,1.4-5.5,2.3c0.3-1.9-1.1-1.3-2-1.4
		C137,112.2,137,112,137.1,111.8z"/>
	<path class="st51" d="M100.5,31.3c1.9,0.3,3.1,1.5,3,3.3c-0.1,1.9-1.4,3-3.3,2.9c-1.7-0.1-2.9-1.2-2.8-3.1
		C97.4,32.6,98.6,31.6,100.5,31.3z"/>
	<path class="st52" d="M88.6,31.3c1.8,0.4,3.2,1.3,3,3.3c-0.1,1.9-1.4,3.1-3.3,3c-1.8-0.1-2.9-1.3-2.8-3.1
		C85.5,32.7,86.7,31.6,88.6,31.3z"/>
	<path class="st53" d="M112.2,37.6c-1.7-0.4-3.1-1.3-2.9-3.3c0.2-1.9,1.4-3.1,3.3-2.9s2.9,1.5,2.8,3.4
		C115.2,36.8,113.9,37.4,112.2,37.6z"/>
	<path class="st54" d="M26.1,138.5c-2.4,2.6-5.6,4.3-8.4,6.6c-3.1,0-2.4-2-1.7-3.6c1.2-2.6,2.5-5.3,3.9-7.9
		C21.9,135.1,24,136.8,26.1,138.5z"/>
	<path class="st55" d="M20.9,150.8L20.9,150.8c0,1.8,1.2,3,1.9,4.5c0.4,1.1,1,2.5-0.1,3.3c-1.4,0.9-2-0.7-2.6-1.7
		c-1.2-1.8-2.4-3.6-3.6-5.4c-0.6-0.9-1.5-1.8-0.3-2.9c1.1-1,2-0.2,2.9,0.6C19.6,149.7,20.2,150.3,20.9,150.8z"/>
	<path class="st56" d="M43.9,175.3c0,0.8-0.3,1.3-0.9,1.1c-1.4-0.6-1.5-2-1.9-3.1c-0.2-0.6,0.2-1.2,0.9-1
		C43.3,172.9,43.3,174.4,43.9,175.3z"/>
	<path class="st57" d="M65.9,170.9v0.3c-3.5,0.4-7.2-0.1-10.8,0.3C58.7,170.6,62.2,170.9,65.9,170.9z"/>
	<path class="st58" d="M45.5,174.3c-0.9-0.2-1.1-0.9-1.1-1.7c0-0.4,0.2-0.9,0.8-0.9c0.8,0.1,1.3,0.7,1.4,1.5
		C46.6,174,46.2,174.3,45.5,174.3z"/>
	<path class="st59" d="M51.5,78c-2.6,1.8-2.9,4-0.2,5.5c1.3,0.8,2.4,1.3,2,3.2c-0.8,2.6,0.7,4.4,2.9,5.6c3.2,1.7,6.7,2.6,10.3,3.5
		c0.9,0.2,2.1,0,2.3,1.3c-3,1.2-6.1,1-9,0c-2.4-0.9-3.1,0.1-2.5,2.3c0.1,0.8,0.4,1.5,0.4,2.3c0,1,1.1,2.5-0.4,2.9
		c-1.3,0.3-1.4-1.4-1.9-2.3c-2-5-4.9-9.7-3.8-15.4c0.2-1.3-0.7-2-2-2.2c-0.9-1.5-1.3-3.2-0.9-5C48.9,78.2,49.6,76.8,51.5,78z"/>
	<path class="st60" d="M62,51.6c3.3,0.8,3.8,2.8,3,5.8c-0.7,2.5-1.4,5.2-1.3,8.1c0.4-0.1,0.7-0.1,0.8-0.3c0.9-1.2,0.4-4.1,1.9-3.6
		c1.3,0.3,2.2,2.9,2.8,4.6c0.6,2-1.3,3.4-3.4,2.9c-1.8-0.6-3.6-0.9-5.5-0.8C60,62.6,62,57.2,62,51.6z"/>
	<path class="st61" d="M59.7,53.1c0.7,5.4-0.6,10.6-1.9,16C56.5,67,57.7,56.4,59.7,53.1z"/>
	<path class="st62" d="M55,64.5c-0.4,1.5,0.6,4.1-1.2,4.1s-0.8-2.5-0.8-4c0-1.3-0.9-3.8,1.2-3.8C55.6,61,54.4,63.4,55,64.5z"/>
	<path class="st63" d="M58.7,73.3c1.3-0.7,2.2-0.4,1.9,1.3c-0.7,1.1-1.2,2.3-2.2,3.2c-1.4,1.3-1.7,0.2-1.7-1.1
		C57.7,75.8,58.2,74.5,58.7,73.3z"/>
	<path class="st64" d="M86,120.5c0.3,0.4,0.6,0.9,0.9,1.3c-0.2,0.2-0.6,0.4-0.8,0.7c-0.4,1.7-1.8,1.5-3.2,1.5
		c-6.1,0.1-12.1-0.4-18.1,0.3c-9.9,0.7-19.7,1.5-29.3,4.5c-0.8,0.2-1.7,0.7-2-0.2c-0.4-1.1,0.7-1.4,1.5-1.7c6.4-2.1,13-3.2,19.7-3.9
		c9.3-0.9,18.4-1.9,27.7-1.3C83.7,121.9,85,121.6,86,120.5z"/>
	<path class="st41" d="M85.3,127.8c-0.1,0.2-0.1,0.3-0.1,0.6c-2.3,1.2-4.9-0.2-7.3,0.7c-13.7,0.6-27.2,2.5-40.8,4.1
		c-0.3,0-0.6,0.2-0.9,0.4c-0.8-0.1-1.7,0.2-2.1-0.7c-0.6-1,0.3-1.3,0.9-1.9c9-0.1,17.9-2.2,26.8-2.9c7.4-0.4,14.7-1.2,22-1.8
		C84.4,126.8,85.6,126.4,85.3,127.8z"/>
	<path class="st30" d="M73.4,117.2c0,0.4,0,0.9,0,1.4l0,0c-3.1,0.9-6.3-0.3-9.4,0.7c-6.9,0.9-13.9,1.8-20.7,2.6
		c-2.6,0.3-5.4,0.9-8.1,1.3c-0.8,0-1.9,0.9-2.2-0.7c2.2-2.3,5.3-1.5,7.9-2.1c6.2-1.3,12.6-1.5,18.9-2.1c0.9-0.1,1.9-0.4,2.8-0.7
		c2.1-1.5,4.6-0.4,6.8-1.2C70.7,116.6,72.2,116.1,73.4,117.2z"/>
	<path class="st65" d="M85.3,127.8c-0.4-0.4-1-0.9-1.4-1.3c2.1-2,0.4-2-1-2c-4.4,0-8.8,0.1-13.2,0.1c-1.7,0-3.3-0.1-5-0.1
		c5.7-0.9,11.6-1,17.4-0.8c1.4,0.1,2.9,0.1,3.9-1.1c0.6,1.9,2.2,1,3.3,1.3c-0.6,0.2-1.2,0.6-1.8,0.7c-0.7,0.2-1.7,0.2-1.4,1.2
		s1.3,0.4,1.9,0.8C87.1,126.9,86.2,127.3,85.3,127.8z"/>
	<path class="st19" d="M64.1,119.1c3-1.4,6.2-0.6,9.4-0.7C70.3,119.3,67.2,119,64.1,119.1z"/>
	<path class="st19" d="M33,122.6c0.8,0.2,1.4,0.4,2.2,0.7c-0.9,0.7-2.2,0.8-2.2,2.4c0,0.8-0.9,0.8-1.4,0.2c0.8-0.7,0.3-1.4,0.1-2.1
		C32.1,123.2,32.6,122.9,33,122.6z"/>
	<path class="st66" d="M33.9,141.5c-0.3-1-0.6-2-0.9-2.9c3.3-2.2,7.2-1.4,10.7-2c3.8-0.6,7.5-0.7,11.3-1.2c2.5-0.3,5.2,0.1,7.7-0.7
		c0.3-0.1,0.8-0.1,1.1-0.1c2.8-0.1,5.5,0.1,8.2-0.7c1.1-0.1,2.2,0,3.4-0.1c2.5,0.4,5.3-1,7.8,0.4c1.5,2.2,0.8,3.1-1.7,3.2
		c-1.5,0.1-3,0.3-4.5,0.4C62.7,139.3,48.3,140.4,33.9,141.5z"/>
	<path class="st55" d="M96,144.4c0.8-3.3,2.9-6.2,5.4-8.8c0.6-0.6,1.3-0.9,2.1-0.2c0.6,0.6,0.6,1.2,0.2,1.8c-1.7,3-2.8,6.3-5.1,8.9
		c-0.6,0.6-1,1.3-1.9,1C95.8,146.7,95.8,145.7,96,144.4z"/>
	<path class="st66" d="M49.6,134.9c4.7-1.4,9.7-1.3,14.6-1.8c6-0.6,12-1.3,18-0.8c-0.1,0.2-0.1,0.4-0.2,0.6
		c-0.1,0.1-0.2,0.3-0.3,0.4c-2.4,1.2-5.2,0.1-7.6,0.8c-0.9,0.1-1.9,0-2.8,0.3c-2.5,0.3-5-0.2-7.5,0.4c-3.6,0.8-7.4,0.6-11,1
		C51.5,136,50.3,136.2,49.6,134.9z"/>
	<path class="st67" d="M97.5,134c0.1,0.3,0.2,0.8,0.3,1.1c-0.3,2.2-2,3.9-2.3,6.1c-0.1,1.1-1.3,1-2,0.1
		C92.1,139.1,94.8,134.3,97.5,134z"/>
	<path class="st68" d="M122,113.7c0.1,1.2-0.6,1.4-1.2,1.5c-2.1,0.3-4.1,0.9-5,3.1c-0.1,0.3-0.7,0.6-1,0.6c-0.6,0-0.6-0.6-0.6-1
		c0-2.4,5.2-5.7,7.3-4.5C121.7,113.5,122,113.6,122,113.7z"/>
	<path class="st69" d="M83.2,134.5c-2.6,0.9-5.3,0.7-7.9,0.6c-0.6-0.4-1.4-0.8-0.3-1.5c2.3-0.3,4.7,0.3,6.9-0.3l0,0
		C82.6,133.3,83.2,133.6,83.2,134.5z"/>
	<path class="st70" d="M68.9,105.1c5.8,1.1,11.8,2.1,17.8,1.4c-1,2.8-3.2,2.2-5.3,2.2c-1.8-0.4-3.4-0.2-5.2-0.2
		c-1.9,0-3.6-0.4-5.5-0.3c-1.1,0-2.2-0.2-2.5-1.5c-0.2-0.4-0.6-0.9-0.8-1.3C67.8,105.3,68.3,105.1,68.9,105.1z"/>
	<path class="st71" d="M68.1,106.6c2.6,0.4,5.3,0.9,7.9,1.4c0.4,0.4,0.4,0.8,0,1.2c-0.7,0-1.3,0-2,0c-2.6-0.4-5.3-0.6-7.9,0
		c-0.9,0-1.8,0.1-2.6,0.1c-0.3,0.1-0.7-0.1-0.7-0.4c0-0.6,0.3-0.8,0.8-0.9C64.9,107.2,66.2,106.2,68.1,106.6z"/>
	<path class="st72" d="M63.5,108c0,0.4,0,0.9-0.1,1.3c-0.2,0.2-0.4,0.3-0.7,0.6c-5.5,1.9-11.3,1.9-16.9,1.4c-0.4,0-0.8-0.4-1-0.8
		c2.9-1.2,5.8-0.4,8.7-0.8c0.6-0.1,2.3,0.8,1.2-1.2C57.7,108.6,60.6,108.6,63.5,108z"/>
	<path class="st73" d="M64,100.8c-0.2,0.9-0.7,1.8-1.7,2.1c-0.4,0.1-0.9-0.3-0.8-0.8c0.3-1,0.4-2.2,1.9-2.4
		C63.9,99.7,64,100.3,64,100.8z"/>
	<path class="st74" d="M69.4,77.6c0,2.4,0,4.9-0.1,7.2c-1.1,0.7-1.7-0.7-2.5-0.7c-1.5,1.1-3.1,2-4.5-0.1c0.4-1.2,0.1-2.5,0.2-3.8
		c0.2-2.3,1.2-3.3,3.6-2.2c0.3,0.6,0.2,0.9-0.3,1.2c-0.1,0.1-0.1,0.2-0.1,0.2c0.2-0.3,0.4,0.3,0.3-0.1c0.7-0.2,1-0.7,1.4-1.1
		C68.2,78.4,68.7,77.9,69.4,77.6z"/>
	<path class="st75" d="M66,78.9c-2-1.4-2.1,0.2-2.3,1.5c-0.3,1.2,0.6,3-1.3,3.6c-1.8-3-0.8-5.5,1.3-7.8c0.6-0.6,1.2-0.6,1.9,0
		c0.7,0.7,1.3,1.4,2,2.1c0,0.6,0.1,1.2-0.1,1.5c-0.3,0.4-0.7-0.2-1-0.3C65.9,79.3,65.9,79.1,66,78.9z"/>
	<path class="st69" d="M66.8,84.1c0.4-0.6,0.4-1.8,1.2-1.8c1.2,0.1,0.6,1.8,1.3,2.4c0,0.7,0,1.2,0.1,1.9c-0.4,0.8,0.6,2.8-1.4,2
		c-1.1-0.4-3-1-1.8-3.1C66.4,85.1,66.5,84.6,66.8,84.1z"/>
	<path class="st76" d="M65.3,76.1c-0.7,0-1.2,0-1.9,0c-0.9-0.3-2.9,1.5-2.6-1.2c1.4-1.1,3.1-1,4.6-0.9c0.8,0.1,2,0.1,1.9,1.2
		C67.4,76.6,66.1,75.8,65.3,76.1z"/>
	<path class="st77" d="M66.8,91c0.1,0.9-0.2,1.3-0.7,1.2c-1.8-0.6-2.9-2-3.8-3.4c-0.3-0.6,0.2-1.3,0.7-1C64.6,88.8,65.8,90,66.8,91z
		"/>
	<path class="st78" d="M57.3,82.9c2.1,1.3,1.5,3.3,1.8,5C57.5,86.6,56.9,85.1,57.3,82.9z"/>
	<path class="st79" d="M52.6,81.3c-0.1,0.8-0.4,1-1,0.8c-0.3-0.2-0.7-0.7-0.7-1c0-0.6,0.4-0.8,0.9-0.6
		C52.3,80.8,52.5,81.1,52.6,81.3z"/>
	<path class="st80" d="M44.8,110.4c6-0.2,11.9-0.4,17.9-0.7c0,0.4,0,0.9,0,1.3c-6.7,1.1-13.6,1.3-20.4,1.4c-1.8-0.6-3.8,0.7-5.4-0.8
		C39.5,111.3,42.2,110.9,44.8,110.4z"/>
	<path class="st81" d="M36.9,111.8c1.8,0.6,3.8-0.6,5.4,0.8c-3,1.2-6.3,0.6-9.3,1.5c-0.6,0.1-1.1,0-1.3-0.7c-0.1-0.7,0.4-1,1-1.1
		C34.1,112.2,35.4,112,36.9,111.8z"/>
	<path class="st80" d="M64.8,111.2c4.9-1,9.7-1.1,14.6,0C74.5,111.2,69.6,111.2,64.8,111.2z"/>
	<path class="st82" d="M76,59.9c-0.1,1,0.1,2.4-1.3,2.4c-1.2,0-0.7-1.3-0.7-2.1c0.1-1.7-0.9-2.6-2.1-3.4c-0.4-0.3-0.9-0.8-0.6-1.3
		c0.3-0.6,1-0.4,1.5-0.2C74.7,56.2,76,57.5,76,59.9z"/>
	<path class="st19" d="M36,148.6c-0.1-0.6-0.3-1.1-0.4-1.7c0.4-1.8,1.8-2.1,3.3-2.1c9.2-0.2,18.2-1.2,27.2-2.1
		c3.8-0.3,7.4-0.8,11.1-1.1c1.5-0.1,3.3-0.7,4.5,1.1c0.8,0.2,1.3,0.7,1.5,1.5c-6.9,1.2-13.9,1.7-20.8,2.3
		C53.6,147.5,44.8,149,36,148.6z"/>
	<path class="st3" d="M42.4,164.7c0-0.3-0.1-0.7-0.1-0.9c2.3-0.3,4.6-0.1,6.8,0.3C46.9,164.5,44.6,163.7,42.4,164.7z"/>
	<path class="st43" d="M73.4,117.2c-1.3-0.2-2.6-0.2-4,0.1c-2.2,0.4-4.4,0.3-6.5,0.1c-2.3-1.5-5.1-0.3-7.5-0.9
		c3.1-0.7,6.2-0.8,9.4-0.7c0.1,0.1,0.3,0.2,0.4,0.2c3.8,0.4,7.5-0.1,11.3,0.3c0.1,0.1,0.3,0.2,0.4,0.3
		C75.7,116.7,74.5,116.9,73.4,117.2z"/>
	<path class="st19" d="M62.8,117.3c2.2,0,4.4,0,6.5-0.1c-2.2,1.1-4.5,0.6-6.8,0.6C62.6,117.6,62.7,117.4,62.8,117.3z"/>
	<path class="st3" d="M69.4,185.2c-4.1,1.4-8.3,0.6-12.5,0.4c-0.9,0-2-0.4-1.4-1.9c1,0.1,1.9-0.1,2.6-0.6c-0.1,1.5,0.7,1.8,2,1.8
		C63.2,185.1,66.3,185.2,69.4,185.2z"/>
	<path class="st3" d="M58.8,182.7c4.4-1.5,8.9-0.6,13.3-0.7C67.8,183,63.2,182.1,58.8,182.7z"/>
	<path class="st13" d="M81.7,142.9c-10.4,1-20.7,1.9-31.1,3.1c-5.1,0.6-10.1,0-15.1,1.1c-1-0.9-1-2.1-1-3.3c7.3-0.7,14.6-1.4,21.8-2
		c8.3-0.7,16.7-1.3,24.9-2c1.1-0.1,2.5-0.7,2.8,1.2C84.4,143.1,82.5,142.3,81.7,142.9z"/>
	<path class="st16" d="M74.8,133.8c0.1,0.3,0.3,0.8,0.4,1.1c-1,0-2.1,0.1-3.1,0.1c-2.9,0.9-6-0.4-8.8,0.7h0.1
		c-2.6,0.9-5.4-0.3-8.1,0.7c-5.6,1.2-11.5,1-17.2,1.8c-1.7,0.2-3.4,0.3-5.2,0.4c-0.1-0.4-0.2-1-0.3-1.4c0.6-0.3,1.1-0.6,1.7-0.9
		c5.1-0.4,10.1-0.4,15.1-1.4c4.7,0.2,9.5-0.3,14.2-0.7c2.5-0.9,5.2,0.3,7.7-0.7c0.8,0,1.5,0,2.4,0C74.3,133.3,74.6,133.4,74.8,133.8
		z"/>
	<path class="st42" d="M168,74.7c-0.6-0.8-1.2-0.8-2-0.8C154.6,74,143.2,74,131.7,74c-1.4,0-2.9,0.2-4.1-0.8
		c11.8-0.3,23.6,0,35.4,0.1c1.1,0,2.2-0.2,3.3-0.3C167.6,72.9,168.6,73,168,74.7z"/>
	<path class="st42" d="M167.4,103.6c0-6.7,0-13.3,0-20.1c0.2,0.4,0.7,1,0.7,1.4C168,91.2,168.1,97.4,167.4,103.6z"/>
	<path class="st42" d="M125.7,73.5c-5.1,0.9-10.1,1.1-15.2-0.1C115.5,73.5,120.6,73.5,125.7,73.5z"/>
	<path class="st42" d="M119,91.4c0.1,3.5,0.6,6.9,0.2,10.5c-0.2,2.6,0.8,3.9,3.1,4c5.1,0.2,10.1,0.1,15.2,0c2.1-0.1,3.4-1.1,3.1-3.6
		c-0.4-3.4,1-6.9-1.1-10.3c-0.6-0.9,0.1-2.1,1-2.5c1.2-0.4,1.4,0.9,1.5,1.5c1,4.2,4.5,5.8,7.7,7.6c2.2,1.3,4.9,1,6.7-1
		c2.6-2.6,6.2-4.3,7.7-8.1c-0.7,5.6,0,11.1-0.4,16.7c-0.1,1.7-1.5,1.5-2.8,1.7c-10.9,0.8-21.8,0-32.6,0.4
		c-6.4,0.2-12.7-0.8-19.1-0.4c-2.8,0.2-3.9-0.9-3.6-3.6c0.1-2.3,0.2-4.6,0-6.9c-0.3-3.2,0.7-5.4,4-6C112.9,89.7,116,89.7,119,91.4z"
		/>
	<path class="st42" d="M115.7,79.3c-2.2-1-4.4-1.1-6.7-0.7c-1,0.1-2.3,0.8-3-0.6c-0.3-0.6-0.6-1.4-0.3-1.9c0.7-1.3,1.9-0.6,3-0.7
		c7.2,0,14.2-0.2,21.4-0.1c5.3,0,10.5,0.7,15.7,0.3c5.3-0.2,10.6-0.3,15.8-0.4c2.6-0.1,4,0.2,2.8,3.4c-0.7,2-0.1,4.3-0.1,6.5
		c-4-2.8-6.6-7.8-12.6-6.7c-5.2,1-9.4,3-10.4,9.2c-0.6-0.7-0.8-0.9-0.8-1c1.1-6.7,0.4-7.7-6.5-8.7c-3.1-0.4-6.2-0.4-9,1.1
		C121.9,81,118.8,81,115.7,79.3z"/>
	<path class="st83" d="M145,85.3c2.8-4.5,6.7-5.8,11.4-3.8c3.1,1.4,4,4.2,4.1,7.2c0,2.9-3.2,6.2-5.7,6.9c-4,1.3-6.7-0.1-9-3.1
		C144.2,90.4,144.1,87.8,145,85.3z"/>
	<path class="st84" d="M119,91.4c-3.1,0-6.2,0-9.3,0c-0.9,0-1.7-0.3-2-1.3c0.9-1.2,2.1-1,3.3-1c7.7,0,15.4,0,23.1,0
		c1.2,0,2.4,0,3.4,1c0,1.1,0,2.2,0,3.3c-0.4,0.7-1.2,0.9-2,1c-3.8,0.1-7.5,0.1-11.3,0c-0.8,0-1.5-0.2-2-1
		C121.7,91.8,120.6,91.1,119,91.4z"/>
	<path class="st85" d="M137.6,80.7c1.4,4.6,0.9,5.4-3.6,5.4c-7.6,0-15.2,0-22.8,0c-5.2,0-5.6-0.7-3.3-5.4
		C117.7,79.8,127.7,79.6,137.6,80.7z"/>
	<path class="st86" d="M137.6,80.7c-9.9,0-19.7,0-29.7-0.1c2.3-2.4,5.3-0.7,7.8-1.2c3.1,0,6.2,0,9.3,0c3.2,0,6.3,0,9.5,0
		C135.7,79.4,136.9,79.2,137.6,80.7z"/>
	<path class="st87" d="M137.5,88.3c0,0.2,0,0.6,0,0.8c-0.7,1-1.7,0.6-2.4,0.6c-8.3,0-16.5,0.1-24.8,0c-1,0-3.1,1-2.5-1.7
		c5.6-0.7,11.4-0.1,17-0.3c3.6-0.1,7.3,0,10.8,0C136.3,87.7,137.1,87.3,137.5,88.3z"/>
	<path class="st88" d="M122.4,104c-1-1.3-0.1-1.9,1-1.9c4.2-0.1,8.5,0,12.7,0c0.9,0,1.2,0.8,1.5,1.4c-1,1.2-2.4,0.6-3.6,0.6
		C130.1,104.1,126.2,104.5,122.4,104z"/>
	<path class="st42" d="M122.4,93.2c5.1,0,10.1,0,15.2,0c0.6,0.7,0.7,1.3,0,2c-3.3-1.4-6.8-0.2-10.3-0.8c3.4,0.6,6.9-0.7,10.3,0.8
		c-4.6,1.4-9.5,0.6-14.2,0.6C121.7,95.9,121.5,94.6,122.4,93.2z"/>
	<path class="st42" d="M107.8,87.9c0,0.9,0.4,1.4,1.4,1.4c9.5-0.1,18.9,0.4,28.3-0.3c0,0.3,0,0.6,0.1,0.9c-9.9,0-19.9,0-29.8,0
		c-0.8-0.9-0.8-1.8,0-2.6C108.2,87.5,108.2,87.7,107.8,87.9z"/>
	<path class="st85" d="M107.8,87.9c0-0.2,0-0.4,0-0.7c8.7,0,17.4,0,26.1,0c1.3,0,2.6-0.3,3.6,1c-3-0.9-6.1-0.4-9.2-0.4
		C121.5,87.8,114.6,87.9,107.8,87.9z"/>
	<path class="st42" d="M122.4,100.6c-0.4-0.9-0.9-1.8,0-2.6c0.1,0.1,0.3,0.1,0.4,0.2c4.7,1.3,9.5,1.3,14.2,0
		c0.1-0.1,0.3-0.1,0.4-0.2c0.9,0.9,0.4,1.8,0,2.6C132.5,101.1,127.4,101.1,122.4,100.6z"/>
	<path class="st89" d="M122.4,100.6c5.1,0,10.1,0,15.2,0C132.5,101.6,127.4,101.6,122.4,100.6z"/>
	<path class="st42" d="M122.4,104c5.1-0.2,10.1,0.3,15.1-0.4c-1.4,1.5-3.3,1-5,0.9C129.2,104.4,125.7,105.1,122.4,104z"/>
	<path class="st42" d="M122.4,98c5.1-1.1,10.1-1.1,15.1,0l-0.1,0.1c-2.9,1.7-6,0.7-8.9,0.8C126.5,99,124.3,99.6,122.4,98L122.4,98z"
		/>
	<path class="st42" d="M145,85.3c-0.4,2.5-0.1,5,0.7,7.3C143.6,90.4,143.8,87.9,145,85.3z"/>
	<path class="st65" d="M77.9,129c2.3-1,4.9-0.2,7.3-0.7c0,0.2,0,0.4,0.1,0.7c-0.2,0.7-0.6,1.4-0.8,2.1
		C83.1,127.8,80.1,129.7,77.9,129z"/>
	<path class="st72" d="M76,109.2c0-0.4,0-0.8,0-1.2c1.8,0,3.5,0,5.3-0.1c2.2-0.6,4.4-0.6,6.6,0c1.2,1.9,0.1,2.9-1.5,2.4
		C83,109.6,79.4,109.7,76,109.2z"/>
	<path class="st72" d="M66.1,109.2c2.6-1,5.3-0.9,7.9,0C71.4,109.1,68.7,109.2,66.1,109.2z"/>
	<path class="st90" d="M87.9,107.8c-2.2,0.4-4.4,0.4-6.6,0c1.5-1.2,3.8-0.1,5.3-1.3c0.4,0,0.9,0,1.3,0
		C87.9,107,87.9,107.5,87.9,107.8z"/>
	<path class="st14" d="M76.4,116.3c-3.8-0.1-7.5,0.7-11.3-0.3C68.9,116.1,72.6,115.2,76.4,116.3z"/>
	<path class="st91" d="M63.5,135.8c2.9-1.4,5.8-0.4,8.8-0.7C69.4,136,66.4,135.8,63.5,135.8z"/>
	<path class="st91" d="M55.4,136.4c2.5-1.3,5.3-0.6,8.1-0.7C60.8,136.4,58.2,136.6,55.4,136.4z"/>
	<path class="st91" d="M74.8,133.8c-0.3-0.1-0.8-0.2-1.1-0.2c2.6-1,5.5-0.3,8.2-0.6C79.8,134.6,77.2,133.4,74.8,133.8z"/>
	<path class="st91" d="M71.4,133.6c-2.4,1.3-5.1,0.4-7.7,0.7C66.2,133.6,68.7,133.7,71.4,133.6z"/>
	<path class="st92" d="M66,78.9c0.1,0.2,0.1,0.3,0.2,0.6c0,0.3,0,0.7-0.1,1c-0.2,1.1,0.1,2.5-1.3,3.1c-0.4,0.2-0.9-0.4-0.8-0.8
		C64.7,81.3,63.1,79,66,78.9z"/>
	<path class="st93" d="M122.7,85.5c-4.2,0-8.4,0-12.6,0c-1.4,0-2.6-0.1-2.5-2.1c0.1-1.9,1.1-2.1,2.6-2.1c8.3,0,16.5,0,24.8,0
		c1.5,0,2.5,0.2,2.5,2.1c0,2-1.2,2-2.6,2C130.8,85.5,126.8,85.5,122.7,85.5L122.7,85.5z"/>
	<path class="st94" d="M137.6,95.2c-4.5,0.6-8.9,0-13.5,0.2c-0.7,0-1.4,0-1.3-0.9c0-0.2,0.6-0.7,0.9-0.7c4.3,0,8.5,0,12.8,0
		C137.2,93.9,137.5,94.6,137.6,95.2L137.6,95.2z"/>
	<path class="st95" d="M122.5,98.1c5,0,9.9,0,14.9,0c0.1,1.1-0.4,1.5-1.5,1.5c-4,0-7.8,0-11.8,0C123,99.6,122.4,99.2,122.5,98.1z"/>
</g>
</svg>
