<?xml version="1.0" encoding="utf-8"?>
<!-- Generator: Adobe Illustrator 23.0.5, SVG Export Plug-In . SVG Version: 6.00 Build 0)  -->
<svg version="1.1" id="Layer_1" xmlns="http://www.w3.org/2000/svg" xmlns:xlink="http://www.w3.org/1999/xlink" x="0px" y="0px"
	 viewBox="0 0 212.6 212.6" style="enable-background:new 0 0 212.6 212.6;" xml:space="preserve">
<style type="text/css">
	.st0{fill:#FBD1D5;}
	.st1{fill:#1B3C60;}
	.st2{fill:#EF5A5C;}
	.st3{fill:#BA2028;}
	.st4{fill:#F18592;}
	.st5{fill:#0B1B30;}
	.st6{fill:#0B1B2F;}
	.st7{fill:#B12024;}
	.st8{fill:#356F92;}
	.st9{fill:#E22529;}
	.st10{fill:#F15A5C;}
	.st11{fill:#7F1922;}
	.st12{fill:#B62328;}
	.st13{fill:#EA5255;}
	.st14{fill:#EE8E90;}
	.st15{fill:#326E92;}
	.st16{fill:#B22228;}
	.st17{fill:#E2292B;}
	.st18{fill:#9B1C24;}
	.st19{fill:#336F94;}
	.st20{fill:#BA2429;}
	.st21{fill:#EB595B;}
	.st22{fill:#7E1E25;}
	.st23{fill:#F6C6C7;}
	.st24{fill:#7F262A;}
	.st25{fill:#F4EDEC;}
	.st26{fill:#E96F72;}
	.st27{fill:#E77B7D;}
	.st28{fill:#E6615F;}
	.st29{fill:#E7868E;}
	.st30{fill:#E4575B;}
	.st31{fill:#EDDFDB;}
	.st32{fill:#FCEDED;}
	.st33{fill:#EA787C;}
	.st34{fill:#F9E8E8;}
	.st35{fill:#F4B1B6;}
	.st36{fill:#F6E5E3;}
	.st37{fill:#FBDEDE;}
	.st38{fill:#EA7779;}
	.st39{fill:#D98282;}
	.st40{fill:#3E6266;}
	.st41{fill:#E97375;}
	.st42{fill:#E1282A;}
	.st43{fill:#F18694;}
	.st44{fill:#FFFFFF;}
	.st45{fill:#0B1A2D;}
	.st46{fill:#8A1821;}
	.st47{fill:#1A5478;}
	.st48{fill:#1A5579;}
	.st49{fill:#F18693;}
	.st50{fill:#E12528;}
	.st51{fill:#0B192E;}
	.st52{fill:#E12A2C;}
	.st53{fill:#EB8386;}
	.st54{fill:#131E32;}
	.st55{fill:#EC8184;}
	.st56{fill:#F8DADB;}
	.st57{fill:#F0898C;}
	.st58{fill:#94222A;}
	.st59{fill:#8B1D27;}
	.st60{fill:#F8B2BB;}
	.st61{fill:#95CCEB;}
	.st62{fill:#336E93;}
	.st63{fill:#831620;}
	.st64{fill:#861622;}
	.st65{fill:#9C1C24;}
	.st66{fill:#99C7E5;}
	.st67{fill:#FCEEEE;}
	.st68{fill:#E69DA0;}
	.st69{fill:#E27D81;}
	.st70{fill:#EF5B5E;}
	.st71{fill:#F05C5E;}
	.st72{fill:#346E92;}
	.st73{fill:#FDFDFE;}
	.st74{fill:#F9BBBB;}
	.st75{fill:#19557A;}
	.st76{fill:#ED5B5E;}
	.st77{fill:#1A3B60;}
	.st78{fill:#FAE9E9;}
	.st79{fill:#EA484C;}
	.st80{fill:#336F92;}
	.st81{fill:#F09699;}
	.st82{fill:#E8797C;}
	.st83{fill:#295579;}
	.st84{fill:#DD282A;}
	.st85{fill:#EA838C;}
	.st86{fill:#E32E30;}
	.st87{fill:#F0999B;}
	.st88{fill:#8EC4E5;}
	.st89{fill:#FBE4E5;}
	.st90{fill:#F5CACA;}
	.st91{fill:#F08588;}
	.st92{fill:#E1757A;}
	.st93{fill:#FEEDEC;}
	.st94{fill:#F7C6C7;}
	.st95{fill:#FAE6E6;}
	.st96{fill:#F0C2C0;}
	.st97{fill:#F5CFD4;}
	.st98{fill:#EF595B;}
	.st99{fill:#F28895;}
	.st100{fill:#0E172D;}
	.st101{fill:#5C5C76;}
	.st102{fill:#F16368;}
	.st103{fill:#175278;}
	.st104{fill:#14355B;}
	.st105{fill:#B34853;}
	.st106{fill:#E6707C;}
	.st107{fill:#C93B44;}
	.st108{fill:#1A3C60;}
	.st109{fill:#19577C;}
	.st110{fill:#EF898B;}
	.st111{fill:#EE5759;}
	.st112{fill:#FAE6E7;}
	.st113{fill:#96CCED;}
	.st114{fill:#96CDEF;}
	.st115{fill:#B22024;}
	.st116{fill:#FCEDEE;}
	.st117{fill:#D43439;}
	.st118{fill:#F18C8E;}
	.st119{fill:#F2828E;}
	.st120{fill:#EF898C;}
	.st121{fill:#FAE8E8;}
	.st122{fill:#ED8184;}
	.st123{fill:#F09FA2;}
	.st124{fill:#EE8D90;}
	.st125{fill:#FCF0F0;}
	.st126{fill:#FBF2F2;}
	.st127{fill:#EF8B8E;}
	.st128{fill:#F9E7E8;}
	.st129{fill:#F08F92;}
	.st130{fill:#ED7D80;}
	.st131{fill:#EF8694;}
	.st132{fill:#97CDEF;}
	.st133{fill:#07182E;}
	.st134{fill:#751116;}
	.st135{fill:#E02428;}
</style>
<g>
	<path class="st0" d="M25.8,169.5c-5.6,0-11.2,0.1-16.7,0.1c-1.7,0-2.3-0.8-2.3-2.4c0-11.3,0-22.5,0-33.8c0-2,1.1-2.3,2.6-2.5
		c0.7-0.8,1.6-1.2,2.7-1.3c5.9,0.6,11.7,0.6,17.6,0.1c4.2-0.3,8.4-0.2,12.6,0.3c2.1,0.2,4.2,0.2,6.3-0.2c4,0.1,4.6,0.7,5.6,5.5
		c0.2,10.1,0.1,20.1,0.1,30.2c0,1.5,0,3-1.5,4c-8.3,0.1-16.5,0.3-24.8,0.4C27.2,169.8,26.5,169.6,25.8,169.5c0.4-0.3,0.7-0.8,1.1-1
		c2.9-1.3,3.6-2.8,2.9-5.6c-0.2-0.7-0.4-1.4-1.2-1.5c-1.1-0.1-1.3,0.7-1.4,1.5c-0.1,1.1-0.1,2.2-0.1,3.3
		C27.1,167.5,26.8,168.6,25.8,169.5z"/>
	<path class="st1" d="M12.2,130.8c-0.9,0-1.9,0.1-2.8,0.1c-1-7.8,1-14.7,6.7-20.1c2.3-2.2,4.2-4.4,5.2-7.4c0.2-1.9,1.2-2.7,3.2-2.7
		c3.8-0.1,5.4-1.5,5.3-5.2c-0.1-6.4,1.2-12.5,3-18.6c0.9-3,0.7-3.3-2.5-3.7c-1.2-0.1-2.5-0.2-1.9-2C34.3,61,42.8,54.4,54.7,52.3
		c3.9-0.7,7.6-1.9,11.6-2.3c8.2-0.8,16.3-0.7,24.5-0.2c3.9,0.2,7.8,0.2,11.6,0.2c7.4-0.1,14.7,1.1,22.1,1.4c1.4,0.1,2.7,0.6,4.1,0.9
		c1.6,1.8,0.9,3.8,0.6,5.8c-1,1.3-2.3,0.9-3.5,0.5c-7.9-2-15.9-1.6-24-1.8c-6.2-0.1-12.4-0.4-18.5,0c-7.9,0.4-15.9-0.3-23.8,1.1
		c-7.5,1.3-12.4,5.5-15.3,12.6c-3,7.5-3.3,15.3-3.6,23.1c-0.1,3.4,2.2,6,4.8,8.2c0.8,2.6,0.9,5.1-0.2,7.7c-0.9,1.2-2.2,1.3-3.5,1.3
		c-2.9,0.1-5.7,0-8.6,0c-4.7,0-4.7,0-5.5,4.4c-0.1,0.3-0.3,0.5-0.5,0.8c-2.5,0.5-4.8,3.1-5.1,5.7c-0.1,0.8-0.1,1.7,0.7,2.1
		c0.9,0.6,1.7-0.1,2.4-0.6c1-0.7,1-2.5,2.7-2.5c0.3,0.1,0.6,0.4,0.8,0.6c0.3,0.4,0.4,0.9,0.5,1.4c0.7,6.2,0.1,7.1-6,7.6
		C19.3,130.6,15.8,130.7,12.2,130.8z"/>
	<path class="st1" d="M137.5,145.8c-1.1-1-2.6-0.8-3.9-1c-2-0.6-3.9-1.2-6-1c-0.8,0.1-1.5-0.2-2.1-0.9c-1.4-2.4-0.3-5.1-0.6-7.6
		c-0.5-4.6-0.4-9.4,0.1-14c0.1-0.7,0-1.4,0.2-2c1.1-3.6,0.6-4.3-3-4.5c-1.7-0.1-3.4,0.2-4.8-1.2c-1.1-2.4-3-3-5.6-3
		c-5,0.1-9.9,0.1-14.9,0c-1.4,0-2.8,0.2-4-0.9c-0.5-0.5-0.6-1.2-0.5-1.8c1.9-3,4.7-0.9,6.7-1.3c-2-0.9-4.8,0.7-6.9-1.3
		c-0.7-1.6-0.8-3.2,0.3-4.6c0.9-0.8,2-0.9,3-0.3c0.6,1.8,1.9,2.3,3.8,2.3c9.2-0.1,18.3-0.4,27.5-1c3.4-0.2,6.7-0.1,10-1.4
		c4.2-1.7,5.2-3.5,4.5-8c-0.6-3.5-1.3-7-1.7-10.6c-0.3-3.3-2.1-6.3-2.5-9.5c-0.1-1.1-0.6-2.1,0.1-3.2c1.6-1.1,2.8-0.3,4.1,0.6
		c2.4,6.9,5.3,13.6,9.4,19.6c2.4,3.5,6,5.4,9.2,7.9c0.4,0.5,0.4,1.2,0.4,1.8c0,0.5,0,0.9,0,1.4c0,0.4,0,0.9-0.1,1.3
		c-0.6,1.3,0.2,2.6-0.1,3.8c-0.4,0.9-0.4,2.2-1.8,2.2c-0.3-0.2-0.7-0.4-0.9-0.7c-4-4.4-10-4.4-13.9,0.1c-0.8,0.9-1.7,2-0.9,3.2
		c0.9,1.4,2.2,0.5,3.2-0.1c3.3-2,7-2.2,10.6-2.8c0.7-0.1,1.4-0.1,2,0.5c1.1,1.4,0.4,2.8,0,4.2c-0.3,1-1,1.9-0.9,3
		c-0.2,1-0.6,1.9-1.3,2.6c-1.8,1.2-4.1,1.4-6.1,2.3c-8.8,3.9-12.3,11-12.8,20.1c-0.1,1,0.1,2,0.4,2.9
		C138.4,143.9,138.6,145,137.5,145.8z"/>
	<path class="st2" d="M126.1,142.8c1.8,0.1,3.6,0.2,5.4,0.2c1.3,0,2.1,0.4,2.1,1.9c0,7.4-0.1,14.7-0.1,22.1c0,0.9,0.4,1.8-0.4,2.5
		c-9.9,0.4-19.7,0.3-29.6,0.1c-0.3,0-0.6,0-0.9,0c-1.4,0.3-2.8,0.1-4.2,0.1c-2.9,0-3.5-0.5-3.5-3.5c-0.1-6.7-0.2-13.4,0-20
		c0.1-3,1.1-4,4-4c2,0,4-0.3,5.9-0.6c1.4,0,2.7,0.4,4.1,0.3c5.1-0.7,10.3,0.8,15.4,0C125,141.8,125.5,142.4,126.1,142.8z"/>
	<path class="st2" d="M52.6,169.4c0.1-11.4,0.1-22.8,0.2-34.2c-0.6-4.3,0.1-5.2,4.2-4.7c2,0.2,3.7-0.6,5.6-0.4
		c1.6-0.2,3,0.2,4.5,0.7c1.4,0.7,1.6,1.9,1.6,3.2c-0.1,1.1-0.2,2.3,0.3,3.7c0.6-1.2,0.2-2.2,0.2-3.1c0.2-2.9,1.3-4.1,4.2-3.9
		c1.6,0.1,2.8-0.7,4.2-1.2c2.3-0.3,3.7,0.8,4.2,2.9c0.8,3.7,1.4,7.4-0.7,11c-0.7,0.6-1.6,0.8-2.5,0.8c-2.6,0-3.4,1.5-3.4,3.8
		c0,5.9,0.1,11.8,0,17.7c0,1.4,0.2,2.9-1.3,3.7C66.8,169.5,59.7,169.5,52.6,169.4z"/>
	<path class="st3" d="M158.5,107.7c0.4-0.9,0.8-1.7,1.2-2.6c0.6-0.3,1.2-0.3,1.9-0.1c3.1,0.6,6.3,1.2,9.5,1.2c0.8,0,1.6-0.1,2.2,0.4
		c0.4,0.4,0.6,1.1,0,1.2c-2.3,0.3-4.4,2.7-7,1.1c-0.2-0.1-0.6,0-0.7-0.1c1-0.1,2,0.4,2.9,0.8s1.5,1.2,0.3,2
		c-0.9,0.6,0.3,0.2,0.2,0.4c0.5,0.3,0.7,0.7,0.6,1.2s-0.5,0.8-1.1,0.9c-1.3,0.1-2.6,0-3.5,0.1c0.5,0,1.3,0,2.1,0
		c1.4,0,3,0.2,2.9-1.9c0-0.8,2.1-1.1,0.3-2.4c-0.5-0.4,0.5-1.6,1.5-1.7c1.4-0.1,2.6-1,4-1c0.8,0,0.6-0.5,0.3-1
		c-0.1-2.1,1.8-1.7,2.8-2.3c1.2-0.2,2.3-0.9,3.6-1c0.3,0,0.6,0.2,0.9,0.4c0.2,0.2,0.4,0.5,0.5,0.8c0.7,1.9,1.1,3.8-0.4,5.5
		c-2.8,0.9-3.1,3.1-2.7,5.5c0.8,4.5,0.7,8.9-0.8,13.2c-0.6,1.7,0,3.6,0.2,5.3c0.5,3.8,0.7,7.5,0,11.3c-0.2,1,0,1.8,0.8,2.4
		c0,2.9-1.2,5.5-1.7,8.3c-0.2,0.9-1,1.1-1.8,1.3c-1.5,0.9-2.9,1.6-4.3-0.2c-0.5-1.1-0.8-2.2-0.5-3.5c1.4-6.7,1.9-13.5,1.1-20.4
		c-0.4-3.1-0.3-6.1-1-9.2c-0.2-1.1-0.2-2.2-1.5-2.7c-0.3-0.1-0.5-0.3-0.8-0.4c-1.5-1.7-2.7-0.5-3.3,0.6c-1.4,2.5-3.7,4.6-4.6,7.3
		c-1.2,3.7-1.7,7.8-0.3,11.6c0.7,2.1,1.2,4.1,1.2,6.4s1.5,4.6,0,7c-0.6,0.9,1.2,1.7,1.2,2.9c0,0.3-0.1,0.6-0.3,0.9
		c-1.4,1.6-3.2,1.4-5,1.3c-1.7-0.6-2.1-1.9-2.4-3.5c-0.2-1.5-0.9-2.8-1.2-4.3c-0.1-0.8,0-1.5,0.2-2.3c0.5-0.9,0.8-1.8,0.6-2.9
		c-1.8-8.4-1.1-16.6,1.5-24.7c0.8-2.4,1.2-4.7-1.6-6.2C157.3,112.4,157.9,110,158.5,107.7L158.5,107.7z"/>
	<path class="st4" d="M73.9,169.5c0-7.7,0.1-15.3-0.1-23c-0.1-3,1-3.9,3.8-3.6c1.2,0.1,2.4,0,3.6,0c0.1,0,0.3,0.1,0.4,0.1
		c1.9,1.2,0.9,3.5,2,5.5c0.8-2.6,0.7-4.8,0.5-7.1c-0.1-5.7-0.1-11.3,0-17c0-1.4-0.1-2.8,1-3.9c0.7-0.7,1.6-0.6,2.5-0.6
		c4.4,0,8.9,0,13.3,0c0.8,0,1.6,0,2.3,0.5c0.5,2.2-1.2,2.1-2.4,2.2c-3.2,0.2-6.4,0.1-9.6,0.1c-3.4,0.1-3.8,0.5-3.9,3.8
		c-0.1,3.7,0,7.4,0,11.1c0,3.6,0.5,4,4.2,4.1c3.5,0,6.9-0.9,10.4-0.5c1.3,0.1,2.9-0.1,3.2,1.8c-2.1,0-4.2,0.1-6.2,0.1
		c-1.8,0-2.8,0.6-2.7,2.6c0.1,7.2,0,14.3,0,21.5c0,1.9,0.8,2.5,2.5,2.4c1.3-0.1,2.6,0.1,3.9,0.1C93,170,83.4,170.3,73.9,169.5z"/>
	<path class="st5" d="M156.7,150.5c1.3,1.2,1.5,2.9,1.7,4.5c0.1,1.1,0.6,2,1.2,2.9c0.7,0.7,0.5,1.4,0.1,2.2
		c-3.2,2.4-6.3,0.6-9.2-0.4c-6.5-2.4-10.7-7.3-13-13.8c-2-5-0.9-9.9,0.4-14.9c1.9-6.8,10.7-13.7,17.9-13.8c0.8,0.2,1.2,0.9,1.1,1.6
		c-0.3,3.2,0.4,6.5-1.1,9.6c-2.9,2.2-5.9,4.3-6.9,8.2c-1,4,0.4,8.4,3.8,10.8C154,148.4,156,148.7,156.7,150.5z"/>
	<path class="st1" d="M205.2,123.2c0.2,4.2,1.6,8.5-0.5,12.6c-6.3-1.3-12.5,0.3-18.8,0.1c-1.5,0-2.1,0.9-2.2,2.3c0,1,0.1,2-0.2,3
		s-0.5,2.3-2.1,1.7c-0.6-0.6-0.8-1.4-0.8-2.2c0-5.4-0.6-10.9,0.5-16.3c0.3-1.2,0.5-2.3,1.5-3.1c0.3-0.2,0.8-0.4,1.1-0.3
		c6.5,2.5,13.2,1.8,19.9,1.9C204.3,122.9,204.8,122.9,205.2,123.2z"/>
	<path class="st5" d="M182,143c0.9-1.9,0.3-3.9,0.4-5.9c0.1-1.4,0.3-2.6,2.1-2.7c5.7-0.1,11.5-0.3,17.2-0.4c1.4,0,2.6,0.2,2.9,1.8
		c-2.5,5.4-6.1,9-12.5,9.6c-3.6,0.3-7.1,0.8-10.7,0.5C180.6,144.8,180.8,143.8,182,143z"/>
	<path class="st6" d="M195.1,98c4,6.9,7.3,14.2,9.7,21.8c0.5,1.5,0.4,3-1.6,3c-5.9,0-11.9,0.7-17.7-1.3c-0.9-0.3-1.9-0.6-2.6-1.4
		c-0.8-1.2-0.6-2.4,0.2-3.5c1.7-1.5,3.6-0.8,5.4-0.4c2.5,0.5,5,0.2,7.4-0.3c1.7-0.3,2.1-1.3,1.6-2.8c-1.3-3.6-3.8-6.1-7.1-7.7
		c-2.4-1.1-5-2.1-7.6-2.7c-0.6-0.4-0.8-0.9-0.6-1.6c2.8-1.7,5.2-3.9,8.2-5.1C192.2,96,194.8,94.5,195.1,98z"/>
	<path class="st5" d="M164.5,156.9c0-0.2,0-0.4,0-0.7c-2-2.4,0-5-0.3-7.5c3.3-3.2,5.5-6.8,4.5-11.6c-0.6-2.8-2.3-5-4.1-7.2
		c-0.6-1.4-0.2-2.8,0.5-4c1.2-2,2-4.1,3.3-5.9c0.9-1.2,1.9-1.9,2.7,0.2l0,0c1.5,1,1.6,2.6,1.8,4.2c1.3,8.4,1.3,16.9,0.9,25.3
		c-0.1,2-0.8,3.9-0.7,5.9c-0.1,0.2-0.2,0.3-0.3,0.5c-2.6,1.2-4.8,3.3-7.7,3.8c-0.3-0.1-0.5-0.3-0.6-0.5
		C164,158.6,163.9,157.8,164.5,156.9z"/>
	<path class="st7" d="M128.5,58.3c0-2,0-4.1,0-6.1c2.2-5,5.5-8.6,11.3-8.9c8.2-0.5,14.3,6.4,13,14.5c-0.1,0.6-0.2,1.2-0.2,1.8
		c0.3,1.1,0.2,2.1-0.5,3c-1.2,2.5-3.3,3.9-5.6,5.2c-3.4,2-6.9,0.7-10.3,0.5c-1.6-0.6-2.7-2-4.4-2.4c-1.3-0.9-2.3-2-2.8-3.5
		C128.6,60.9,127.4,59.7,128.5,58.3z"/>
	<path class="st8" d="M28.3,71.1c0.4,1.3,1.5,1,2.5,1.1c3.2,0.3,3.9,1.1,3.1,4.2c-1.7,6.4-3.3,12.9-3.3,19.6c0,3.9-1.6,5.3-5.5,5.6
		c-1.6,0.1-3,0.2-3.8,1.8c0.6-10.1,1.2-20.1,5.2-29.6C26.9,72.7,27.4,71.8,28.3,71.1z"/>
	<path class="st9" d="M183.7,116.5c-0.1,1.1-0.2,2.2-0.3,3.3c0.1,0.6,0.4,1.2-0.1,1.8c-2.1,7.1-1.4,14.3-1.3,21.5
		c-0.2,1-0.3,2-0.5,2.9c-0.2,0.5-0.3,0.9-0.5,1.4c-1.2,1-2.2,1.3-2.1-0.8c0.1-2.4,0.5-4.7,0.6-7.1c0-3.3-0.2-6.6-1.4-9.8
		c-0.1-0.3,0-0.8,0.2-1.1c2.4-3.9,2.1-8.1,1.5-12.4c-0.2-1.3-0.1-2.6-0.2-3.9c-0.1-2.7,1.2-3.6,3.7-2.8c1.8,0.4,1.4,1.8,1.5,3
		C184.9,113.9,185.1,115.4,183.7,116.5z"/>
	<path class="st10" d="M196.2,75.1c0.3,0.3,0.5,0.5,0.8,0.8c0.6,2.4,1.5,4.7,4.1,5.8c1.6,2.4,0.6,4.3-1.1,6
		c-2.1,0.1-3.2,1.7-4.4,3.1c-3.8,4.3-8.3,7.5-13.6,9.7c-0.4,0.2-0.8,0.1-1.2,0.1c-1-0.2-2.1-0.9-1.8-1.6c1.1-2.7-0.9-1.7-2-1.9
		c-0.5-0.1-0.9-0.4-1.2-0.8c-0.2-1.1,0.5-1.4,1.3-1.6c1.3-0.2,2.6,0.3,3.8-0.6c0.7-0.4,1.1-1.3,2-1.3c1.1,0,2.2,0.7,3.3,0
		c1.5-0.7,2.1-2.4,3.4-3.2c0.6-0.3,1.1-0.8,1.8-1c1.9-0.5,3-1.5,2.3-3.7c-0.1-0.4-0.1-0.8-0.1-1.2c0.9-1.9-1.3-3.3-0.9-5.1
		C193.7,77.2,193.9,75,196.2,75.1z"/>
	<path class="st11" d="M174.1,39.7c3.3-1.2,6,0.1,8.6,1.9c0.9,0.6,1.7,1.7,1.4,2.8c-1.3,4.3-1.3,9-4,13c-0.2,0.1-0.5,0.2-0.8,0.2
		c-0.8-0.3-1.1-0.9-0.9-1.6c0.7-1.8-0.6-2.4-1.8-2.9c-0.8-0.5-1.3-1.2-1.5-2.1c2.1-3.5,0.2-6.7-1.1-9.8
		C173.8,40.6,173.8,40.1,174.1,39.7z"/>
	<path class="st12" d="M155.6,172.8c-1,0-2,0.2-2.9,0c-2-0.4-2.6-2.3-0.9-3.4c3.4-2.1,5.7-5,8.2-7.9c2.6-0.6,3.6,2.2,5.8,2.5
		c0.2,0.2,0.4,0.4,0.6,0.7c0.5,1.4-0.2,2.6-1.4,2.8C161.2,168.3,158.9,171.4,155.6,172.8z"/>
	<path class="st13" d="M175.8,50.6c0.5,0.6,0.9,1.3,1.4,1.9c3.1,0.5,3.1,0.5,1.6,3c-0.2,0.3-0.5,0.7-0.5,1.1c0.5,3-1.6,3.7-3.8,4.3
		c-1,0.3-1.8,0.8-2.9,0.8c-0.3,0-0.6,0-0.9-0.2c-0.5-0.6-1-1.1-1-2c-0.4-1.8-0.8-3.6,0.4-5.2c0.2-0.2,0.5-0.3,0.7-0.4
		c0.7-0.3,1.4,0.5,2.2,0.1c0-1.5-1.1-1.1-1.8-0.9c-1.1,0.3-1.8,0.2-2.5-0.7c0-0.6,0-1.2,0-1.8c1.1-1.7,2.9-2,4.7-2.5
		C175.2,48.1,175.4,49.4,175.8,50.6z"/>
	<path class="st14" d="M170.8,61.5l0.2-0.1c0.7,0.1,1,0.5,1.1,1.1c-0.2,1.4,0.8,1.8,1.9,2.2c1.4,0.6,2.9,0.2,4.3,0.8
		c1.1,1.1,2.5,0.9,3.9,1.1c1.6,0.8,3.2,0.1,4.8,0.2c0.7,0,1.3,0.1,1.8,0.7c0.2,2.6-1.4,2.9-3.5,2.7c-4.9-0.6-9.8-1.1-14.8-1.2
		c-2-0.1-4,0.1-5.9,0.5c-1.8,0.1-3.5-0.2-4.1-2.2c-0.1-0.7,0.1-1.3,0.6-1.8c0.5-0.4,1.1-0.4,1.7-0.5
		C165.4,63.7,168.8,64.3,170.8,61.5z"/>
	<path class="st15" d="M162.7,64.9c-0.4,0.3-0.9,0.5-1.3,0.8c-0.7,0.2-1.3,0.1-2.1-0.2c0.5,0.8,1.1,1.3,1.1,2.2
		c0.1,0.6,0,1.1-0.2,1.6c-0.1,0.4-0.2,0.8-0.3,1.2c-0.1,0.4-0.3,0.7-0.5,1.1c-0.1,0.4-0.3,0.8-0.6,1.1c-0.4,0.3-0.8,0.4-1.2,0.3
		c-3.4-2.9-6.1-6.2-6.4-10.9c0.4-0.8,0.8-1.7,1.2-2.5C156.1,61,159.6,62.5,162.7,64.9z"/>
	<path class="st16" d="M177.1,163.4c0.2,2,1.2,3.7,2.2,5.4c1.2,2,1.2,3.8-1.7,4.4c-2.5-0.1-4.2-1.3-4.9-3.8
		c-0.4-1.4-0.7-2.9-1.2-4.2c0.1-0.6,0.2-1.2,0.3-1.8C173.6,160.5,175.3,160.5,177.1,163.4z"/>
	<path class="st17" d="M181.3,99.8c5.3-2.1,9.9-5.2,13.4-9.9c1.3-1.7,2.6-3.8,5.3-2.2c-1.8,2.5-3.8,4.6-6.1,6.7
		c-0.4,1.8-1.9,1.8-3.3,2.2c-2.9,1.2-4.7,4.3-8.1,4.5c-1.1,0.6-1.4,2-2.4,2.7c-0.4,0.1-0.9,0.2-1.3,0s-0.7-0.6-0.9-1.1
		C177.5,100,179.6,100.1,181.3,99.8z"/>
	<path class="st18" d="M175.8,50.6c-0.7-0.8-1-1.9-2.4-1.8c-3.2,0.6-4.6-0.6-3.4-3.5c0.8-2,0.4-4.8,3.5-5.4c0.2-0.1,0.4-0.1,0.6-0.2
		c1,1,2,1.9,1.9,3.5c-0.1,0.9-0.1,1.6,1.4,1.4c1.2-0.2,1.4,2.7,0.1,3.8C176.8,49,175.8,49.3,175.8,50.6z"/>
	<path class="st19" d="M183.3,121.5c0-0.6,0.1-1.2,0.1-1.8c6.2,2.8,12.8,2.4,19.4,2.3c1.6,0,2.1-0.9,1.9-2.3c0.9,1,0.5,2.2,0.4,3.4
		C197.8,124.4,190.4,124.5,183.3,121.5z"/>
	<path class="st20" d="M173.5,39.8c-1.8,2-1.7,4.9-2.7,7.3c-0.6,1.6,1.4,1.6,2.7,1.7c-1.4,1-2.9,1.6-4.6,1.8
		c-0.5-1.4-0.9-2.8-1.5-4.2c-1.3-3.2-1-4.1,2.1-5.6C170.8,40.2,172,39.5,173.5,39.8z"/>
	<path class="st21" d="M178.3,66.2c-2,0-4,0.4-5.9-0.5c-1.5-0.7-2.6-1.6-0.6-3.1c0.4-1.5,2-1.8,2.8-1.6c2.9,1,3.1-1.2,3.9-2.8
		c0.2-0.5,0.6-0.8,1-1c0.2,0,0.5,0.1,0.7,0.1c0,1.5,0,3,0,4.6c0.2,1.4,1.7,2.9-0.1,4.2C179.5,66.4,178.9,66.6,178.3,66.2z"/>
	<path class="st22" d="M155.6,172.8c2.5-2.7,4.6-5.8,8.8-6.1c1-0.1,1.8-0.9,2-2c1.7,4.3,1.3,5.5-3.1,6.1
		C160.6,171.1,158.4,173.1,155.6,172.8z"/>
	<path class="st23" d="M164.1,68c7.2-0.2,14.3,0,21.4,1.3c2,0.4,2-1.4,3.1-1.9c0.1-0.3,0.2-0.5,0.6-0.4c0.4,0.3,0.8,0.6,1.1,1
		c0.1,2.3-1.3,3.1-3.4,3.3c-6.6-1.2-13.4-0.6-20.1-1.4C165.7,69.7,164.1,69.9,164.1,68z"/>
	<path class="st24" d="M171.5,165.2c0.8,0.4,1.8,0.9,1.8,1.8c-0.2,3.3,2.4,4.5,4.3,6.1C172.8,174.4,170.4,171.3,171.5,165.2z"/>
	<path class="st25" d="M165.8,164c-1,1.4-2.1,1-2.9-0.2c-0.8-1.1-1.8-1.7-2.9-2.3c0.1-0.5,0.1-1,0.2-1.4c1.4-2,2.9-1.8,4.6-0.4
		c0.1,0.1,0.2,0.2,0.3,0.3C165.3,161.3,165.6,162.7,165.8,164z"/>
	<path class="st26" d="M191.9,69.5c0.3,0.3,0.5,0.5,0.8,0.8c-1,3.5-2.7,5-5.7,5c-2.4-1-4.9-1.4-7.5-1.6c-1.8-0.1-3.5-0.2-5-1.5
		c0-1.2,0.8-1.3,1.7-1.5c2.3-0.1,4.6-0.1,6.8,0.5c0.4,0,0.8-0.1,1.2,0c2.5,0.9,4.8,0.7,6.5-1.6C191.1,69.4,191.5,69.5,191.9,69.5z"
		/>
	<path class="st27" d="M189.2,67c-0.2,0.1-0.4,0.3-0.6,0.4c-0.6,0-1.3-0.1-1.9-0.1c-0.9,0.7-1.8-0.2-2.7,0c-1.5-0.8-3.6,0.1-4.6-1.8
		c1.5-1,0.2-2.5,0.7-3.7c1.9,2.5,5.1,2.6,7.5,4.3C188.1,66.5,188.7,66.8,189.2,67z"/>
	<path class="st4" d="M103.4,169.6c9.9,0,19.7,0,29.6-0.1c-3.5,0.9-7.1,0.4-10.6,0.3C116.1,169.8,109.8,170.2,103.4,169.6z"/>
	<path class="st28" d="M173.5,156.2c1.2,1.2,2.7,0.5,4,0.7c-0.2,1.2-0.3,2.4-0.5,3.6c-1.5,1.2-3,1.2-4.3-0.3c0-1.3,0.6-2.7,0.2-4
		c0-0.1,0.1-0.2,0.2-0.3C173.3,155.9,173.4,156,173.5,156.2z"/>
	<path class="st29" d="M201.1,81.7c-1.4,1.1-2.3,0.2-2.9-0.9c-1-1.5-2.7-2.9-1.1-5C199,77.4,200.1,79.5,201.1,81.7z"/>
	<path class="st30" d="M164.8,159.7c-1.5,0.2-3.1-0.1-4.6,0.4H160h-0.2c0-0.7-0.1-1.4-0.1-2.2c1.6-0.3,3.3-0.7,4.9-1
		C164.9,157.8,164.9,158.7,164.8,159.7z"/>
	<path class="st31" d="M172.7,160.2c1.4,0.1,2.9,0.2,4.3,0.3c0.6,1,0.5,1.9,0,2.9c-1.8-1.8-3.5-1.7-5.2,0
		C171.6,162.2,171.9,161.1,172.7,160.2z"/>
	<path class="st32" d="M187.3,74.8c2.7-0.4,3.7-3,5.5-4.6c0.2,0.2,0.4,0.4,0.6,0.6c0,3.7-3.1,5-5.2,7.1c-0.5,0.1-0.9,0.1-1.3-0.2
		c-0.7-0.6-0.5-1.3-0.4-2C186.6,75.4,186.8,75,187.3,74.8z"/>
	<path class="st33" d="M187.9,77.6c2.1-2,3.9-4.2,5.5-6.7c0.3,0.3,0.5,0.5,0.8,0.8c0.7,2.1-1.1,3.1-2,4.4c-0.7,1-1.7,2-2.7,2.8
		c-0.7,0.4-1.5,0.7-2.1-0.1C187,78.2,187.5,77.9,187.9,77.6z"/>
	<path class="st34" d="M191.9,69.5c-2,3-4.6,4.5-8.1,2.6c0-1.4,1.1-1,1.9-1.1c0.4,0,0.8,0,1.3,0c1.8,0.1,2.5-1.9,4.1-2.3
		C191.4,68.9,191.6,69.2,191.9,69.5z"/>
	<path class="st35" d="M168.9,52.4c0.7,0.1,1.4,0.5,2.2-0.2s1.9-0.7,2.7,0.1c0.9,0.9,0.9,1.9,0.2,3c-0.8,0.6-1.2,0.2-1.6-0.5
		c-0.3-0.5-0.6-1.1-1.3-0.7l0,0c-1,0.7-1.6,0.2-2.2-0.6C168.9,53.2,168.9,52.8,168.9,52.4z"/>
	<path class="st36" d="M189,78.1c1.9-2,3.7-4.1,5.1-6.5c0.4,0.4,0.7,0.8,1.1,1.3c-0.9,3.7-3.2,5.9-6.2,6
		C188.8,78.7,188.8,78.4,189,78.1z"/>
	<path class="st37" d="M196.2,75.1c-1,1.2-2,2.4-3,3.6c0,1.4-0.9,2.1-2.1,2.6c-0.8,0.2-1.5,0.3-1.8-0.7c1.5-2.9,4.3-4.7,6.4-7.1
		C196.3,73.9,196.2,74.5,196.2,75.1z"/>
	<path class="st38" d="M195.7,73.6c-1.6,2.8-4.1,4.8-6.4,6.9c-0.5,0-0.8-0.2-1-0.6c0-0.5,0.3-0.8,0.8-0.8c2.7-1.4,4-4.1,6.1-6.1
		C195.4,73.1,195.5,73.4,195.7,73.6z"/>
	<path class="st39" d="M168.9,53.6c0.7,0.2,1.5,0.4,2.2,0.6c-0.9,1.7-1.2,3.5-1.3,5.4C168.6,57.7,168.6,55.7,168.9,53.6z"/>
	<path class="st40" d="M190.6,96.6c1.1-0.7,2.2-1.5,3.3-2.2c0.8,1.1,1.6,2.1,1.2,3.6C194.2,95.5,192.1,97.2,190.6,96.6z"/>
	<path class="st41" d="M191.1,68.7c-1,1.3-2.1,2.3-3.7,2.8c-0.4-0.3-0.4-0.6,0-0.9c1.3-0.5,2.1-1.5,2.9-2.5
		C190.6,68.2,190.8,68.4,191.1,68.7z"/>
	<path class="st42" d="M85.2,120.8c0,7.2,0,14.4-0.1,21.6c-1.1,2.2-2.5,1.7-4,0.6l0,0c-0.1-2.9-0.1-5.9-0.2-8.8
		c-0.1-2.6-1.1-4.2-4.1-3.6c-2.5,1.4-5,0.1-7.1-0.6c-5.3-1.6-10.6-2.5-16.2-2.2c-1,0-2.1,0-3.1,0.2c-4.8,0.7-9.6-0.1-14.3-0.7
		c-0.4,0.1,0.1,0.6,0,0.2c-0.1-0.2,0-0.3,0.1-0.3c3.4,0.2,6.8,1.2,10.2,1.5c1.2,0.1,2.3,0.7,2.1,2.3c-12.1-0.1-24.3-0.1-36.4-0.2
		c4.2-0.5,8.5-1.2,12.7-1.4c2.4-0.1,3.1-1.1,2.9-3.3c-0.2-1.8-0.2-3.6-0.3-5.3c-0.8-2.9,0.1-3.7,3.3-3.6c16.5,0.6,33,0.5,49.6,0.2
		c1.5,0.2,3,0.4,4.4,1.2C85.4,119.1,85.5,119.9,85.2,120.8z"/>
	<path class="st43" d="M48.6,131c-0.7-1.1-1.8-1.2-2.9-1.2c-3.8,0.2-6.9-2-10.5-3c5.1,0,10.2,0,15.3,0c3.2,1.2,6.6,1.1,9.8,2.2
		c1,0.4,2.8,0.1,2.8,2c-2.7,0.2-5.3,0.5-8,0.5c-2.9,0-1.7,2.3-2.2,3.7c-0.1-0.2-0.3-0.4-0.3-0.5C52.8,131.8,51.4,130.6,48.6,131z"/>
	<path class="st44" d="M25.8,169.5c0-2.5,0-5,0-7.5c0-1.8,0.9-2.2,2.4-2.2s2.9,0.1,3,2.1c0,1.7,0,3.4,0.1,5.1
		c0.1,1.8-0.7,2.5-2.5,2.4C27.8,169.3,26.8,169.4,25.8,169.5L25.8,169.5z"/>
	<path class="st3" d="M93.2,109.3c6.6,0,13.3,0,19.9,0.1c4.3,0,4.3,0,5,4.2c-1,1.7-2.8,1.2-4.3,1.3c-1.9,0.2-3.7-0.2-5.6-0.3
		c-6.2,0.5-12.5,0.5-18.7,0.2c-3.2-0.2-5.3,1.7-8,2.5c-15.6,0.3-31.1,0.3-46.7,0c-2,0-4,0.1-5.9-0.1c-0.9-0.1-1.8-0.2-2.2-1.2
		c-0.9-6.6-0.9-6.6,5.6-6.6c4.1,0,8.2-0.1,12.3-0.1c0.7-0.8,1.6-1.2,2.6-1.2c6.5,0,13.1-0.3,19.6,0.2c1.1,0.1,2.2,0.2,3.3,0.1
		c0.4,0,0.7-0.1,1.1-0.1c1.9-0.3,3.9-0.3,5.9-0.2c2.3-0.1,4.7-0.1,7,0c0.9-0.2,1.8,0,2.8,0C88.9,108.3,91.3,107.4,93.2,109.3z"/>
	<path class="st45" d="M128.5,58.3c0.5,1.4,0.9,2.7,1.4,4.1c-0.8,0.5-1.8,0.5-2.6,0.1c-5.3-2.7-11.1-2.8-16.8-2.9
		c-3.1-1-6.3-1.1-9.4-0.2c-0.3,0.1-0.7,0.1-1,0c-2.8-1-5.7-0.3-8.5-0.2c-1.6,0-2.3,0.9-2.4,2.4c-0.1,1.6,0,3.2,0.2,4.7
		c0.7,5.1,0.1,10.1-0.9,15c-0.3,0.5-0.7,0.8-1.3,0.9c-0.4,0-0.7,0-1-0.2c-0.5-0.3-0.8-0.7-1-1.2c-1-4.6-0.3-9.3-1-13.9
		c-0.2-1.3,0-2.8-0.1-4.2c-0.1-3-1-4-4-3.6c-5.4,0.8-10.7,0-16.1,0.5c-3.7,0.4-7.1,1.6-10.5,3.1c-3.7,1.6-5.3,5-7,8.2
		c-2,3.9-2.3,8.2-3,12.4c-0.3,1.6-0.7,3.1-0.8,4.7c-0.2,3.9,0.4,7.5,2.8,10.7c0.2,1.1,0.1,2.1-0.9,2.8c-3.2-0.8-5.7-5.1-5.4-9.2
		c0.5-5.6,0.6-11.3,1.9-16.9c1.3-6,3.8-11.5,8.8-15.4c3.7-2.9,8.3-4,12.9-4c11.4-0.1,22.7-1.2,34.1-0.6c9.4,0.6,18.8-1.1,28.1,1.6
		C126,57.4,127.3,57.8,128.5,58.3z"/>
	<path class="st4" d="M44.5,101.6c0.2-1,0.3-2.1,0-3.1c-0.9-2-1.7-4,0.4-5.8c2.4-0.8,4.8-0.6,7.3-0.5c4.1,0.2,8.1,0,12.2,0.1
		c1.1,0,2.2-0.2,3.1,0.6c1.7,2.3,0.9,4.8,0.8,7.3c-0.3,2.7,0.7,5.6-0.4,8.3c-0.2,0.3-0.4,0.6-0.7,0.9c-7.6,0-15.1,0-22.7,0
		C44.5,106.7,44.5,104.2,44.5,101.6z"/>
	<path class="st46" d="M26.7,116c1.5,0.5,3.1,0.5,4.7,0.5c16.8,0,33.5,0,50.3,0c0.2,0.7-0.1,1.1-0.7,1.4c-0.7,0.1-1.4,0.3-2.1,0.3
		c-14.8-0.1-29.6,0.4-44.5-0.2c-1.6-0.1-3.1,0.2-4.7,0c-2.1-0.4-2,1.4-2.3,2.7c-0.1,0.1-0.2,0.1-0.3,0.1c-1.9-1.4-1.7-3.1-0.9-4.9
		C26.4,115.9,26.5,116,26.7,116z"/>
	<path class="st47" d="M34.3,67.4c0.1-0.2,0.1-1,0.5-1.5c2.1-2.7,4.1-5.6,7.5-6.9c0.9-0.3,2-0.6,2.6,0.5s1.1,2.3,0.1,3.3
		c-2.6,2.6-5.3,5-8,7.5c-0.5,0.4-1.1,0.6-1.6,0.1C34.4,69.8,34.2,68.9,34.3,67.4z"/>
	<path class="st47" d="M26.3,115.9c1.5,1.4,0.7,3.3,0.9,4.9c-0.1,0.7-0.1,1.5-0.4,2c-1,1.7-2.5,3.2-4.6,2.5
		c-2.3-0.8-2.1-3.1-1.4-4.8c0.7-1.9,1.7-3.7,3.1-5.3C25.4,113.4,25.8,114.5,26.3,115.9z"/>
	<path class="st48" d="M87.8,81.7c0.2-6.9,0.5-13.7,0-20.6c-0.2-2.6,0.7-3.7,3.4-3.4c3,0.3,6.2-0.5,9.2,0.6c-0.5,0.9-1.3,1.1-2.3,1
		c2.1,1.3,2.8,3.5,3.3,5.6c1.8,7,6.4,11.6,12,15.8c5.2,3.9,7.9,9.3,8.3,15.8c0.1,2.2-0.8,3.8-2.7,5c-6.8,1.5-13.7,0.7-20.6,0.8
		c-0.9,0-1.7-0.4-2.3-1.2c-0.9,0-1.9,0-2.8-0.1c-1.5-0.6-1.4-2-1.5-3.3c-0.1-3.4-0.1-6.7,0-10.1c0-2.3-0.1-4.4-3-4.9
		C88.3,82.6,88,82.2,87.8,81.7z"/>
	<path class="st49" d="M81,118c0.2-0.5,0.5-0.9,0.7-1.4c1.6-2.8,4.1-3.2,7-3.1c6.4,0.2,12.9,0.1,19.3,0.1c2.8,0.5,2.3,2.9,2.7,4.7
		c0.4,1.6,1.6,1.5,2.8,1.5c3.1,0,6.2,0,9.3,0c1.1,0,2.2-0.2,3,0.8c0.6,7.3-0.1,14.7,0.2,22c-5.8,0.4-11.7,0.2-17.5,0.1
		c-1.1-1.2-1.2-2.7-1.2-4.2c0-5.9,0-11.8,0-17.7c0-0.9,0.6-2-0.6-2.7c-2.2,1.5-4.6,1.6-7.1,1.6c-4-0.1-8,0-12,0
		c-1.1,0-2.2,0.1-3-0.9C83.5,118.5,81.8,119.7,81,118z"/>
	<path class="st5" d="M96.1,101c7.8-0.2,15.5,0.2,23.3-0.5c2.6-0.9,3.8-2.4,3.2-5.5c-0.6-3.5-0.5-7.3,3.7-9.2c2.7,0.5,3,0.9,1.6,3.1
		c-1.3,2-1.4,4-0.4,6.2c1.2-1.9,2.7-4.1,2.5-5.8c-0.3-3.6,1.4-3.8,3.9-3.8c1.4,0,2.6,0.9,4.3,1.6c-1.8-6.7-2.8-13.3-5.8-19.2
		c-0.5-1-1.1-1.9-0.5-3.1c1.6,0.4,2.8,1.4,4,2.4c0.2,0.8,1.2,0.9,1.4,1.6c0,0.1,0,0.2,0,0.4c1.6,3.8,2.9,7.8,3.6,11.9
		c0.7,3.8,1.2,7.7,1.8,11.5c0.3,1.9,2,3.8-0.5,5.6c-1.6,1.1-2.9,2.5-4.8,3.4c-4.2,1.8-8.6,1.4-12.9,1.6c-9.3,0.5-18.5,0.5-27.8,0.6
		c-1.1,0-2.7,0.6-3-1C93.5,101.3,95.4,101.8,96.1,101z"/>
	<path class="st2" d="M87.8,81.7c5.2,0.5,5.2,0.5,5.3,5.8c0.1,4.5,0.2,9,0.3,13.4c-0.4,1.6-0.2,3.1,0,4.7c0.5,0.6,0.4,1.3,0,1.9
		c0,0.6-0.1,1.1-0.1,1.7c-2.2,0-4.5,0-6.7,0c-0.9-1.1-1.2-2.4-1.2-3.9c0-6.7,0-13.4,0-20.1c0-1.3-0.2-2.7,1.2-3.5
		C86.9,81.8,87.3,81.7,87.8,81.7z"/>
	<path class="st48" d="M158.5,107.6c-1,0.6-2,1.1-3.3,1.2c-3.1,0.4-6.3,0.8-9,2.7c-1.4,1-3.2,1.5-4.5-0.3c-1.2-1.7-0.4-3.2,0.7-4.6
		c2.7-3.4,6.4-4.7,10.6-4.4C156.3,102.5,158.1,104.3,158.5,107.6C158.5,107.7,158.5,107.6,158.5,107.6z"/>
	<path class="st50" d="M154.9,128.3c0.3-3.7,0.6-7.4,0.9-11.1c0.3-0.8,0.6-1.6,0.9-2.4c2.2-1,3.3-0.2,3.6,2.3
		c0.3,2.9-1.4,5.4-1.9,8.1c-1.2,6.5-1.8,13.1-0.8,19.7c0.2,1.4,0.9,3-0.7,4.1c-1.2-0.2-1.7-1.2-2.1-2.3c-1.8-4.7-1.9-9.6-1.7-14.5
		C153.2,130.7,154.1,129.5,154.9,128.3z"/>
	<path class="st2" d="M109.9,118.4c-1.2-1.3,0.1-3.6-1.8-4.7c3.3,0,6.7-0.1,10-0.1c1.6,0,3.2,0.3,4.7,0c3.6-0.8,4,2,4.9,4.1
		c0.6,1.4-0.9,1.1-1.6,1.4c-0.9,0.9-2,0.8-3.1,0.8c-3,0-5.9-0.1-8.9,0C112.5,120,111.1,119.6,109.9,118.4z"/>
	<path class="st51" d="M159.8,97.2c-5-1.2-8.3-4.7-10.9-8.7c-3.2-5-5.6-10.5-7.6-16.1c-0.2-0.6-0.2-1.4-0.3-2.1
		c1.3-0.9,2.1,0.1,2.9,0.7c3.2,5.6,5.2,11.8,9.1,17c2.1,2.9,5.3,4.4,7.6,7c0.2,0.6,0.2,1.2-0.2,1.7C160.3,96.9,160,97.1,159.8,97.2z
		"/>
	<path class="st42" d="M143.5,71.7c-0.8-0.6-1.5-1.2-2.5-1.4c-1.1-0.8-2.3-1-3.6-1c0.1-0.1,0.1-0.2,0.2-0.3c-0.1-0.3,0-0.7,0.3-0.7
		c4.7-1.2,10.1,1,12.7,5.1c1.8,2.9,3.4,5.9,5,8.8c0.2,2.5,2.7,4.6,1.4,7.3c-1.8,1.2-2.8-0.1-3.6-1.3c-1.7-2.5-3.5-5.1-4.3-8.1
		C148.2,76.6,146.3,73.9,143.5,71.7z"/>
	<path class="st5" d="M130,142.4c-2.7,0.7-3.4-0.9-3.4-3.8s1-3.7,3.7-3.5c2.2,0.2,4.5-0.4,4.3,3.2
		C134.3,142.2,134.2,142.4,130,142.4z"/>
	<path class="st52" d="M109.9,118.4c1.7-0.9,2.9,0.8,4.7,0.7c3.8-0.3,7.7,0,11.6,0.1c-0.1,0.5-0.2,1.1-0.2,1.6
		c-4.4,0-8.8,0.1-13.2,0.1C111,120.9,109.7,120.5,109.9,118.4z"/>
	<path class="st53" d="M179.6,104.7c-0.9,0.9-2.6,0.2-3.2,1.7c-0.8,1.2-1.8,1.4-3,0.7c-0.8-0.1-1.6-0.1-2.3-0.2
		c-3.3-1-6.8-0.6-10.1-1.3c-0.4-0.2-0.8-0.4-1.3-0.6c-0.2-1.2-1-2.3-0.2-3.5c0.6-0.4,1.2-0.3,1.7,0.2c0.6,1.2,1.9,1.6,3,1.6
		c3.3,0.1,6.5,1.3,10,0.5C176,103.4,178.1,103,179.6,104.7z"/>
	<path class="st54" d="M93.3,107.6c0-0.6,0-1.3,0-1.9c3-1.3,6.1,0.8,9.1-0.2c0.6-0.2,1.2,0.3,1.2,1c0.1,1-0.6,1.1-1.4,1.2
		C99.2,107.6,96.3,107.6,93.3,107.6z"/>
	<path class="st55" d="M160.9,102.1c-0.4-0.2-0.9-0.4-1.3-0.6c0.1-0.3,0.2-0.7,0.2-1c0.6-0.5,1.3-0.5,2-0.3c4.1,1.4,8.4,1,12.7,1
		c1.5-0.2,3.5-1.6,3.9,1.4c0.2,0.2,0.4,0.4,0.6,0.6c-1.7,1.4-3.8,0.6-5.7,0.8c-3.5,0.3-7.1,0.1-10.6-0.7
		C161.9,103.2,161.2,102.9,160.9,102.1z"/>
	<path class="st56" d="M175.3,102.2c-5.2,0.1-10.5,0.4-15.5-1.7c0-0.4,0.1-0.9,0.1-1.3c0.7-0.7,1.5-0.6,2.2-0.3
		c3.9,1.5,8.1,1.1,12.1,1.3C175.2,100.6,175.9,101,175.3,102.2z"/>
	<path class="st57" d="M174.1,101c-4.9,0.5-9.6,0-14.2-1.8c0-0.7-0.1-1.3-0.1-2c0.1-0.1,0.1-0.3,0.2-0.4c0.3-0.1,0.6-0.1,0.9,0.1
		c3.2,2.1,6.9,2,10.4,2.6c0.9,0.1,2-0.2,2.8,0.6C174.3,100.4,174.3,100.7,174.1,101z"/>
	<path class="st0" d="M107.5,116c1-0.4,1.3,0.2,1.3,1c0,8.6-0.1,17.3-0.1,25.9c-1.2,0-2.3,0-3.5,0.1c-3-0.9-6.1-0.6-9.2-0.2
		c-10.1,1.3-10.1,1.3-10.1-8.7c0-3.4,0.1-6.8,0-10.2c-0.1-2,0.7-2.7,2.6-2.6c3.9,0.1,7.8,0,11.7,0c1.1,0,2.2,0.2,3.2-0.4
		C104.9,119.4,105.8,117.4,107.5,116z"/>
	<path class="st4" d="M126.4,144.9c1,0,2,0,3,0c1.6,0,2,1,2,2.4s-0.5,2.3-2,2.3c-1.7,0-3.4,0-5.1,0c-1.8,0-2.4-0.9-2.4-2.6
		c0-1.8,0.9-2.2,2.5-2.1C125,144.9,125.7,144.9,126.4,144.9z"/>
	<path class="st58" d="M123.3,155c0.7,0.1,1.3,0.5,1.3,1.3c-0.1,0.7-0.6,1.3-1.4,1.3s-1.2-0.6-1.2-1.3
		C122,155.5,122.6,155.1,123.3,155z"/>
	<path class="st58" d="M117.7,156.3c0,0.7-0.3,1.2-1,1.4c-0.8,0.1-1.3-0.4-1.4-1.2c-0.1-0.7,0.3-1.2,1-1.3
		C117.1,155,117.5,155.6,117.7,156.3z"/>
	<path class="st59" d="M108.7,156.5c0.1-0.8,0.4-1.3,1.1-1.3c0.8,0,1.3,0.5,1.2,1.3c0,0.7-0.5,1-1.2,1
		C109.1,157.4,108.8,157,108.7,156.5z"/>
	<path class="st49" d="M53.5,126.8c7.1-0.7,13.8,0.9,20.5,3.2c0.9,0.3,1.9,0.3,2.9,0.4c-0.3,2.1-2,1-2.9,1c-3,0.1-3.8,0.7-3.5,3.8
		c0.1,0.8,0.3,1.6,0.3,2.3c0,1.1-0.3,2.3-1.7,2.3c-1.3,0-1.5-1-1.6-2.1c-0.3-2,0.7-4.1-0.1-6.1c-1.1-1.8-3.2-1.4-4.8-1.8
		c-2.6-0.7-5.2-1.7-8-2C53.8,127.9,53.3,127.6,53.5,126.8z"/>
	<path class="st60" d="M53.5,126.8c4.5,1.1,9.1,2.2,13.6,3.4c0.5,0.1,1.6,0,1.2,1.1c-0.1,0.2-0.7,0.2-1.1,0.3
		c-1.4-0.2-2.8-0.4-4.1-0.7c-2.9-1.3-6-1.7-9.1-2.5c-1.2-0.3-2.9,0-3.5-1.7C51.5,126.8,52.5,126.8,53.5,126.8z"/>
	<path class="st61" d="M154.9,128.3c-0.1,3.3-0.5,6.5-0.4,9.8c0.2,3.8,1,7.4,2.4,11c-0.1,0.5-0.2,1-0.2,1.5
		c-5.6-1.4-9.2-5.5-9.5-10.5C146.9,135.2,149.7,129.6,154.9,128.3z"/>
	<path class="st62" d="M183.7,116.5c0-1.3,0.1-2.5,0.1-3.8c0.5-0.5,0.9-1,1.4-1.5c1.9-2.1,1.9-3.3-0.1-5.3c-0.7-0.7-1.6-1.2-2-2.2
		l-0.1,0.1c-0.4-0.5-0.5-1-0.2-1.5c5.9,0.4,11,2.5,14.5,7.6c1.1,1.5,1.4,3.3,2,4.9c0.5,1.2-0.2,1.8-1.4,2.1
		C193.2,117.9,188.4,118.3,183.7,116.5z"/>
	<path class="st63" d="M171.1,120.2c-0.5-0.3-1.2-1.4-1.5-0.2c-1,3.4-3.9,5.9-4.5,9.5c0.1,0.7,0.6,1.4,0.4,2
		c-1.4,3.9-0.4,7.8,0.2,11.7c0.3,1.9,0.2,3.7-0.6,5.5c-1.1,2.4-0.1,5-0.5,7.5c-1.9-1.2-1.7-2.5-1.6-4.7c0.3-3.5,0.1-7.2-1.5-10.7
		c-0.9-1.9-1-4.1-1.1-6.4c-0.3-5.5,3.4-9.1,5.3-13.5c0.8-1.8,2.7-2.3,4.3-2.7C171,117.9,171.1,119.3,171.1,120.2z"/>
	<path class="st64" d="M173.5,156.2c-0.2,0-0.4-0.1-0.5-0.3c-0.1-5-0.5-10-0.1-14.9c0.4-6.2-1.2-12.1-1.6-18.1
		c-0.1-0.9-0.1-1.8-0.2-2.7c2-1.1,2.7,0.4,2.8,1.8c0.2,3.2,0.5,6.6,1.2,9.6c1.2,5.2-0.6,10-0.3,15
		C175,149.9,173.5,152.9,173.5,156.2z"/>
	<path class="st65" d="M173.4,107.1c1-0.2,2-0.5,3-0.7c0.5,0,1,0,1.5,0.1c0.9,0.1,2.4-0.2,2.2,1.1c-0.2,1.2-1.5,0.1-2.3,0.3
		c-2.4,0.4-5.1,0-7.3,2.1c1.7,0.8,2.9-0.8,4.7,0.1c-2.2,1.1-5.3,1.1-4.9,4.5c0,0.2-0.4,0.6-0.6,0.5c-2.8-0.6-5.7,0.4-8.4-1.3
		c2.4-1.2,5,0.8,7.7-0.6c-1.5-1.3-3.3-0.9-5.1-1.9c1.8-0.8,3.2,0.7,4.7-0.4c-2-2.3-5.2-0.6-7.3-2.8
		C165.4,107.8,169.6,109,173.4,107.1z"/>
	<path class="st66" d="M183.1,103.6c3.5,0.9,5.2,2.7,4.9,5.3c-0.3,2.4-1.8,3.7-4.2,3.7c-0.4-1,0.1-2.2-0.5-3.2
		C183.8,107.5,182.9,105.6,183.1,103.6z"/>
	<path class="st67" d="M160.9,102.1c5.9,2.1,12,1.4,18.1,1.2c0.4,0,0.7,0,1.1,0c0.9-0.6,1.8-0.7,2.6,0.1c-0.8,1-1.9,1.2-3,1.3
		c-6,0.1-12,0.7-17.9-0.9C159.9,103.3,159.8,103.2,160.9,102.1z"/>
	<path class="st68" d="M161,105.6c3.4,0.3,7-0.8,10.1,1.3C167.7,106.9,164.2,106.9,161,105.6z"/>
	<path class="st69" d="M182.6,103.4c-0.9,0-1.7-0.1-2.6-0.1c0.1-1.6,0.8-2.5,2.5-2.2c0.1,0.4,0.3,0.7,0.4,1.1c0.1,0.5,0.1,1,0.2,1.5
		C182.9,103.7,182.7,103.6,182.6,103.4z"/>
	<path class="st2" d="M85.2,162.8c0,1.6,0,3.2,0,4.8c0,1.2-0.5,1.9-1.8,1.8c-1.3,0-1.7-0.7-1.7-1.9c0-3.4,0-6.8,0-10.2
		c0-0.9,0.3-1.6,1.4-1.3c0.9,0.2,2.2-0.3,2.1,1.4C85.2,159.2,85.2,161,85.2,162.8z"/>
	<path class="st70" d="M107.5,116c-1.7,1.4-1,4.8-4.1,4.9c-6,0-12.1,0-18.1-0.1c-0.6-0.5-0.6-1.1-0.6-1.8c5.4,0,10.7-0.1,16.1,0
		c2.3,0,4.4-0.2,5.5-2.5C106.4,116,106.9,115.7,107.5,116z"/>
	<path class="st71" d="M81.1,142.9c1.4-0.1,2.8,0.3,4-0.6c0,2,0.1,4,0,6c0,0.8,0.5,2.2-1.3,2.1c-1.3-0.1-2.3-0.5-2.3-2.1
		C81.6,146.5,81.9,144.6,81.1,142.9z"/>
	<path class="st61" d="M165.1,148.7c-0.6-6.4-3.4-12.8,0-19.2C172,134.2,172,144,165.1,148.7z"/>
	<path class="st72" d="M126.7,86.6c-4.1,2.7-3.6,6.8-2.5,10.5c0.9,3.1,0.1,3.6-2.6,3.6c-0.8,0-1.5,0.4-2.3-0.2
		c2.4-5.7-0.6-14.2-6.3-18.7c-2.8-2.2-5.8-4.1-8.2-6.8c-2.9-3.4-3.6-7.7-5.4-11.5c-0.8-1.8-1.8-3.4-4.1-5.2c2.2,0,3.6,0,4.9,0
		c0.1,0,0.3,0,0.4,0c3.3-0.3,6.5-0.3,9.8,0c3.7,0.1,7.3,0.2,11,0.8c3.1,0.5,5.6,2,8.3,3.4c0.7,0.8,1.4,1.6,2.1,2.5
		c5,7.5,6.1,16.2,8,25.5c-2.4-1.6-3.7-3.5-6-3.8C131.5,85.9,129.1,86.7,126.7,86.6z"/>
	<path class="st73" d="M150.7,57.7c-1.5,5.3-5.2,8.3-10,8.3c-4.6,0-8.8-3.1-10.1-7.5c-1.4-4.7,0.5-9.3,4.6-12c1.3-0.9,3-0.4,4.2-1.4
		c2.3,0.4,1.9,2.1,1.7,3.7c-0.1,0.4-0.1,0.8-0.2,1.2c-0.5,6.2,0.6,7,6.9,5C149.5,55.1,151.5,54.8,150.7,57.7z"/>
	<path class="st74" d="M150.7,57.7c-0.1-2.2-2-1.3-3.1-1.8c-1.9-0.6-4,0.4-5.7-0.8c-1.9-1.4-0.7-3.7-1.4-5.5
		c-0.1-0.3-0.3-0.5-0.5-0.8c0.4-1.3,0.1-2.5-0.7-3.7C146.7,44.3,152.9,51.1,150.7,57.7z"/>
	<path class="st75" d="M151.3,62c2.2,3.6,4.4,7.1,6.6,10.7c0.1,0.4,0.2,0.7,0.3,1c0,0.4,0,0.7,0.1,1.1c0,0.4,0,0.8,0.1,1.2
		c0.2,0.8,0.5,1.7-0.1,2.5c-0.4,0.5-0.9,0.8-1.5,0.9c-1.8-0.3-3-1.4-4-2.9c-2.1-3.3-4.3-6.6-6.7-9.7C148,65.5,149.8,63.9,151.3,62z"
		/>
	<path class="st76" d="M146,66.8c2.4,1.1,4.2,2.7,5.2,5.3c1.1,2.8,3.4,4.8,5.5,6.9c0.3,0.3,0.4,0.7,0.2,1.1
		c-0.7,0.6-0.7,1.7-1.3,2.4c-0.3,0.1-0.5,0.1-0.7-0.1c-2.1-2.7-3.5-5.8-5.3-8.6c-2.3-3.6-7.5-5.7-11.9-4.8c-1.1-0.1-2.1-0.2-1.7-1.7
		C139.3,67.7,142.7,68.3,146,66.8z"/>
	<path class="st77" d="M23.5,97c0.5-7.2,1.8-13.9,3.8-20.5c0.4-1.3,1.1-2.6,2.9-2.5c1.4,0.1,2.4,0.4,1.8,2.2
		c-2.2,6.4-3.1,12.9-3.2,19.6c0,0.6-0.1,1.2-0.4,1.7c-0.7,1.8-2.2,2.3-3.9,2.1C22.8,99.4,23.7,97.7,23.5,97z"/>
	<path class="st78" d="M181.8,95c-1.3,0.7-2.7,0.5-4.1,0.6c-3.9,0.4-7.8,0.7-11.7-0.3c-1.8-0.4-3.8-0.1-5.1-1.9
		c-0.3-1-0.1-1.9,0.9-2.4c5.1,0.7,10.2,1.5,15.4,1.5c1,0,2,0.1,3,0C181.9,92.5,182.7,93.2,181.8,95z"/>
	<path class="st79" d="M174.1,101c0-0.2,0-0.4,0-0.6c-0.2-0.3-0.3-0.6-0.3-1s0.1-0.7,0.1-1.1c0.1-0.4,0.2-0.8,0.4-1.1
		c0.1-0.2,0.3-0.4,0.5-0.6c0.3-0.3,0.7-0.4,1.1-0.4c0.7,0,1.4,0,2,0c1.1,0,2.5-0.4,1.7,1.7c-0.4,1.1,0.6,1.7,1.7,1.9
		c-1.1,0.9-2.8,1-2.9,2.8c-0.7-2-2.1-0.1-3.1-0.5C175.4,101.4,174.8,101.1,174.1,101z"/>
	<path class="st80" d="M186.2,85.2c2.2,0.9,3,3.1,4.3,4.8c-1,1.5-2.1,3-3.7,3.9c-1.6-0.5-1.6-2.3-2.7-3.3c-0.1-0.2-0.2-0.5-0.2-0.8
		c0-0.4,0.1-0.8,0.3-1.1c0.3-0.5,0.5-1.1,0.6-1.8c0.1-0.5,0.2-1,0.5-1.4C185.5,85.2,185.8,85,186.2,85.2z"/>
	<path class="st81" d="M175.9,96.2c-0.1,0.4-0.2,0.9-0.8,1.1c-4.9,0.2-9.7-0.2-14.4-2.1c-0.3-0.8-0.8-1.7,0.6-1.9
		c4.1,1.2,8.3,1.6,12.5,1.8c1.3,0,2.6-0.2,3.8,0.4C177.1,95.8,176.4,95.6,175.9,96.2z"/>
	<path class="st82" d="M181.8,95c0.4-2-1.1-1.4-2-1.4c-4.5-0.2-9.1,0.1-13.6-0.8c-1.5-0.3-2.9-0.6-4.2-1.4c-0.5-0.9-0.5-1.6,0.7-1.9
		c4.7,1.7,9.7,2.2,14.6,2.3c1.9,0.1,3.8-0.5,5.6,0.5c0.3,0.3,0.3,0.6,0,0.9C182.5,93.7,182.6,94.6,181.8,95z"/>
	<path class="st83" d="M182.9,93.1c0-0.2,0-0.4,0-0.6c-0.3-0.7-0.2-1.4,0.3-2c0.3-0.3,0.8-0.4,1.2-0.4c1.9,0.6,2.1,2.2,2.2,3.7
		C185.1,95.4,184,94.6,182.9,93.1z"/>
	<path class="st84" d="M194.5,83.7c-1.3-1-2.5-2-3.8-3c0.8-0.7,1.7-1.3,2.5-2C194,80.3,196,81.6,194.5,83.7z"/>
	<path class="st85" d="M191.5,88.9c0.5-1.7,1.4-3,2.9-4.1c2.7,1.8-0.4,2.7-0.7,3.9C193.3,90,192.3,90.1,191.5,88.9z"/>
	<path class="st86" d="M179.4,57.2c-0.5,2.6-1.1,5.2-3.2,7.9c0.2-5.2-2.4-3-4.5-2.5c-0.2-0.4-0.5-0.7-0.7-1.1
		c0.9-0.4,1.8-1.1,2.7-1.2c4-0.2,4-3.9,5.4-6.2c0.8-1.2-1.4-0.8-1.9-1.6c3.1,0,3.4,0.4,2.3,3.3C179.3,56.3,179.1,56.7,179.4,57.2z"
		/>
	<path class="st39" d="M171.1,54.2c0.6-1.1,1.3-1.6,1.8,0c0.2,0.6,0.4,1,1.1,1.2C172.3,56.8,172,54.8,171.1,54.2z"/>
	<path class="st87" d="M187.4,70.5c0,0.3,0,0.6,0,0.9c-0.4,0-0.8,0-1.2,0c-3.2,0.3-6.4-1.4-9.6,0.1c-0.6,0.2-1.2,0.4-1.8,0.5
		c-0.6,1.2-1.8,1-2.9,1c-2.7,0.2-5.3-0.4-8-0.1c-2-0.7-3.7-1.9-4.6-3.9c0.2-0.4,0.4-0.8,0.5-1.2c0.1-0.5,0.1-1.2,0.9-1.2
		c0.7,1.4,1.7,2.2,3.3,1.4c2.6,0.8,5.3,1,7.9,1.1C177.1,69.2,182.3,69.6,187.4,70.5z"/>
	<path class="st88" d="M160.8,66.6c-0.3,0.4-0.6,0.8-0.9,1.2c-0.5-1.1-1.6-1.4-2.5-2c-0.7-0.5-1.2-1-0.6-1.9c0.6-0.8,1.3-0.7,2-0.2
		c0.9,0.6,1.7,1.3,2.6,1.9C161.2,66,161,66.3,160.8,66.6z"/>
	<path class="st89" d="M179.5,65.5c1.6,0.4,3.2,0.8,4.8,1.2c-0.4,1.6-1.6,0.8-2.5,0.7c-1,0-2-0.1-3-0.1c-0.9,0-0.9-0.5-0.6-1.2
		C178.7,66,179.1,65.7,179.5,65.5z"/>
	<path class="st23" d="M181.8,67.4c0.9-0.1,1.8,0.1,2.5-0.7c0.8,0.2,1.6,0.4,2.4,0.6C185.1,68.4,183.5,68.1,181.8,67.4z"/>
	<path class="st90" d="M157.5,74.7c0-0.5,0-1.1,0.1-1.6c0.8-0.1,1.5-0.1,2,0.3c-0.3-0.2-0.8-0.7-1.1-1.2c0.1-0.4,0.1-0.8,0.2-1.2
		c1.6-0.4,2.7,0.9,4.1,1.2c0.5,0.4,1.1,0.8,1.8,1c0.8,0.5,2.1,0.5,1.8,2c-1,1-2.5,0.8-3.6,1.7C160.6,77.2,159,76,157.5,74.7z"/>
	<path class="st91" d="M158.5,72.2c1.3,0.7,2.7,1.5,4.6,2.6c-2.6,0.2-3.8-1.5-5.5-1.7c0-0.2,0.1-0.3,0.3-0.4
		C158.1,72.5,158.3,72.4,158.5,72.2z"/>
	<path class="st90" d="M159.3,69c1.4,0.9,3,1.7,3.9,3.2c-0.1,0.1-0.2,0.1-0.3,0.2c-0.3,0-0.5,0-0.8,0c-1.2-0.5-2.5-0.9-3.1-2.2
		C159.1,69.8,159.2,69.4,159.3,69z"/>
	<path class="st92" d="M159,70.2c1.2,0.7,2.4,1.4,3.6,2c0.1,0.1,0.2,0.3,0.1,0.4c0,0.1-0.1,0.2-0.1,0.2c-1.6,0-2.7-1.1-4-1.9
		C158.8,70.8,158.9,70.5,159,70.2z"/>
	<path class="st93" d="M163.2,72.3c3.8-1,7.7,0.4,11.5-0.2c3.2,0.4,6.5,0.9,9.7,1.3c1.1,0.2,2.2,0.3,2.8,1.4c0,0.3,0,0.6,0,0.9
		c-0.3,0.2-0.6,0.3-1,0.3c-6.3-1.6-12.8-2.4-19.3-2.4C165.6,73.6,163.9,74.2,163.2,72.3L163.2,72.3z"/>
	<path class="st94" d="M176.5,71.5c-0.5-0.3-1-0.5-2-1c4.2-0.2,8-0.3,11.6,1c-0.8,0.1-1.7,0-2.4,0.6C181.4,71.9,179,71.7,176.5,71.5
		z"/>
	<path class="st95" d="M187,75.8c0,0,0.3,0,0.2,0c-0.2,0.5-0.4,1.1-0.5,1.6c-0.1,0.1-0.2,0.3-0.4,0.4c-2.1,0.2-4.2,0.3-6.2-0.3
		c-3.9-1.1-7.9-0.5-11.8-1.4c-0.8-0.2-1.6-0.2-2-1c-0.8-0.3-1.6-0.7-2.4-1c2.8-1.4,5.9-0.7,8.7-0.5C177.5,73.9,182.3,74.5,187,75.8z
		"/>
	<path class="st96" d="M188.4,79.7c-0.3,0.2-0.7,0.3-1,0.5c-0.4,0.1-0.9,0.1-1.3-0.1c-0.7-0.5-1.5-0.9-1.3-2
		c0.5-0.7,1.3-0.2,1.9-0.6v-0.2c0.4,0.1,0.8,0.1,1.2,0.2c0,0.3-0.2,0.7-0.1,0.8c0.5,0.5,0.8-0.2,1.3-0.3c0,0.3,0,0.6,0.1,0.9
		C188.9,79.3,188.6,79.5,188.4,79.7z"/>
	<path class="st72" d="M52.9,62c1.9-2.1,4.6-2.5,7-2.9c7.9-1.4,15.9-1.2,23.8-0.8c1,0.1,1.9,0.1,1.9,1.6c0,7.1,0.1,14.2,0.1,21.2
		c-2.1,1.8-4.6,0.6-6.9,0.9c-1.5-0.1-2.1-1.3-2.8-2.4c-2.1-3.6-4-7.3-6.1-10.9c1.9,3.2,3.6,6.6,5.5,9.9c1,1.7,0.9,3.2-1,4.3
		c-2.1,0.6-2.2,2.2-2.3,4c0,6.2,0,12.3,0,18.5c0,1.4,0.2,2.8-1.2,3.8h-0.3h-0.3c-0.7-0.4-1-0.9-1.1-1.7c-0.4-1.3-0.4-2.7-0.2-4
		c-0.1-0.9-0.1-1.9,0-2.8c-0.2-2.1-0.2-4.1-0.2-6.2c0-1.1,0-2.2-0.9-3c-0.4-3.3-2.8-4.3-5.6-5c-3.2-4.4-4-9.7-5.5-14.7
		c-0.8-2.6-1.3-5.2-3.6-7.1C52.7,64,52,63.1,52.9,62z"/>
	<path class="st97" d="M70.9,109.2c0-8.4,0-16.8,0-25.2c0-3.7,2.7-1.8,4.3-2.3c0.9-0.5,1.9-0.7,2.7,0.1c0.9,1,0.9,2.2,0.9,3.4
		c0.1,6.7,0.1,13.4,0,20.1c0,1.6-0.1,3.2-1.9,4.1C74.9,109.3,72.9,109.9,70.9,109.2z"/>
	<path class="st98" d="M76.9,109.4c0.8-1.9,0.4-3.9,0.4-5.9c0.1-7.2,0.1-14.5,0.1-21.7c0.3-0.2,0.6-0.3,1-0.3c2,0.2,4-0.4,6,0.3
		c1,0.9,0.9,2.1,0.9,3.3c0,6.6,0,13.1,0,19.7c0,1.6-0.3,3.2-1.2,4.5C81.7,109.3,79.3,109.4,76.9,109.4z"/>
	<path class="st99" d="M84.1,109.3c-1-1.7,0-3.5,0-5.3c-0.1-7.4,0-14.7,0-22.1c0.7-0.8,1.5-0.4,2.3-0.3l0.1,0.2
		c0.2,8.8-0.3,17.6,0.3,26.3c0,0.4-0.2,0.8-0.3,1.1C85.7,109.3,84.9,109.3,84.1,109.3z"/>
	<path class="st100" d="M70.2,107.6c0.1,0.5,0.2,1,0.2,1.5c-1,0.5-2.1,0.3-3.2,0.2c0-0.2,0.1-0.5,0.1-0.7
		C67.7,106.6,68.5,105.9,70.2,107.6z"/>
	<path class="st48" d="M52.9,62c5.4,4.6,5.6,11.4,7.6,17.5c0.5,1.6,1,3.2,2.1,4.5c0.7,0.8,0.6,1.4-0.1,2c-0.8,1.4-2.1,1.3-3.4,1.3
		c-3.5,0.1-6.9,0-10.4,0.1c-3.1,0.1-3.3,0.3-3.3,3.5c0.1,0.8,0.4,1.7-0.4,2.3c-0.2,1.8-0.3,3.6-0.5,5.4c-2.1-1.9-3.3-4.2-3-7.1
		c0.7-9,0.8-18.1,6.6-25.8C49.3,63.9,50.4,62,52.9,62z"/>
	<path class="st48" d="M110.6,58.3c-3.3,0-6.5,0-9.8,0C104,57.6,107.3,57.3,110.6,58.3z"/>
	<path class="st101" d="M86.4,81.7c-0.8,0.1-1.5,0.2-2.3,0.3c-1.9-0.1-3.9-0.2-5.8-0.3c-0.4-0.2-0.4-0.4,0.1-0.5c2.5,0,4.9,0,7.4,0
		C86,81.3,86.2,81.5,86.4,81.7z"/>
	<path class="st102" d="M45,93.1c-0.2-0.5-0.3-1.1-0.5-1.6c0.7-1.4,2.1-1.4,3.4-1.4c5.4-0.1,10.9-0.1,16.3,0c1.3,0,2.6,0.1,3.4,1.4
		c0.2,0.6,0.1,1.2-0.4,1.6C59.7,93.1,52.3,93.1,45,93.1z"/>
	<path class="st103" d="M67.1,93.1c0.1-0.4,0.1-0.8,0.2-1.3c0.2-0.4,0.6-0.6,1-0.6c1.5-0.9,2-0.2,1.9,1.2c0,2.7-0.1,5.4-0.1,8
		c-0.6,0.6-1.3,0.8-2.1,0.5c-0.3-0.2-0.5-0.4-0.7-0.6C67.3,97.9,67.2,95.5,67.1,93.1z"/>
	<path class="st104" d="M67.4,100.3c0.2,0.1,0.3,0.1,0.5,0.1c1,0.7,1.3,2.1,2.2,2.9c0,1.4,0,2.8,0,4.2c-1.1-0.1-2.3-0.5-2.8,1.1
		C67.2,105.9,67.1,103.1,67.4,100.3z"/>
	<path class="st105" d="M55.7,97.4c-0.6,0-1.2,0-1.8,0c-0.7,0-1.5-0.2-1.5-1.1c0-1.1,0.8-1.2,1.7-1.3c1.1,0,2.2-0.1,3.3,0
		c0.9,0,2-0.1,2.1,1.1c0,1.5-1.3,1.2-2.2,1.3C56.7,97.4,56.2,97.4,55.7,97.4L55.7,97.4z"/>
	<path class="st106" d="M123.1,139.5c-0.4,1.3-4,2.8-5.7,2.2c-2.1-0.7-1.1-3.5-1-3.6c1.6-2.2,4.1-0.7,6.2-1c1.3-0.2,2.1,0.6,1.3,2.1
		c0,0.1-0.1,0.1-0.2,0.2C123.4,139,123.2,139.1,123.1,139.5z"/>
	<path class="st107" d="M123.1,139.5c-0.6-0.2-1.5,0-1.4-1c0-0.3,0.5-0.7,0.8-0.7c1.2-0.1,1.2,0.8,1.1,1.6
		C123.5,139.4,123.3,139.4,123.1,139.5z"/>
	<path class="st108" d="M126.7,86.6c2.4-0.9,4.8-0.8,7.2,0c-1,0.1-2,0.1-3.4,0.2c2,1.9,1.6,3.5-0.1,4.9c-0.8,0.7-0.7,1.8-0.7,2.8
		c-0.1,1.4-0.6,2.7-2.2,2.7c-1.4,0-1.9-1.3-2-2.6c-0.1-2.5-0.5-5,1.9-6.9C128.8,86.6,127.3,86.7,126.7,86.6z"/>
	<path class="st109" d="M162.4,89.8c-0.1,0.5-0.3,1-0.4,1.5c-0.7,0.5-0.6,1.3-0.6,2c-0.5,0.4-0.5,0.9-0.4,1.4
		c0.2,0.1,0.2,0.3,0.2,0.5s0,0.3-0.1,0.3c-0.2,0.2-0.5,0.2-0.7,0.1c-7.9-4-11.6-11.4-15-19c-0.7-1.6-1.2-3.3-1.9-5
		c3.2,0.4,5.1,2.3,5.9,5.2c1.1,4.1,3.1,7.7,5.4,11.2c0.5,0.8,0.8,1.6,2,1.4c0.8-1.1,1.7-2.2,2.8-3c1.5-0.5,1.7-2.8,3.7-2.5
		c0.2,0.2,0.4,0.4,0.6,0.7c0.2,0.4,0.2,0.9,0.2,1.3c0,0.5,0,0.9-0.1,1.3c-0.3,0.7-0.4,1.4-0.8,2.1C163,89.7,162.8,89.8,162.4,89.8z"
		/>
	<path class="st110" d="M160.3,95.6c0.2,0,0.3-0.1,0.5-0.1c4.6,0.9,9.3,1.1,13.9,2c0,0.4,0,0.7-0.1,1.1c-1.3,1.4-3,0.7-4.5,0.9
		c-3.4-0.3-6.8-0.5-9.8-2.5c-0.1-0.1-0.3-0.1-0.4-0.1C160.1,96.4,160.2,96,160.3,95.6z"/>
	<path class="st111" d="M160.3,87.5c-0.9,1.1-2,1.9-3.6,1.9c-0.6-2.3-1.3-4.7-1.9-7c0.2,0,0.4,0,0.6,0c0.8,0,1.6,0.2,2-0.8
		c1-1,0.4-2.8,2-3.5c0.9-0.3,1.9-0.3,2.7,0.3c1.5,2.4-0.5,4.5-0.7,6.7C161.3,85.9,160.5,86.6,160.3,87.5z"/>
	<path class="st112" d="M160.4,97c3.2,0.3,6.1,2.1,9.4,1.7c1.2,0.5,2.5,0.1,3.8,0.2c0.5,0.1,1.3-0.1,1.1,0.9
		c-0.2,0.2-0.4,0.4-0.6,0.6c-3.9-0.1-7.7-0.3-11.5-1.5C161.6,98.6,160.3,98.5,160.4,97z"/>
	<path class="st113" d="M191.5,114.8c-1.7-0.2-2.9-1-2.9-2.8s1-3.2,2.9-3.2s3.3,1.2,3.3,3.2S193.3,114.7,191.5,114.8z"/>
	<path class="st114" d="M122.5,73.2c0,0.5-0.2,1-0.7,1.2c-0.5,0.3-1,0.1-1.3-0.3c-2-2.5-4-5-6-7.5c-0.5-0.6-0.5-1.3,0.2-1.8
		c0.6-0.5,1.2-0.4,1.6,0.1c2,2.6,4.1,5.2,6.1,7.8C122.4,72.8,122.5,73,122.5,73.2z"/>
	<path class="st115" d="M139.9,48.8c1.8-0.1,1.5,1.4,1.5,2.3c0,2.8,1.1,4,3.9,3.7c0.8-0.1,1.9-0.2,2.2,1c-2,1.2-4.2,0.8-6.4,1.2
		c-1.5,0.2-2-0.9-1.9-2.3C139.5,52.8,139.7,50.8,139.9,48.8z"/>
	<path class="st116" d="M184.8,78.3c0.6,0.4,1.3,0.8,1.9,1.3c-1.9,1.4-4,0.8-6,0.5c-7.1-1.1-14.4-0.9-21.5-1.6
		c-0.6,0.1-1.1,0-1.3-0.6c0.1-0.8-0.8-1.5-0.3-2.3c1.1-0.5,1.8,0.4,2.7,0.7c1.2,0.4,2.4,0.9,3.6-0.2C170.9,76,178,76.2,184.8,78.3z"
		/>
	<path class="st117" d="M157.8,77.9c0.4,0.1,0.8,0.2,1.2,0.3c0.3,0.1,0.4,0.1,0.3,0.3c-0.1,0.1-0.1,0.2-0.2,0.2
		c-0.6,1,1.3,3.1-1.4,3.2c-1.2-0.2-1.5-0.8-1.1-1.9c0-0.3,0-0.7,0-1C157.1,78.6,157.4,78.3,157.8,77.9z"/>
	<path class="st118" d="M163.3,77c-2.3,0.9-3.9-0.7-5.7-1.4c0-0.3,0-0.5,0-0.8c1.9-0.3,3.2,1.6,5.1,1.6
		C163.2,76.1,163.4,76.4,163.3,77z"/>
	<path class="st119" d="M156.7,80c0.4,0.6,0.7,1.3,1.1,1.9c0.1,0.9,1.3,2,0,2.5c-1.5,0.6-1.7-1.2-2.3-2.1c-0.1-0.9-1.4-1.7-0.6-2.7
		C155.4,79,156.1,79.8,156.7,80z"/>
	<path class="st120" d="M159.1,78.7c-0.1-0.2-0.1-0.3-0.1-0.5c9.3-0.7,18.5,0.7,27.7,1.3c0.2,0.2,0.4,0.4,0.6,0.6
		c-0.2,0.3-0.4,0.6-0.7,0.8c-1.4,1.1-2.9,0.3-4.2,0.1c-5.5-0.6-11-0.9-15.1-1.3c2.4,0.1,6.1,0.4,9.8,0.8c3.3,0.3,6.6,0.4,9.9,1.3
		c-0.1,0.4-0.2,0.9-0.3,1.3c-2.3,1.1-4.8,1-7,0.4c-3.6-0.9-7.2-0.8-10.2-1.3c2.2-0.3,4.9,0.9,7.7,0.7c0.7-0.1,1.4,0.3,1.3,1.3
		c-0.7,0.8-1.7,1-2.7,1.3c-4.2,0-8.3,0-12.3-1.7c-1.1-0.7-1.3-1.6-1-2.8c0.2-0.8,0.3-1.6-0.3-2.2C161.1,78.8,160.1,78.8,159.1,78.7z
		"/>
	<path class="st121" d="M178.5,84.1c-4.7-1-9.6-0.6-14.2-2.6c7.4,0.6,14.9,1.2,22.3,1.8c-0.2,0.4-0.3,0.8-0.5,1.2
		C183.5,85.3,181,85.8,178.5,84.1z"/>
	<path class="st112" d="M186.9,81.9c-7.4-0.5-14.9-0.8-22.2-2.6c3.4,0.2,6.8,0.2,10.1,0.5c4,0.3,7.9,0.8,11.8,1.2
		C186.8,81.3,186.9,81.6,186.9,81.9z"/>
	<path class="st122" d="M178.5,84.1c2.5,0.1,5.1,0.2,7.6,0.4c0,0.3,0.1,0.5,0.1,0.8c-0.2,0.3-0.5,0.5-0.7,0.8
		c-2.4,1.2-8.3,0.5-9.6-1.1C176.6,84.1,177.6,84.2,178.5,84.1z"/>
	<path class="st32" d="M174.7,97.5c-4.7-0.1-9.4-0.1-13.9-2c0-0.2,0.1-0.5,0.1-0.7c4.6,1.4,9.6,0.8,14.2,2.5
		C175,97.4,174.9,97.4,174.7,97.5z"/>
	<path class="st123" d="M174.6,99.8c-1.4-1.2-3.4-0.1-4.9-1.1c1.6,0,3.3,0,4.9-0.1C175.1,99,175.3,99.4,174.6,99.8z"/>
	<path class="st124" d="M163.4,86c0-0.4,0-0.8,0.1-1.2c1.1-1.2,2.2-0.2,3.4-0.1c4.9,0.5,9.7,1.5,14.6,1.2c1.4-0.1,2.8,0.4,4,1.1
		c0.1,0.6,0,1.2-0.4,1.7c-5.8,1.4-11.4,0-17.1-1C166.4,87.5,164.4,87.9,163.4,86z"/>
	<path class="st125" d="M163.4,86c5.9,1.2,11.7,2.4,17.7,2.3c1.3,0,2.6-0.1,3.8,0.4c-0.2,0.3-0.4,0.6-0.6,0.9
		c-2.8,1.6-5.8,0.8-8.7,0.8c-3.3-0.1-6.7-0.6-9.9-1.3c-1-0.2-2.1-0.6-2.5-1.8C163.3,86.9,163.4,86.4,163.4,86z"/>
	<path class="st126" d="M185.4,87.1c-7.4-0.3-14.7-0.8-21.9-2.2c-0.1-0.3-0.2-0.7-0.3-1c0.1-0.1,0.2-0.2,0.2-0.3
		c4.2,0.4,8.3,0.8,12.5,1.3c3.2,0.4,6.4,0.8,9.6,1.1C186,86.4,185.7,86.7,185.4,87.1z"/>
	<path class="st127" d="M163.2,87.3c6.9,2.1,14,2.6,21.2,2.4c0,0.2,0.1,0.3,0.1,0.5c-0.3,0.3-0.5,0.5-0.8,0.8
		c-2.5,1.5-5.3,0.6-7.9,0.7c-3.5,0.1-6.9-0.5-10.3-1.3c-1-0.2-2.2-0.4-2.7-1.6C163,88.2,163.1,87.8,163.2,87.3z"/>
	<path class="st128" d="M162.8,88.7c6.8,2,13.8,2.6,20.9,2.2c0.2,0.7-0.2,1.2-0.7,1.6c-5.4-0.1-10.9,0.1-16.2-1
		c-1.5-0.3-3.2-0.4-4.3-1.7C162.6,89.5,162.7,89.1,162.8,88.7z"/>
	<path class="st129" d="M163.3,77c-0.2-0.2-0.5-0.4-0.7-0.7c0.9-1.5,2.4-1.1,3.8-1.2c6.8,0.7,13.7,1,20.4,2.5
		c-0.4,0.7-1.2,0.6-1.9,0.7c-5.5-0.6-11.1-1.2-16.6-1.7C166.6,76.5,164.9,76,163.3,77z"/>
	<path class="st130" d="M187,75.8c-0.6,0.8-1.3,0.6-2.1,0.4c-6.8-2-13.9-2.2-20.9-2.1c-0.4-0.4-0.8-0.8-1.3-1.1c0-0.2,0-0.4,0-0.6
		c0.2,0,0.4,0,0.5-0.1c0.9,0.9,2.1,0.5,3.1,0.5c5.8,0,11.5,0.5,17.2,1.6C184.7,74.6,186.1,74.7,187,75.8z"/>
	<path class="st131" d="M68.3,91.2c-0.3,0.2-0.7,0.4-1,0.6c-2.3-1-4.7-0.4-7-0.4c-5.3-0.1-10.5,0-15.8,0.1c-1.9-4.1-1.1-5.4,3.1-5.4
		c5,0,9.9-0.1,14.9-0.2c0.4,0,0.8,0.1,1.2,0.1C68.6,86.2,68.6,86.2,68.3,91.2z"/>
	<path class="st132" d="M78.4,81.2c-0.1,0.2-0.1,0.3-0.1,0.5c-0.3,0-0.6,0.1-0.9,0.1c-0.7,0-1.5-0.1-2.2-0.1c0.3-0.7,0.2-1.3-0.2-2
		c-2.2-3.8-4.4-7.5-6.5-11.4c-0.4-0.8-1.6-1.7-0.1-2.5c1.4-0.8,1.7,0.5,2.1,1.3C73.1,71.9,75.7,76.5,78.4,81.2z"/>
	<path class="st133" d="M70.1,103.4c-2.3,0.2-2.5-1.2-2.2-2.9c0.7,0,1.5,0,2.2,0C70.4,101.4,70.4,102.4,70.1,103.4z"/>
	<path class="st134" d="M58.4,96.2c-1.7,0.8-3.4,0.7-5.8,0.2C55,95.3,56.7,95.5,58.4,96.2z"/>
	<path class="st135" d="M163.4,83.6c-0.1,0.1-0.1,0.2-0.2,0.3c-1.1,1.1-1.4,2.8-2.9,3.7c0.2-3,0.4-5.9,1.8-8.6
		C164.7,79.9,162.6,82.1,163.4,83.6z"/>
</g>
</svg>
