<?xml version="1.0" encoding="utf-8"?>
<!-- Generator: Adobe Illustrator 23.0.5, SVG Export Plug-In . SVG Version: 6.00 Build 0)  -->
<svg version="1.1" id="Layer_1" xmlns="http://www.w3.org/2000/svg" xmlns:xlink="http://www.w3.org/1999/xlink" x="0px" y="0px"
	 viewBox="0 0 212.6 212.6" style="enable-background:new 0 0 212.6 212.6;" xml:space="preserve">
<style type="text/css">
	.st0{fill:#1B3B62;}
	.st1{fill:#1E557D;}
	.st2{fill:#A61E24;}
	.st3{fill:#D52527;}
	.st4{fill:#102B4E;}
	.st5{fill:#A22828;}
	.st6{fill:#A52025;}
	.st7{fill:#D32327;}
	.st8{fill:#356F94;}
	.st9{fill:#96CAEE;}
	.st10{fill:#377192;}
	.st11{fill:#377393;}
	.st12{fill:#CE2A2A;}
	.st13{fill:#94C9ED;}
	.st14{fill:#122D4E;}
	.st15{fill:#D12727;}
	.st16{fill:#132F4E;}
	.st17{fill:#245E7D;}
	.st18{fill:#132E50;}
	.st19{fill:#365B7C;}
	.st20{fill:#1C406A;}
	.st21{fill:#95CAEE;}
	.st22{fill:#2F4162;}
	.st23{fill:#225B7B;}
	.st24{fill:#8ABDE1;}
	.st25{fill:#1A5178;}
	.st26{fill:#2E6988;}
	.st27{fill:#E0F2EE;}
	.st28{fill:#C3E3E3;}
	.st29{fill:#477FA5;}
	.st30{fill:#C6E4E2;}
	.st31{fill:#87BED7;}
	.st32{fill:#1B416B;}
	.st33{fill:#336C94;}
	.st34{fill:#1A416A;}
	.st35{fill:#92B5D8;}
	.st36{fill:#1F3960;}
	.st37{fill:#2B6781;}
	.st38{fill:#19557E;}
	.st39{fill:#122D50;}
	.st40{fill:#87BADD;}
	.st41{fill:#649BC3;}
	.st42{fill:#437CA4;}
	.st43{fill:#95CAEA;}
	.st44{fill:#74A5C2;}
</style>
<g>
	<g>
		<path class="st0" d="M60,118.1c-0.5-3.1,0.4-6.2,0.9-9.1c1-5.3,1-5.3-4.6-5.3c-3.1,0-6.2,0-9.2,0c-2.7,0.1-4.4-1.2-4.6-3.8
			c-0.2-9.7-0.4-19.5-0.1-29.2c0.1-3.9,3.4-4.6,6.9-4.6c12.2,0,24.4,0,36.6,0c3.9,0,7.9,0,11.8,0c3.4,0,5.4,2,5.4,5.2
			c0.1,9.2,0,18.5-0.1,27.7c0,3.1-1.8,4.6-5,4.6c-6.7-0.1-13.3,0-20-0.1c-2.5-0.1-3.7,0.9-3.9,3.2c0,0.5-0.2,1-0.2,1.5
			c-1.2,7.6-1.2,7.6,6.3,7.9c1.7,0,3.6-0.1,4.2,2.1c-0.6,2-2.3,2-3.9,2.1c-5.5,0.2-11,0.2-16.5,0C62.3,120.1,60.7,120,60,118.1z"/>
		<path class="st1" d="M153.5,83.5c3.6,0.2,7,0.7,9.9,3.3c3,4.7,2.6,10.3,4.2,15.4c0.2,0.6,0,1.2,0.2,1.8c3.1,5.9,0.2,10.1-3.8,14
			c-0.4,0.4-0.7,0.7-1.1,1c-5.7,0.7-11.2,1.7-17,1c-0.4,0-0.9,0-1.4,0c-3.4,0.2-6.9-0.2-10.1-1.6c-1-0.9-1.7-1.8-1.5-3.2
			c1.1-2.5,3.3-4.7,2.6-7.3c-0.2,4.1-0.7,4.6-5.4,5.7c-3.1,0.7-6.2,1.7-8.1,4.4c-0.4,0.5-1.1,0.6-1.7,0.6c-5.7-2.3-11.7-1-17.6-1.5
			c-1.4-0.1-2.8,0.2-3.8-1.1c0.2-0.2,0.5-0.4,0.7-0.6c2.3-1.4,5.3-0.2,7.6-1.7c5-1,10.2-0.9,15.1-2.7c4.1-1.6,6.3-4.1,6.3-8.5
			c0-2.6,0.4-5.2,0.6-7.8c0.6-6,3.4-9.4,9.6-11.1c4.2,4.1,8.4,4.2,12.7,0.1C152.1,83.5,152.9,83.5,153.5,83.5z"/>
		<path class="st2" d="M145.1,118.4c5.9-0.2,11.8-0.4,17.6-0.6c1.8-0.2,3.2-2,5.2-1.8c1.6,0.4,3.4,0.2,4.7,1.7
			c5.9,0.1,11.8,0.2,17.6,0.5c1.7,0,3.4-0.2,3.6,2.5c0,2.8-1.7,2.7-3.4,2.5c-3.7-0.5-4.4,1.1-4.4,4.6c0.1,23.6,0.1,47.2,0.1,70.8
			c0,1.6,0.6,3.8-2.2,3.7c-2.6-0.1-1.8-2.2-1.8-3.7c0-23.9,0-47.8-0.1-71.6c0-1.4,0.7-3.4-1.4-3.7c-2.2-0.4-4.7-0.7-6.9,0.4
			c-1.1,0.6-0.6,2-0.6,3.1c-0.1,5.2,0.2,10.3-0.5,15.4c-2-0.5-1.8-2.1-2-3.4c-0.2-3.1,0-6.2-0.1-9.1c0-1.6,0-3.4-2-3.8
			c-2-0.2-2.2,1.5-2.6,2.8c-0.2,0.9-0.5,1.6-1.4,2.1c-0.6,0.2-1.1,0-1.6-0.2c-1.2-1.1-1-3-2.1-4.1c-0.7-0.6-1.5-0.7-2.2-0.1
			c-0.1,0.2-0.4,0.5-0.5,0.7c-1.1,6.8-1.5,13.5-0.2,20.3c0.4,2.6,0.2,5-1.7,7c-0.7,11.7-0.1,23.4-0.4,35.1c0,2.7,0.1,5.3,0.2,8
			c1.7,1.7,0.9,3.2-0.4,4.6c-1.2,0.7-2.6,0.9-3.9,0c-1.7-1.2-1.7-3.2-2.1-4.9c0-1,0.5-1.7,0.5-2.7c0.1-11.9-0.2-23.9,0.1-35.8
			c0-1-0.1-2.2-1.4-2.8c-0.4-0.2-0.6-0.5-0.7-0.9c1.2-2.7-1.1-5-0.5-7.8c1.7-1.6,2.1-3.7,2.1-5.9c0-3.4-0.1-7,0.2-10.5
			c0.1-3.4-0.9-6-4.9-6.2c-0.9,0-1.6-0.5-2.1-1.2C142.5,121.1,143.5,119.6,145.1,118.4z"/>
		<path class="st0" d="M151.6,130.3c0,4.7,0,9.4,0.2,14c0.1,3-1,4.1-3.8,3.7c-1.2,1.7-2.8,1-4.4,0.7c-5.8-3.2-11.9-5.7-18-8.3
			c-1.2-0.5-3-1-4.3,0.2c-4.1,3.2-7,6.8-7.6,12.4c-0.4,3.8-3.8,6.5-6.7,9.4c-1,1-2.5,1.6-2.5,3.4c-1,1.4-1.8,2.8-3.7,3.2
			c-3.8,0.2-4.8-0.7-4.3-4.4c1.7-3.1,3.6-6.3,5.3-9.4c3-3.2,3.6-7.3,4.6-11.2c0-0.7,0-1.6,0.5-2.2c1.5-1.7,2.5-3.8,3.4-5.8
			c4.6-9.1,12.3-10.6,21.3-9.7c1.6-0.1,3,0.5,4.4,1c3.9-1.4,7.8,0.1,11.6,0.7C149.3,128.5,150.6,129,151.6,130.3z"/>
		<path class="st3" d="M145.1,118.4c0,1.6,0,3.3-1.5,4.4c-2,2.5-4.1,1.6-6.2,0.2c-20.6,0-41.3-0.1-61.8-0.1c-6.2,0-12.3,0-18.4,0
			c-1.7,1.7-3.4,1.1-5.2-0.1c-7.8,0-15.4,0.1-23.2,0.1c-1.5,1.4-2.8,1.4-4.3,0c-1.2,0-2.5-0.1-3.7-0.1c-1.8,0-2-1.4-2.1-2.8
			c0-1.6,0.9-2.1,2.2-2.1c4.7,0,9.4-0.1,13.9-0.1c8.4,0,16.6,0.1,25,0.1c8.1,1,16.1,0.9,24.3,0c3.1,0,6.2-0.1,9.2-0.1
			c0.9-0.7,2-1,3.1-0.9c6.3,0.5,12.4,0.2,18.7,0.2c2.3,0,4.7,1.6,7,0.2c3.9-0.2,7.9-2.3,11.8,0.1
			C137.7,118.7,141.5,117.5,145.1,118.4L145.1,118.4z"/>
		<path class="st0" d="M116.6,188.6c-0.2-1-0.4-2,0.1-3c1.6-8.4,2.1-16.6,0.6-25.1c-0.6-3.7-1.1-7.5-0.1-11.2
			c0.4-1.2,0.1-2.1-0.5-3.1c-0.5-3.2,2.2-4.1,4.1-5.7c2.5-1.1,4.9-0.4,7,0.7c3.7,1.8,7.4,3.8,9.5,7.8c0.1,2.1-1,3.1-3,3.4
			c-1.5,0.2-2.8,0.5-3.7,2c0.6,11.6-3.3,22.4-5.3,33.6c-0.5,3.1-2.7,2.1-4.6,2.3C118.9,191.7,117.4,191,116.6,188.6z"/>
		<path class="st4" d="M129.3,63.3c-2.5-2.8-1.1-5.7,0.5-8c3.9-5.8,9.7-7.6,16.6-5.7c1.5-0.5,2.5,0.1,3.6,1.1c3.7,3.2,6,7,5.3,12.2
			c1,7.4-1.1,11.6-6.5,13.5c-2.5-1.2-2.7-1.8-1-4.2c1-1.4,2.5-2.6-0.2-3.6c-0.9-0.1-1.7-0.2-2.5-0.7c-1.7-2.6-4.3-3.8-7.1-4.4
			C135.1,62.7,132.3,61.2,129.3,63.3z"/>
		<path class="st5" d="M52,122.9c1.7,0,3.4,0.1,5.2,0.1c-0.7,7.8-0.2,15.5-0.4,23.2c-0.1,17,0,34,0,51c0,0.6,0,1.2,0,1.8
			c0,1.5-0.6,2.3-2.2,2.3c-1.6,0-2-1.1-2-2.5c0-4.7,0-9.4,0-14c0-19.5,0-38.9,0-58.4C52.6,125.3,52.7,124,52,122.9z"/>
		<path class="st6" d="M24.5,123.1c1.5,0,2.8,0,4.3,0c-0.1,10.1-0.2,20.2-0.2,30.3c0,14.5,0,29.1,0,43.6c0,0.7,0,1.5,0,2.2
			c0,1.4-0.7,2-2.1,2c-1.2,0-1.7-0.7-1.7-1.8c0-2.2,0-4.4,0-6.7c0-22.2,0-44.3,0-66.4C24.8,125,24.6,124,24.5,123.1z"/>
		<path class="st7" d="M156.1,154.1c0.4-2.3-1.2-4.8,0.7-6.9c-0.1-1.2,0.6-2.1,1.6-2.7c3.2-2.1,4.1-5.3,4.1-8.9
			c0-1.8-0.5-4.1,1.7-5.3c0-1,0.1-2,0.1-3c0-4.3,0.6-4.8,4.9-4.6c2.3,0.1,3.2,1.2,3.2,3.4c0,5.3,0.1,10.5,0.1,15.8
			c0,8.9-3.1,11.9-12.1,12.1C159,154.2,157.5,154.1,156.1,154.1z"/>
		<path class="st8" d="M151.6,196.8c0,1.7,0.1,3.4,0.1,5.2c-6.3,0-12.6,0.1-18.8,0c-1,0-2.6,0.5-2.8-1c-0.2-1.2,1.1-1.7,2.1-2.2
			c0.6-0.4,1.2-0.7,2-1c7.5-2.3,10-7.5,9.6-15.3c-0.5-9.4-0.1-18.6-0.1-28c0-1,0.7-0.9,1.4-0.9c2.5,0.2,2.5,2,2.5,3.9
			c0.2,8.6,0.4,17.4,0,26C147.3,188.7,149,192.8,151.6,196.8z"/>
		<path class="st9" d="M147.8,67.4c1.7-1.6,3-0.6,3.8,1c1,1.8,0.1,3.6-1.6,4.2c-2.3,0.9-3.1,1.8-1.2,3.9c-0.5,3.7,2.2,5.2,4.7,7
			c-1.1,3.1-3.4,4.6-6.4,5.3c-4.7,1.2-7-0.2-8-5c0.2-0.2,0.6-0.5,0.9-0.7c0.5-0.4,0.9-0.9,1.1-1.4c-0.5,0-1-0.1-1.5-0.2
			c-0.6,0-1.2,0-1.8,0.1c-5.2-0.2-6.2-4.4-7.4-8.3c0.1-0.4,0.2-0.7,0.5-1c2.8-0.6,5.3-3.1,8.6-1.5c0.9,0.4,2.1-0.2,2.6-1.1
			c1.2-2.1,3.3-1.8,5.2-1.8c0.1,0.1,0.4,0.1,0.5,0.1C147.6,67.6,147.7,67.5,147.8,67.4z"/>
		<path class="st10" d="M89.7,16.6c-7.9-0.2-15.6,0-23.5-0.7c-1.8-0.1-3.7,0.5-5.4,0.5c-1.2,0-2.6-0.1-2.7-1.8
			C58,12.9,59,12.1,60.6,12c1.5-0.1,3-0.1,4.4,0c13.2,1.1,26.5,0,39.7,0.2c1.6,0,3.4-0.5,3.3,2.1c-0.1,2.3-2,2.2-3.4,2.2
			C99.5,16.6,94.6,16.6,89.7,16.6z"/>
		<path class="st10" d="M100.6,31.3c-7,0-13.9-0.4-20.9,0.1c-6.4,0.4-12.7,0.1-19.1,0.1c-1.4,0-2.5,0-2.6-1.7
			c-0.1-2.2,1.4-1.8,2.7-1.8c12.3,0.2,24.8-0.9,37.1-0.1c2.7,0.1,5.3-0.4,8,0c1.4,0.1,2.1,0.6,2.1,2c0.1,1.6-0.9,2.2-2.2,2.2
			c-1.7,0-3.4,0-5.2,0C100.6,31.8,100.6,31.5,100.6,31.3z"/>
		<path class="st11" d="M83.6,43c6.7,0,12.9,0,19.2,0c1.4,0,2.7,0.1,4.1,0.4c1.2,0.2,1.4,1.2,1.2,2.3c-0.1,1.1-0.9,1.4-1.8,1.4
			c-3.3,0-6.5,0.1-9.9,0.1c-9.9,0-19.7-0.1-29.6-0.2c-2,0-3.9-0.2-5.8,0.2c-1.4,0.4-2.6-0.2-2.7-1.7c-0.2-1.6,1.2-1.6,2.2-1.7
			C68.2,42.5,76.1,43.4,83.6,43z"/>
		<path class="st12" d="M172.6,117.6c-1.6-0.1-3.6,1.6-4.8-0.9c-0.5-0.6-0.9-1.2-0.6-2c2.6-6.9-0.1-13.4-1.4-20.1
			c-0.4-2.1-1.2-4.2-0.6-6.4c3.6-0.5,5.5,1.1,6.5,4.4c1.6,5.7,1,11.5,1.1,17.2C172.8,112.6,172.7,115.2,172.6,117.6z"/>
		<path class="st4" d="M147.9,48.3c2-3,4.7-4.1,7.9-3c3.8,1.2,5.5,4.1,6,8c0.5,3.7-1.1,6.2-4.4,7.6c-1,0.5-1.8,0.2-2-0.7
			c-0.9-4.8-3.6-8.1-7.4-10.8C147.8,49.2,147.8,48.7,147.9,48.3z"/>
		<path class="st13" d="M116.6,188.6c1.5,0.6,3,1.2,4.4,1.8c4.2,1.1,4.3,1.2,3.2,6.5c-1.4,2.1-3.4,3.1-5.8,3.3
			c-3.3,0.2-6.5,1.4-10,0.6c-2-0.5-4.2-0.9-4.6-3.4c0.7-1.1,2.1-1.1,3.2-1.4c3.2-0.7,6.7-1.2,7.8-5.2
			C115.5,190.1,116.2,189.3,116.6,188.6z"/>
		<path class="st14" d="M97.2,174.2c-2.2,3.2-5.7,3.9-8.3,1.2c-3.4-3.7-6.4-7.6-9.6-11.6c-1-1.2-2-3-0.4-4.3
			c1.5-1.2,2.6,0.5,3.7,1.4c1.6,1.1,2.2,2.8,3,4.6c2.7,1.8,5.5,3.3,8.6,4.7C96,170.7,97.6,171.8,97.2,174.2z"/>
		<path class="st15" d="M144.6,154.5c-0.2,0-0.6,0-0.9,0.1c-4.2-0.4-8.5-0.5-12.7-0.1c-0.4-2,1-2.5,2.5-3.1c1.2-0.5,2.5-1.1,3.7-1.7
			c1.1-3.3,3.8-3,6.4-2.6c1.5,0.4,3,0.7,4.4,1c1.4,1,3.8,0.5,3.7,3.3c-0.1,2.1-1.2,2.7-3,2.8C147.4,155.3,146,153.8,144.6,154.5z"/>
		<path class="st16" d="M104.1,197.3c6.9,4.2,13.5,1.4,20.3-0.4c0.6,3-1.1,4.6-3.7,4.8c-4.8,0.5-9.5,0.6-14.3,0.9c-1,0-2,0-3-0.2
			c-2-0.7-5.3-0.7-4.8-3.6C99,196.5,102.1,197.3,104.1,197.3z"/>
		<path class="st1" d="M137.5,123.2c2.1-0.1,4.1-0.2,6.2-0.2c0.5,0,1,0.1,1.5,0.1c7.1,0.1,7.1,0.1,6.5,7.3c-5.3,0-10.3-1.4-15.4-2.8
			C138.7,126.6,137.3,124.7,137.5,123.2z"/>
		<path class="st17" d="M117.6,145.7c1.7,0.2,2.2,1.2,1.6,2.8c-1.5,4.2-0.9,8.5-0.5,12.7c0.9,8.3,0.5,16.4-2,24.4
			c0.7-9,0.9-17.9-0.5-26.7c-0.2-1.4,0.1-2.8-1.5-3.4C113.1,151.1,114.3,147.1,117.6,145.7z"/>
		<path class="st18" d="M117.6,145.7c-2,3-1.7,6.5-2.8,9.7c-2.6,4.3-6.5,7.3-10.2,10.5c-1-1.2-0.1-2,0.6-2.8
			c3.8-4.3,7.1-8.7,8.1-14.8c0.7-3.8,4.6-5.8,7.3-8.4c0.7,0.2,1.1,0.6,0.7,1.5C119.7,142.4,118,143.5,117.6,145.7z"/>
		<path class="st19" d="M148.1,68.2c-2.1,0.1-4.2,0.2-5.2,2.6c-0.2,0.5-1,1.2-1.4,1.1c-3.6-0.5-7.1,2.7-10.7,0.2
			c-3.7-2.7-3.9-3.8-1.4-7.5c0.9-1.2,2.1-2.1,3.7-1.6c2.1,0.7,4.1-0.1,6,0c2.6,0.2,4.3,2.3,6.4,3.4c0.5,0.9,1.4,0.9,2.2,0.9
			C147.8,67.6,147.9,68,148.1,68.2L148.1,68.2z"/>
		<path class="st20" d="M165.2,88.3c4.1,9.2,4.3,18.7,2.6,28.5c-1.5,1.4-3.2,1.7-5,1.1c0.1-0.2,0.2-0.5,0.4-0.6
			c4.7-4.4,5.7-9.6,3-15.5c-2.1-4.7-1.7-10-2.8-14.9C163.9,87.3,164.6,87.8,165.2,88.3z"/>
		<path class="st21" d="M97.2,174.2c-2.2-1.8-4.8-3.1-7.3-4.4c-1.8-1.1-3.6-2.2-4.3-4.3c0.4-0.7,0.2-2,1.6-1.2c2,2.1,4.3,2.8,6.9,1
			c0.9-0.1,1.6-0.2,2.5-0.4c0.9,2,2.6,3.2,4.3,4.4C100.6,171.6,99.5,173.3,97.2,174.2z"/>
		<path class="st22" d="M122.8,117.9c-9.7,0.5-19.6,0.4-29.3,0c0.7-3.8,3.4-1.7,5.4-1.8c7.4,0.6,15-0.9,22.4,1.4
			c0.5-0.2,0.9-0.2,1.4,0C122.7,117.6,122.8,117.8,122.8,117.9z"/>
		<path class="st10" d="M49.8,13.9c-0.1,2.8-1.6,4.3-4.2,4.3c-2.5,0-3.8-1.6-3.9-4.1c0-2.3,1.4-4.1,3.7-4.2
			C48,9.9,49.3,11.6,49.8,13.9z"/>
		<path class="st10" d="M45.7,41.4c2.5,0.2,3.8,1.5,3.8,3.9c0,2.5-1.6,3.9-3.9,3.9c-2.5,0-3.9-1.6-3.9-3.9
			C41.6,43,43.1,41.6,45.7,41.4z"/>
		<path class="st11" d="M45.7,25.3c2.3,0.4,3.8,1.7,3.7,4.2s-1.8,3.7-4.2,3.7c-2.3-0.1-3.4-1.8-3.4-3.9
			C41.8,26.6,43.4,25.5,45.7,25.3z"/>
		<path class="st23" d="M131.8,126.5c-5-0.9-9.4,2-14,3c-2.1,0.5-3.2,2.1-4.2,3.8c-1.8,3.1-3.8,6.3-6.5,8.7
			C110.1,129.6,120.1,123.3,131.8,126.5z"/>
		<path class="st24" d="M139.1,63.8c-3.2,1.6-3.2,1.6-7.5,0.7c-0.7-0.1-1.5,0.1-2.2,0.1c0-0.5,0-0.9,0-1.4c0.2-0.9,0.2-1.7,0.6-2.5
			c0.9-1.8,1.8-3.2,3.9-1c1.1,1.1,3,1.6,4.4,2.3C138.8,62.7,139.6,62.9,139.1,63.8z"/>
		<path class="st25" d="M147.9,48.3c4.3,2.5,7.5,5.8,8.3,11c0.1,0.7,0.7,1.2,1.4,1.6c-0.9,0.5-2,0.9-2.2,2.1
			c-1.4-5.5-3.3-10.6-8.9-13.3C146.9,49.2,147.4,48.8,147.9,48.3z"/>
		<path class="st26" d="M155.7,201.9c0.1-1.5,0.2-3.1,0.4-4.6c0.1,0,0.2,0,0.4,0.1c1.8,0.6,4.9,1,4.6,3.3
			C160.5,203.2,157.5,201.6,155.7,201.9z"/>
		<path class="st27" d="M114.9,190.7c1.6,1.1,0.6,2.2-0.2,3c-2.1,2-4.4,3.3-7.5,2.2C109.9,194.4,112.8,193.1,114.9,190.7z"/>
		<path class="st23" d="M106.5,144.1c0.1,4.4-0.5,8.5-4.6,11.2C103.5,151.6,104.9,147.9,106.5,144.1z"/>
		<path class="st28" d="M130.3,73.3c2.2,3,3,7.1,7.4,8.3C133.1,82,130.4,79.1,130.3,73.3z"/>
		<path class="st29" d="M139.6,81.4c1.8-1.1,3.6-2.2,6.2-3.9c-1.4,3.7-3.3,5-5.9,5.5C139.7,82.4,139.7,81.9,139.6,81.4z"/>
		<path class="st30" d="M94.1,165.1c-2.3,3-4.9,2.6-6.9-1C89.4,165.2,91.8,165.2,94.1,165.1z"/>
		<path class="st31" d="M107.3,113.8c0.4,1.7-0.7,1.7-2,1.7c-2,0-3.8,0-5.8,0C102,113.9,104.6,113.4,107.3,113.8z"/>
		<path class="st32" d="M122.7,117.6c-0.5,0-1,0-1.4-0.1c0.7-2.5,2.8-3.6,5-3.9c5-0.7,7.9-3.3,8.7-8.4c0.1-0.9,0.1-2,1.5-2.7
			c1,3.4,0.2,7,1,10.5c0.4,1.5-2.6,1.2-3.8,2c-1.1,2-3.2,1.4-4.8,1.5C126.7,116.6,124.8,117.6,122.7,117.6z"/>
		<path class="st33" d="M157.5,102.2c0.1-1-0.2-2,0.6-2.8c4.2,3.8,3.2,11-2,12.6c-4.4,1.5-9,2.8-14.7,2.7c2.3-2.8,5.3-1.5,7.1-2.8
			c1.2-1.4,3.1-1.2,4.6-2c2.2-1,4.3-2,3.3-5.2C156.3,103.7,156.8,102.9,157.5,102.2z"/>
		<path class="st34" d="M157.5,102.2c0.2,1.2,0.5,2.3,0.6,3.6c0.4,2.2-0.5,3.8-2.8,4.3c-2.2,0.6-4.4,1.1-6.7,1.7
			c-0.6-0.1-1.5,0.2-2.1-1.2c6.7,0,9.9-3.4,9.4-10C157.3,100.8,156.9,101.9,157.5,102.2z"/>
		<path class="st35" d="M122.7,117.6c3.1-3.1,7-2.8,11-2.7c0.4,1,0.7,2,1,3c-0.1,0.2-0.4,0.4-0.6,0.5c-3.7-0.1-7.4-0.2-11.1-0.4
			C122.9,117.8,122.8,117.6,122.7,117.6z"/>
		<path class="st2" d="M134,118.4c0.2-0.1,0.5-0.4,0.6-0.5c3.4,0.5,7-0.5,10.5,0.6C141.4,118.6,137.7,118.7,134,118.4z"/>
		<path class="st36" d="M164.2,130.3c0.1,1.5,0.1,3,0.2,4.3c0.4,7.1-1,9.4-7.5,12.4c-0.6-0.4-1.1-1-1.1-1.7c0-7.3-0.5-14.5,0.4-21.8
			c0.1,0,0.2,0,0.4,0.1c1.5,3.1,3.9,5,7.1,5.8C163.7,129.8,163.9,130.1,164.2,130.3z"/>
		<path class="st37" d="M148.5,154.6c0,10.7,0,21.6,0,32.3c0,2.8-0.2,6,3,7.8c0,0.7,0.1,1.5,0.1,2.2c-3.7-2.6-5.3-6-5.2-10.7
			c0.2-9.1,0.1-18.2,0.1-27.3c0-1.7,0.4-3.6-1.8-4.3c1.4-0.1,2.7-0.1,4.1-0.2C148.5,154.3,148.5,154.3,148.5,154.6z"/>
		<path class="st38" d="M163.6,129.6c-0.9,0.2-1.6,0.5-2.5,0.6c-4.2,0.5-4.8-0.1-4.9-4.4c0-0.7-0.1-1.5-0.1-2.2l0.1-0.1
			c2.3-0.4,4.8-0.4,7.1,0C163.3,125.5,163.4,127.6,163.6,129.6z"/>
		<path class="st36" d="M163.3,123.5c-2.3,0-4.8,0-7.1,0C158.5,122.7,160.9,122.6,163.3,123.5z"/>
		<path class="st39" d="M121.3,141.4c-0.2-0.5-0.5-1-0.7-1.5c0.7-1,1.7-1.4,2.8-1.1c7,1.8,13.8,4.4,20,8.3c-2.2,0.7-4.1,2.3-6.4,2.6
			c-1.8-1.5-3.8-2.7-5.4-4.4C128.7,142.4,125.4,141,121.3,141.4z"/>
		<path class="st40" d="M139.1,63.8c-0.2-0.5-0.5-1-0.7-1.5c2.8,0.7,5.5,1.6,7.3,4.2C142.6,67.4,141.8,63.4,139.1,63.8z"/>
		<path class="st41" d="M137.1,76.5c-0.1,0.7-0.6,1-1.2,1.1c-0.9,0.1-1.8,0.1-2.1-0.9c-0.2-0.7,0.6-1,1.2-1
			C135.7,75.8,136.6,75.5,137.1,76.5z"/>
		<path class="st42" d="M147.9,68.2c1.4-0.1,2.5,0.1,2.1,2c-0.1,0.7-0.9,1.6-1.4,1.4C147.1,70.8,148.1,69.4,147.9,68.2
			C148.1,68.2,147.9,68.2,147.9,68.2z"/>
		<path class="st43" d="M139.6,71.1c-1.8-0.1-2.6-1.1-2.7-2.6c-0.1-1.7,0.9-3,2.5-3c1.5,0,3,0.9,2.8,2.7
			C142.1,69.8,141,70.8,139.6,71.1z"/>
		<path class="st44" d="M131.2,66.6c1,0.1,2.5,0.1,2.3,2c-0.1,1-0.6,2.2-1.8,2.3c-1.7,0.1-2.2-1.2-2.3-2.6
			C129.1,67.5,129.2,66.3,131.2,66.6z"/>
	</g>
	<path class="st10" d="M105.4,17.5h-45c-1.7,0-3.1-1.4-3.1-3.1l0,0c0-1.7,1.4-3.1,3.1-3.1h45c1.7,0,3.1,1.4,3.1,3.1l0,0
		C108.5,16.1,107.2,17.5,105.4,17.5z"/>
	<path class="st10" d="M105.4,32.3h-45c-1.7,0-3.1-1.4-3.1-3.1l0,0c0-1.7,1.4-3.1,3.1-3.1h45c1.7,0,3.1,1.4,3.1,3.1l0,0
		C108.5,30.9,107.2,32.3,105.4,32.3z"/>
	<path class="st10" d="M105.4,48.4h-45c-1.7,0-3.1-1.4-3.1-3.1l0,0c0-1.7,1.4-3.1,3.1-3.1h45c1.7,0,3.1,1.4,3.1,3.1l0,0
		C108.5,47.1,107.2,48.4,105.4,48.4z"/>
</g>
</svg>
