<?xml version="1.0" encoding="utf-8"?>
<!-- Generator: Adobe Illustrator 23.0.5, SVG Export Plug-In . SVG Version: 6.00 Build 0)  -->
<svg version="1.1" id="Layer_1" xmlns="http://www.w3.org/2000/svg" xmlns:xlink="http://www.w3.org/1999/xlink" x="0px" y="0px"
	 viewBox="0 0 212.6 212.6" style="enable-background:new 0 0 212.6 212.6;" xml:space="preserve">
<style type="text/css">
	.st0{fill:#E12729;}
	.st1{fill:#F18693;}
	.st2{fill:#911A23;}
	.st3{fill:#BA2028;}
	.st4{fill:#1B557A;}
	.st5{fill:#1C577A;}
	.st6{fill:#1B3D61;}
	.st7{fill:#1B3C60;}
	.st8{fill:#1D587A;}
	.st9{fill:#F15D5F;}
	.st10{fill:#1A5579;}
	.st11{fill:#1D597A;}
	.st12{fill:#1E4263;}
	.st13{fill:#DC282A;}
	.st14{fill:#B3272C;}
	.st15{fill:#BC2128;}
	.st16{fill:#C22328;}
	.st17{fill:#F15F62;}
	.st18{fill:#F15E61;}
	.st19{fill:#F16065;}
	.st20{fill:#F16063;}
	.st21{fill:#F15D60;}
	.st22{fill:#F15F61;}
	.st23{fill:#F15F64;}
	.st24{fill:#DD2528;}
	.st25{fill:#DB2428;}
	.st26{fill:#DA2428;}
	.st27{fill:#DA2429;}
</style>
<g>
	<path class="st0" d="M59.1,121.8c-8.1,0.8-16.3,1.5-24.4,2.4c-1.9,0.2-2.9-0.9-3.4-2.3c-1.4-4.5-2.6-9-3.9-13.5
		c-0.7-2.5,0.6-4.4,2.2-6.1c3.3-3.5,7.7-5.2,11.7-7.7c7.5-4.7,15.3-8.8,22.8-13.6c3.6-2.3,6.7-2.5,8.9-0.5c0.4,2.2-0.2,3.5-2.8,3.2
		c-1.1-0.1-2.2,0.2-3.2,0.8c-10.3,6.4-21.4,12-31.6,18.9c-3.4,2.3-3.8,3.6-2.5,7.6c0.5,1.6,0.9,3.3,1.3,4.9c0.4,1.4,1.1,2.6,2.6,3
		c0.7,0.3,1.3,1,2.2,0.8c6.7-1.8,13.7-0.9,20.4-2.3c0.4-0.1,0.8-0.3,1.2-0.2c6.3,0.7,10.9-2.8,15.8-6c9.2-6.1,18.9-11.6,28.3-17.4
		c2.6-1.6,5.8-2,8.4-3.6c0.5,0,1.1,0,1.6-0.1c1.3,0.3,1.6,1.1,1.4,2.3c0.6,5.2,0.2,10.4,0.3,15.6c0.1,6.9,0.1,13.8,0,20.7
		c0,1.7,0.1,3.4-1.1,4.9c-3.5,4-8.2,6.5-12.7,9.1c-1.1,0.7-2.1,0.1-3.1-0.4c-10.3-6.2-20.6-12.4-30.7-19.1c-2.2-1.5-4.2-2.2-6.6-0.9
		C61.1,122.7,60.1,122.6,59.1,121.8z"/>
	<path class="st0" d="M125.7,183.7c-4.1,2.8-7.7,6.2-12.1,8.6c-2.3-0.4-1.9-2.3-2-3.7c-0.1-8,0-16-0.1-24c0-2.2,0.1-4.4,0-6.6
		c-0.1-3.1-1-3.8-4-2.6c-5.7,2.3-11.4,4.3-17,6.7c-2.3,1-4.9,0.9-7.2,1.8c-2.5-0.4-4.3-2.2-6.6-3.1c-4.1-1.8-7.1-5.3-10.9-7.6
		c-1-0.6-0.9-1.9-1.4-2.8c-6.6-3.9-12.3-8.8-17.9-13.9c-1.6-1.4-2.1-3.4,0.2-5c1,0.1,1.9,0.2,2.7,1.1c7.4,8.3,16.9,13.8,26,20
		c10.6,7.1,10.1,5,19.1,1.6c5.2-1.9,10.1-4.7,15.5-6.2c2.5,1.1,4.5,0,6.6-1.5c11.7-8.3,23.6-16.3,35.5-24.3c1.4-0.9,2.9-1.8,4.4-2.6
		c1.8-1,2.7-0.4,2.5,1.6c-0.1,1.2,0.3,2.4-0.3,3.5c-0.2,4.7-0.4,9.3-0.5,14c0.3,0.4,0.6,0.9,0.8,1.4c0.8,3.4,0.4,6.7-1.8,9.5
		c-0.3,3.1-0.6,6.2-0.9,9.3c-0.3,0.9-0.9,0.5-1.5,0.4c-1.2-0.9-1.4-2.1-1.4-3.7c0.3-8,1.1-15.9,0.8-23.9c0-1.1,0.3-2.4-0.9-3
		c-1.3-0.6-2,0.6-2.7,1.4c-2.7,3.2-5.7,6.1-8.2,9.5c-0.5,0.7-1.3,1.3-1.1,2.3c0.6,0.5,1.2,0.1,1.8,0.2c2.4,0.1,3.4,1.6,2.4,3.8
		c-0.9,2-2,3.9-3.2,5.8c-0.9,1.4-1.4,2.6,0.8,3.5c1.8,0.8,1.8,2.5,0.7,4c-0.9,1.3-1.6,2.7-1.8,4.3c-1.8,1.9-4.2,2.8-6.4,4.1
		c-2.8,1.6-5.3,3.6-5.9,7.2c-0.1,1.7-0.5,3.4-0.6,5C128.9,182.2,127.8,183.3,125.7,183.7z"/>
	<path class="st1" d="M110,149c-7,3.8-14.6,6.3-21.9,9.4c-2.9,1.2-5.8,0.5-8.3-1.2c-9.9-6.5-20.1-12.6-28.9-20.7
		c-1.7-1.5-2.5-3.6-4.2-5c2.9-2.9,6.7-4.7,10-7.1c1-0.7,2-1.3,2.4-2.5c4.7-3.3,8.3-1.8,12.8,1.3c9.7,6.7,20,12.5,30.1,18.7
		c4.1,0.2,7.2,1.9,9.4,5.3C111.5,148.1,110.9,148.6,110,149z"/>
	<path class="st1" d="M115.6,91.3c-0.3-0.4-0.6-0.8-0.9-1.2c4.8-2.8,9.6-5.7,14.4-8.4c3.6-2,7.1-2.1,11,0.3
		c8.1,5,16.6,9.5,24.8,14.3c2.6,1.5,5.1,3.1,7.2,5.3c0.6,1,0.2,2-0.4,2.8c-3.5,5.1-7.8,9.3-13.5,11.8c-0.6,0.1-1.2,0.1-1.8,0.2
		c-2.8,0.3-4.6-1.7-6.6-3c-9.2-6.1-18.9-11.4-28.4-17C119.1,95.2,116.4,94.2,115.6,91.3z"/>
	<path class="st2" d="M35.7,120.9c-1.2,0.4-1.6-0.4-1.9-1.3c-1.1-3.6-2.4-7.2-3.3-10.9c-0.8-2.9,1.1-4.9,3.3-6.2
		c10.9-6.6,21.9-13.1,32.8-19.6c1.2-0.7,2.6-1.2,4-0.8c1.6,0.5,2.2-0.3,2.5-1.7c3,4.1,3.4,8.9,3.8,13.6c1,1.8-0.3,2.6-1.5,3.4
		c-11.8,7.4-23.6,14.9-35.5,22C38.6,120.1,37,120.1,35.7,120.9z"/>
	<path class="st3" d="M35.7,120.9c8.8-6.8,18.7-11.7,28-17.8c4.5-2.9,9.4-5.3,13.3-9.1c10.6-1.8,21.4-1.7,31.9-3.3
		c1.4-0.2,2.8-0.4,4.1-0.5c-3,3.4-7.4,4.7-11.1,7C91.6,103.6,81,109.7,71,116.6c-2.1,1.4-4.3,1.9-6.7,2c-7.6,0.5-15.3,1.3-22.9,2
		C39.5,120.6,37.6,120.7,35.7,120.9z"/>
	<path class="st4" d="M155,158.6c0.4,0.1,0.9,0.3,1.3,0.4c4.5,1.9,7.8,5.1,10.2,9.3c3.7,6.3,9,10.2,16.2,11.6
		c2.7,0.5,3.3,1.5,2.4,3.4c-0.9-0.7-1.7-0.2-2.4,0.4c-2.5,2.2-5.4,3.7-7.9,6c-2.1,1.9-4.3,1.8-6.9,0.9c-7.2-2.3-11.8-7.4-15.6-13.5
		c-1.4-2.2-3.2-4-5.5-5.3c-5.9-3.4-10.8-2.5-15.2,2.6c-0.4,0.4-0.6,1.1-1.2,1.3c-1.2,0.4-2.3,0.4-1.8-1.4c1.2-3.7,3.7-6.4,7-8.4
		c1.7-1,3.4-2,5.1-2.9c2.1-2.9,4.8-4.6,8.3-5.3C151.2,157.2,153.2,157.1,155,158.6z"/>
	<path class="st3" d="M82.9,162.4c2.4-0.1,4.7-0.6,7-1.6c6.8-3,13.9-5.1,20.5-8.5c2.7-1.4,2.8,0.5,2.8,2.3c0,11.1,0,22.2,0,33.3
		c0,1.5-0.2,3,0.5,4.4c-0.7,1.8-1.4,0.5-2.2,0c-5.1-3.6-10.2-7.1-15.3-10.6c-1.9,0-2.9-1-3.1-2.9c-0.2-1.7-0.7-3.3-0.8-5
		c-0.3-2.5-2.4-4.2-3-6.6c0.5-1,1.2-1.8,2.3-2.1c3.5-1.2,6.6-3.2,9.3-4.1c-3.4,2-8.2,2.9-11.8,6C86.2,166.4,83.5,165.7,82.9,162.4z"
		/>
	<path class="st4" d="M82.9,162.4c2,1.4,4.1,2.9,6.1,4.3c0.3,0,0.5,0.2,0.5,0.5c1.5,1.8,3.2,3.5,3.9,5.8c0.2,2.2-0.8,2.2-2.3,1.3
		c-0.4-0.3-0.6-0.8-0.9-1.2c-4.8-6.2-11.2-6.9-18.1-0.8c-1.9,1.7-3.6,3.7-4.8,6.1c-2,3.7-5,6.4-8.9,8c-1.1,0.1-2.2-0.1-3.1-0.8
		c-3.8-2.8-8.3-4.7-11.8-8c5.4-1.5,9.4-4.7,11.6-9.9c1.9-4.5,5.5-7.4,9.5-10c2-2.3,3.5-2.7,6.2-1.5c2.2,1,4.7,1.5,6.8,3
		C79.4,160.3,81.1,161.4,82.9,162.4z"/>
	<path class="st5" d="M66.7,20.9c1.3-0.2,1.7,0.8,2,1.6c3.3,9.2,7.8,17.8,11.2,27c1.7,4.6,4,8.9,6.1,13.3
		c3.4,7.3,6.7,14.6,10.2,21.8c0.8,1.7,0.1,2.3-1.2,3.1c-1.4,0.8-2.2,0.3-2.8-1c-1.6-3.3-3.2-6.7-4.7-10c-2.2-4.8-4.5-9.5-6.5-14.4
		c-2.5-6.2-5.7-12-7.9-18.3c-1.2-3.4-2.5-6.7-4.3-9.8c-1.9-3.2-2.6-6.9-4.4-10.2C63.2,21.5,65.6,21.5,66.7,20.9z"/>
	<path class="st6" d="M128.6,174.3c0.8,1.1,1.1,0.3,1.5-0.3c4.4-6.8,13.8-8.2,20.5-0.9c2.2,2.4,4.2,4.8,5.9,7.5
		c3.1,5.2,8.2,7.4,13.6,9.1c1.2,0.4,2.5,0.2,3.4-0.7c2.6-2.7,6.1-4.2,8.7-6.8c1.6-1.6,2.6-1.2,2.9,1c-3.6,3.8-8.1,6.4-12.2,9.5
		c-0.9,0.7-1.7,0.2-2.6,0c-7-1.9-13.2-5.1-16.8-11.9c-0.2-0.4-0.6-0.8-0.8-1.2c-5.3-7.6-6.2-7.7-13.5-2.1c-2.8,2.1-5.8,3.9-8.7,5.8
		c-1.5,1-3.2,1.1-4.9,0.4C128.4,181.1,127.2,177.3,128.6,174.3z"/>
	<path class="st5" d="M104.7,19.5c2.1-0.3,2.2,1.1,2.4,2.6c0.8,9.2,1.6,18.5,2.6,27.7c0.7,7.1,1.7,14.2,2.7,21.4
		c0.4,2.8-0.1,5.6,1,8.3c0.4,1-0.3,1.8-1.3,1.8c-1.1,0.1-2.5,0.7-3-1c-0.2-0.7-0.3-1.4-0.4-2.1c-1.1-9.6-2.2-19.2-3.3-28.8
		c-0.8-6.6-1.5-13.3-2.3-19.9c-0.3-2.7,0.1-5.4-0.6-8C102.1,19.8,103.4,19.4,104.7,19.5z"/>
	<path class="st7" d="M58.4,186.4c0.1-1.2,0.5-2.1,1.7-2.6c2.7-1.2,4.4-3.4,5.8-5.9c1.9-3.6,4.8-6.4,8.1-8.7
		c6.4-4.5,12.6-3.4,17.3,2.7c0.4,0.5,0.4,2.8,2.1,1c0.7,1.6,0.7,3.3,0.8,4.9c0.1,1.6,0.6,2.9,1.9,3.8c-2,1.9-4,0.8-5.7-0.4
		c-4.1-2.7-8.1-5.5-12-8.5c-1.9-1.5-3.2-1.7-5,0.2c-2.8,2.8-4.8,6.1-6.9,9.4C64.5,185.4,60.9,187.2,58.4,186.4z"/>
	<path class="st8" d="M141.6,31.6c-1.6,4.4-2.4,9.2-3.9,13.9c-2.2,6.9-3.9,14-5.4,21.1c-0.3,1.4-0.9,2.7-1.1,4
		c-0.3,1.6-0.8,2.3-2.6,2c-1.8-0.4-2.3-1.3-1.7-3c1.8-5.8,2.8-11.8,4.6-17.6c2.1-6.9,3.4-14.1,5.7-21c0.4-1.2,0.8-2.1,2.2-1.7
		C140.4,29.6,141.7,29.7,141.6,31.6z"/>
	<path class="st9" d="M156.3,115.6c0.6,0,1.2-0.1,1.8-0.1c1.4,0.3,1.6,1.3,1.6,2.5c-0.3,2.3-0.7,4.6-1,6.9c-0.4-1.4,0.8-3.5-0.5-4.2
		c-1.2-0.6-2.6,1.1-3.8,1.9c-11.1,7.4-22.4,14.5-33.1,22.5c-2,1.5-4.2,2.7-6.1,4.3c-1.9,1.5-3.4-0.6-5.1-0.4
		c0.3-0.5,0.5-1.1,0.8-1.6c3.5-3.4,7.6-5.9,11.7-8.4c4.9-4.4,10.8-7.5,16.1-11.2c5.4-3.7,10.7-7.6,16.3-10.9
		C155.6,116.5,156,116.1,156.3,115.6z"/>
	<path class="st10" d="M158,139.9c0.1-0.4,0.1-0.8,0.2-1.2c3,1.4,5.5,3.5,8.3,5.3c2.6,1.6,5.4,2.5,8.2,3.6c3.2,1.2,3.5,3.6,0.9,5.8
		c-1.5-0.7-2.7,0.3-3.9,0.8c-4.4,1.8-6.1,1.3-9.6-1.8C158.1,149,157.1,144.8,158,139.9z"/>
	<path class="st8" d="M161.8,56.9c1,0.3,1.9,1.1,2.5,2s-0.1,1.5-0.6,2.1c-4.9,5-9.8,9.9-14.7,14.9c-1.2,1.2-2.1,1.1-3.2-0.1
		c-1-1.1-1.2-1.9,0-3c5.1-4.6,10-9.4,14.4-14.7C160.5,57.4,161,56.9,161.8,56.9z"/>
	<path class="st11" d="M58,59.3c1.1,0.1,1.4,0.6,1.7,1.1c2.5,3.5,4.9,7,7.5,10.4c0.9,1.2,0.5,1.9-0.7,2.6c-1,0.6-1.8,1.6-2.9,0
		c-2.4-3.5-5-7-7.5-10.4c-0.5-0.7-1-1.4-0.2-2.1C56.5,60.2,57.4,59.7,58,59.3z"/>
	<path class="st12" d="M158,139.9c-1.1,5.8,2.4,9.3,6.3,12.6c2.3,2,5.7,1.6,9-1c0.7-0.6,1.4-1.8,2.5-1.1c1.3,0.9,0.1,1.9-0.2,2.9
		c-5.9,5-10.9,4.5-15.8-1.4c-0.8-0.9-1.4-1.9-2.6-2.4C157.8,146.5,157.2,143.1,158,139.9z"/>
	<path class="st13" d="M159.7,117.9c-1.1-0.5-1.6-1.3-1.6-2.5c3.6-2.6,7-5.4,10.2-8.5c1.6-1.6,1.9-3.9,3.8-5.2
		c2.7,1.3,1.5,3.2,0.4,4.6c-3,4.1-7.1,7.2-11,10.4C160.9,117.1,160.3,117.5,159.7,117.9z"/>
	<path class="st14" d="M77.6,159.3c-4.2-1.9-8.4-3.1-13-1.5c-0.1-2.5-0.1-5-0.2-7.5c3.7,2.3,6.5,5.8,10.8,7.3
		C76.1,157.9,76.8,158.8,77.6,159.3z"/>
	<path class="st3" d="M156.3,115.6c1.2,1.9-0.6,2.5-1.6,3.2c-10.5,7.1-21,14.1-31.5,21.1c-3.8-1.2-7.2-3.1-9.6-6.5
		c1.2-1.4,1.2-3.1,1.2-4.8c0-11.1,0-22.2,0-33.2c0-1.4-0.1-2.8,0.7-4.1c8.2,4.8,16.4,9.8,24.7,14.5
		C145.7,108.9,150.6,112.9,156.3,115.6z"/>
	<path class="st2" d="M113.6,133.4c3.8,1.2,6.9,3.6,9.6,6.5c-3.4,2.4-6.8,4.8-10.1,7.2c-0.7,0.5-1.5,0.4-2.3,0.2
		c-2.7-2.2-6.2-3.1-8.8-5.5C105.9,139,109.8,136.2,113.6,133.4z"/>
	<path class="st3" d="M155,158.6c-5.4-0.6-9.8,2-14.3,4.4c0.3-0.8,0.6-1.7,0.9-2.5c1.4-3.4,1.4-3.4-2.1-3.7
		c-1.6-0.2-1.4-1.1-0.8-2.1c1.6-2.9,3.3-5.7,4.9-8.6c0.4-0.7,1.2-1.3,0.6-2.1c-0.6-0.8-1.4-0.2-2.2-0.1c-1.4,0.3-3.1,1.8-4.1,0.3
		c-1.1-1.7,1.1-2.6,2-3.8c3.4-4.6,7.3-8.7,11.2-12.9c0.9-0.9,1.8-2.1,3.3-1.5c1.6,0.6,1.2,2.1,1.2,3.4c0.2,9.2-0.3,18.3-0.8,27.5
		C154.8,157.4,155,158,155,158.6z"/>
	<path class="st15" d="M138.6,149.4c-1.3,1.5-2.5,2.9-3.8,4.4c-0.3,0.3-0.7,0.4-1.1,0.1c-0.3-0.3-0.2-0.8,0-1.1c1.3-1.4,2.5-3,4.3-4
		C138.2,149,138.4,149.2,138.6,149.4z"/>
	<path class="st16" d="M132.3,166.4c1-2,2.9-3,4.7-4C136.1,164.4,134.2,165.4,132.3,166.4z"/>
	<path class="st17" d="M70,129.9c0.8,0,1,0.6,1.2,1.2c1.8,4.9,3.6,9.7,5.4,14.6c0.2,0.6,0.5,1.3-0.3,1.5c-0.7,0.3-1.1-0.4-1.3-1
		c-1.8-4.9-3.6-9.7-5.4-14.6C69.4,131,69,130.2,70,129.9z"/>
	<path class="st18" d="M81,136.4c0.2,0.2,0.6,0.5,0.7,0.8c1.1,2.9,2.2,5.7,3.3,8.6c0.2,0.5,0.2,1-0.3,1.3c-0.4,0.2-0.8-0.1-1-0.5
		c-1.2-3-2.4-6.1-3.6-9.2C80,137,80.2,136.5,81,136.4z"/>
	<path class="st19" d="M65.7,135.5c0.1,0.6,0.1,1-0.4,1.1c-0.4,0.2-0.8-0.1-1-0.5c-1.1-1.7-1.6-3.6-2-5.5c-0.1-0.3,0.2-0.8,0.4-1
		c0.4-0.3,0.8,0.1,0.9,0.4C64.5,132,65.1,133.8,65.7,135.5z"/>
	<path class="st20" d="M90.7,142.4c1,0.8,1,2,1.2,3.1c0.1,0.4-0.4,0.8-0.7,0.6c-1.1-0.7-1.2-1.9-1.3-3.1
		C89.8,142.6,90.1,142.4,90.7,142.4z"/>
	<path class="st21" d="M141.8,101.1c-1,0-1.2-0.9-1.6-1.5c-1.7-3.2-3.4-6.4-5.1-9.5c-0.3-0.5-0.7-1.1-0.1-1.6c0.4-0.3,0.8-0.1,1,0.2
		c2.2,4,5,7.6,5.9,12.2C142.1,101,141.9,101,141.8,101.1z"/>
	<path class="st22" d="M146.4,93.5c0.6,0,0.9,0.4,1.1,0.9c1.4,2.9,2.8,5.9,4.2,8.8c0.2,0.4,0.3,1-0.2,1.4c-0.5,0.3-1,0-1.2-0.5
		c-1.5-3.1-3-6.3-4.4-9.4C145.8,94.3,145.8,93.7,146.4,93.5z"/>
	<path class="st23" d="M156,100.3c0.5,0.1,0.7,0,0.7,0.1c1,1.1,1.9,2.3,1.7,3.9c0,0.1-0.6,0.4-0.7,0.3
		C156.6,103.5,155.9,102.2,156,100.3z"/>
	<path class="st24" d="M60.8,114.3c-0.3-0.2-0.6-0.3-0.7-0.5c-0.2-0.5,0.1-1,0.5-1.3c1.8-2,3.6-4,5.4-6c1.5-1.7,3-3.4,4.6-5.1
		c0.4-0.4,1-0.9,1.6-0.4c0.5,0.4,0.1,0.9-0.2,1.3c-3.4,3.8-6.8,7.6-10.2,11.4C61.5,113.9,61.2,114,60.8,114.3z"/>
	<path class="st25" d="M82.2,100.2c-1.6,2.1-3.2,4.2-4.9,6.2c-0.3,0.4-0.7,0.8-1.3,0.5c-0.6-0.3-0.5-0.9-0.1-1.2
		c2-1.9,3.1-4.8,5.7-6.1C81.8,99.8,82,100,82.2,100.2z"/>
	<path class="st26" d="M89.5,167.1c-0.2-0.2-0.4-0.3-0.5-0.5c0.3-1.2,1-1.9,2.1-2.4c3.5-1.5,6.9-3.1,10.4-4.6c0.8-0.4,2-1.5,2.6-0.3
		s-1,1.4-1.8,1.8C98,163.1,93.6,164.8,89.5,167.1z"/>
	<path class="st27" d="M105.1,169.9c-1.9,2.3-4.7,3-7.1,4.5c-0.3,0.2-0.9,0.2-1-0.2c-0.1-0.3,0-0.9,0.3-1
		C99.8,171.7,102.1,170.1,105.1,169.9z"/>
	<path class="st26" d="M129.3,124.5c-2.6-5.3-5.3-10.6-7.9-15.9c0.5-0.2,0.9-0.5,1.4-0.7c2.6,5.3,5.3,10.6,7.9,15.9
		C130.3,124,129.8,124.2,129.3,124.5z"/>
	<path class="st25" d="M119.4,121.4c2.5,2,2.7,4.4,3.9,6.3c0.2,0.3,0.1,0.8-0.3,1c-0.4,0.2-0.8-0.1-1-0.5
		C121,126.3,119.5,124.5,119.4,121.4z"/>
	<path class="st25" d="M133.6,115.6c0,0.9-0.3,1.3-1.1,1c-0.3-0.1-0.5-0.3-0.6-0.6c-1-1.6-2.2-3.1-2.3-5c0-0.1,0.6-0.4,0.6-0.4
		C132,111.9,132.3,114.2,133.6,115.6z"/>
</g>
</svg>
